<svg width="44" height="44" viewBox="0 0 44 44" fill="none" xmlns="http://www.w3.org/2000/svg">
<path fill-rule="evenodd" clip-rule="evenodd" d="M2.58097 9.26954H4.76997V39.429H26.5383V41.3748H2.58097V9.14793V9.26954ZM8.17507 24.9573C8.17507 26.7815 9.75601 28.3624 10.8505 28.9705C12.5531 29.9434 14.7421 29.7002 16.8094 29.7002C18.9984 29.7002 21.309 29.7002 23.498 29.7002C25.5654 29.7002 28.1192 29.5785 30.1866 29.7002V38.0913C30.065 38.2129 30.3082 38.2129 29.8218 38.2129C29.7002 38.2129 29.457 38.2129 29.457 38.2129C26.1735 38.2129 6.83735 38.3345 6.10769 38.2129V5.86443H8.05346V25.0789L8.17507 24.9573ZM16.931 28.2408C17.2959 27.5112 18.0255 27.0247 18.0255 25.3222H41.8613C41.7397 26.4167 41.1316 27.1463 40.6452 27.6328C39.9155 28.3624 38.9426 28.2408 37.7265 28.2408C35.5375 28.2408 18.1472 28.3624 16.931 28.2408ZM16.6878 24.9573C16.6878 26.2951 15.9582 27.5112 14.9853 27.876C13.7692 28.484 12.4314 28.3624 11.337 27.7544C10.4857 27.2679 9.6344 26.2951 9.51279 25.0789C9.26957 23.9844 9.39118 4.64832 9.39118 2.45933H33.4701V23.9844H16.6878V24.9573ZM31.646 29.7002C33.4701 29.7002 38.6994 29.9434 40.0371 29.4569C41.1316 29.0921 41.9829 28.3624 42.4693 27.6328C43.0774 26.7815 43.3206 25.3222 43.0774 24.1061H34.8078V1H7.93185V4.4051H4.64836V7.81021H1.00003V42.7125H27.7544V39.3074H31.4027C31.646 36.9968 31.1595 30.673 31.5243 29.5785L31.646 29.7002Z" fill="white"/>
<path fill-rule="evenodd" clip-rule="evenodd" d="M10.2422 34.0782H24.8361H25.0793L25.3225 33.9565V32.7404L25.0793 32.6188H10.2422V34.0782Z" fill="white"/>
<path fill-rule="evenodd" clip-rule="evenodd" d="M14.1348 9.26965H29.2151V7.93188H14.1348V9.26965Z" fill="white"/>
<path fill-rule="evenodd" clip-rule="evenodd" d="M14.1348 14.7421H29.3367L29.2151 13.4043H14.2564L14.1348 14.7421Z" fill="white"/>
<path fill-rule="evenodd" clip-rule="evenodd" d="M14.1348 11.9451H29.3367L29.2151 10.6073H14.2564L14.1348 11.9451Z" fill="white"/>
<path fill-rule="evenodd" clip-rule="evenodd" d="M29.2156 17.4174V16.2013H14.2569V17.4174H29.2156Z" fill="white"/>
<path fill-rule="evenodd" clip-rule="evenodd" d="M24.4726 20.2146V18.8768H14.2569V20.2146H24.4726Z" fill="white"/>
<path fill-rule="evenodd" clip-rule="evenodd" d="M30.3068 37.9699H6.34946V5.74307H8.17362C8.17362 7.81045 8.05201 24.4711 8.29523 24.836V5.62146H6.34946V37.9699C7.07912 38.0915 26.4152 37.9699 29.6987 37.9699C29.8203 37.9699 30.0636 37.9699 30.0636 37.9699C30.55 37.9699 30.1852 37.9699 30.4284 37.8483L30.3068 37.9699Z" fill="white"/>
<path fill-rule="evenodd" clip-rule="evenodd" d="M29.2151 17.4176H14.2564V16.0798H29.2151C28.9718 15.8366 22.0398 15.9582 21.6749 15.9582C20.5804 15.9582 14.6213 15.8366 14.1348 15.9582V17.296C14.6213 17.4176 26.6612 17.4176 28.8502 17.296H29.0935C29.2151 17.296 29.2151 17.296 29.2151 17.1744V17.4176Z" fill="white"/>
<path fill-rule="evenodd" clip-rule="evenodd" d="M24.4726 20.2146H14.2569V18.8768H24.4726H19.4864C18.3918 18.8768 15.1082 18.7552 14.2569 18.8768V20.2146C14.9866 20.3362 22.0403 20.2146 23.9861 20.2146C24.2294 20.2146 24.4726 20.2146 24.5942 20.093L24.4726 20.2146Z" fill="white"/>
</svg>
