<svg width="44" height="44" viewBox="0 0 44 44" fill="none" xmlns="http://www.w3.org/2000/svg">
<path d="M16.7155 43.6113L14.9014 41.7972C13.3465 40.1127 7.77464 34.0226 3.88732 27.6733C1.6845 24.0452 0 20.1578 0 17.1776C0 12.5128 1.94366 8.36631 4.92394 5.25646C8.03379 2.1466 12.1803 0.33252 16.845 0.33252C21.5098 0.33252 25.6563 2.27618 28.7662 5.25646C31.876 8.36631 33.6901 12.5128 33.6901 17.1776C33.6901 21.4536 30.3211 27.2846 26.8225 32.2085C23.3239 37.1325 19.5662 41.1494 18.7887 41.9268L16.845 44.0001L16.5859 43.7409L16.7155 43.6113ZM16.9746 24.5635C14.9014 24.5635 12.9577 23.6564 11.5324 22.3607C10.107 20.9353 9.32956 19.1212 9.32956 16.9184C9.32956 14.8452 10.2366 12.9015 11.5324 11.4762C12.9577 10.0508 14.7718 9.27335 16.9746 9.27335C19.0479 9.27335 20.9915 10.1804 22.4169 11.4762C23.8422 12.9015 24.6197 14.7156 24.6197 16.9184C24.6197 18.9916 23.7126 20.9353 22.4169 22.3607C20.9915 23.786 19.1774 24.5635 16.9746 24.5635ZM16.9746 11.4762C15.4197 11.4762 14.1239 12.1241 13.0873 13.0311C12.0507 14.0677 11.5324 15.3635 11.5324 16.9184C11.5324 18.4733 12.1803 19.7691 13.0873 20.8057C14.1239 21.8423 15.4197 22.3607 16.9746 22.3607C18.5295 22.3607 19.8253 21.7128 20.8619 20.8057C21.8986 19.7691 22.4169 18.4733 22.4169 16.9184C22.4169 15.3635 21.769 14.0677 20.8619 13.0311C19.8253 11.9945 18.5295 11.4762 16.9746 11.4762ZM16.9746 2.1466C12.9577 2.1466 9.19999 3.83111 6.60844 6.42265C3.88732 9.14377 2.33239 12.7719 2.33239 16.7888C2.33239 20.6762 5.57182 26.1184 8.94083 30.7832C12.3098 35.448 15.938 39.3353 16.7155 40.1127L17.1042 40.5015L17.4929 40.1127C20.6028 36.8733 25.0084 31.5606 28.1183 26.5071C30.3211 22.879 31.876 19.3804 31.876 16.7888C31.876 12.7719 30.1915 9.0142 27.6 6.42265C24.8788 3.70153 21.2507 2.1466 17.2338 2.1466H16.9746Z" fill="white"/>
</svg>
