<svg width="44" height="44" viewBox="0 0 44 44" fill="none" xmlns="http://www.w3.org/2000/svg">
<path fill-rule="evenodd" clip-rule="evenodd" d="M12.7633 17.7099C13.8096 17.7099 14.6467 17.7099 15.7976 17.7099C18.0996 17.7099 17.7857 18.0238 17.7857 17.0821C17.8903 13.7338 17.7857 10.1763 17.7857 6.82804H15.7976V14.3616C15.5884 14.1524 15.4837 14.0477 15.1698 13.8385C14.9606 13.6292 14.8559 13.4199 14.6467 13.2107C14.4374 13.106 14.2281 12.8968 14.1235 12.5829C14.0189 12.3736 13.705 12.269 13.4957 12.0597C13.3911 11.9551 13.2864 11.8504 13.1818 11.7458C13.0772 11.6412 13.0772 11.6412 12.8679 11.5365C12.6586 11.3273 12.554 11.118 12.3447 10.9087L11.7169 10.3856C11.6123 10.2809 11.5077 10.1763 11.403 10.0717L10.566 9.2346C10.0428 8.81607 9.20575 7.76974 8.78721 7.56047C8.47331 7.35121 8.36868 7.14194 7.95015 6.72341L7.42698 6.09561C7.21772 5.88634 6.90382 5.78171 6.58992 5.25854C6.38065 5.36318 5.33432 6.40951 5.12505 6.61878L6.27602 7.76974C6.48528 7.97901 6.69455 8.18827 6.79918 8.39754C7.00845 8.50217 7.21772 8.71144 7.42698 8.92071C7.53162 9.02534 7.53162 9.12997 7.74088 9.2346L13.1818 14.6755C13.2864 14.7802 13.2864 14.7802 13.2864 14.8848C13.6003 15.0941 14.1235 15.6172 14.2281 15.9311H6.69455V17.9192C8.78721 17.9192 10.6706 17.9192 12.6586 17.9192L12.7633 17.7099Z" fill="#333333"/>
<path fill-rule="evenodd" clip-rule="evenodd" d="M35.1555 33.718C35.0509 33.6134 34.9463 33.6134 34.8417 33.5087L34.3185 32.8809C33.4814 32.1485 31.8073 30.3697 30.8656 29.428C30.6563 29.2188 30.5517 29.0095 30.3424 28.8002L29.1915 27.6493H36.725V25.6613H25.8432C25.8432 26.3937 25.9478 36.2292 25.8432 36.6477H27.8312V29.1141C28.0405 29.2188 27.9359 29.2188 28.1451 29.428C28.2498 29.5327 28.3544 29.6373 28.459 29.7419L34.8417 36.1246C35.3648 36.5431 36.725 38.2172 37.1436 38.4265L38.5038 37.0663L35.3648 33.8226L35.1555 33.718Z" fill="#333333"/>
<path fill-rule="evenodd" clip-rule="evenodd" d="M20.2975 24.5104L18.9372 23.1501L17.2631 24.8243C17.3677 25.0335 18.5187 26.0799 18.6233 26.1845L20.2975 24.5104Z" fill="#333333"/>
<path fill-rule="evenodd" clip-rule="evenodd" d="M21.6574 23.2549C21.8666 23.1503 23.1222 21.7901 23.3315 21.5808L22.2852 20.5345C22.1805 20.4298 22.0759 20.3252 21.9713 20.2206L20.2971 21.8947C20.4018 21.9993 20.5064 22.104 20.611 22.2086C20.8203 22.4179 21.0296 22.5225 21.3435 22.941C21.4481 23.1503 21.5527 23.1503 21.6574 23.2549Z" fill="#333333"/>
<path fill-rule="evenodd" clip-rule="evenodd" d="M26.26 18.6511C26.1553 18.4419 25.0044 17.3955 24.8997 17.2909L23.2256 18.965L24.5858 20.3253L26.26 18.6511Z" fill="#333333"/>
<path fill-rule="evenodd" clip-rule="evenodd" d="M5.12523 6.51416C5.3345 6.3049 6.38083 5.25856 6.59009 5.15393C6.90399 5.6771 7.21789 5.78173 7.42716 5.991L7.95032 6.61879C8.36886 7.03733 8.47349 7.24659 8.78739 7.45586C9.10129 7.76976 10.043 8.81609 10.5662 9.12999L11.4032 9.96705C11.5079 10.0717 11.6125 10.1763 11.7171 10.281L12.3449 10.8041C12.5542 11.0134 12.6588 11.2227 12.8681 11.4319C12.9727 11.5366 13.0773 11.5366 13.182 11.6412C13.2866 11.7458 13.3912 11.8505 13.4959 11.9551C13.7051 12.1644 13.9144 12.3736 14.1237 12.4783C14.3329 12.6875 14.5422 12.8968 14.6468 13.106C14.8561 13.3153 15.0654 13.5246 15.17 13.7338C15.3793 13.9431 15.5885 14.0477 15.7978 14.257V6.72343H17.7858C17.7858 10.1763 17.8905 13.6292 17.7858 16.9775C17.7858 17.9192 18.0997 17.6053 15.7978 17.6053C14.7515 17.6053 13.8098 17.6053 12.7634 17.6053C10.7754 17.6053 8.89202 17.6053 6.79936 17.6053V15.6172H14.3329C14.2283 15.3033 13.6005 14.8848 13.3912 14.5709C13.2866 14.4663 13.2866 14.4663 13.2866 14.3616L7.84569 8.92072C7.63642 8.81609 7.74106 8.81609 7.53179 8.60682C7.32253 8.39756 7.11326 8.18829 6.90399 8.08366C6.69473 7.87439 6.48546 7.66513 6.38083 7.45586L5.22986 6.3049L5.12523 6.51416Z" fill="#333333"/>
<path fill-rule="evenodd" clip-rule="evenodd" d="M24.5858 20.3253L23.2256 18.965L24.8997 17.2909C25.109 17.3955 26.1553 18.5465 26.26 18.6511L24.5858 20.3253Z" fill="#333333"/>
<path fill-rule="evenodd" clip-rule="evenodd" d="M21.6574 23.2549C21.5527 23.1503 21.4481 23.1503 21.3435 22.941C21.0296 22.6271 20.8203 22.5225 20.611 22.2086C20.5064 22.104 20.4018 21.9993 20.2971 21.8947L21.9713 20.2206C22.0759 20.3252 22.1805 20.4298 22.2852 20.5345L23.3315 21.5808C23.1222 21.7901 21.8666 23.1503 21.6574 23.2549Z" fill="#333333"/>
<path fill-rule="evenodd" clip-rule="evenodd" d="M18.6233 26.2892C18.4141 26.1846 17.3677 25.0336 17.2631 24.929L18.9372 23.2549L20.2975 24.6151L18.6233 26.2892Z" fill="#333333"/>
<path fill-rule="evenodd" clip-rule="evenodd" d="M38.3983 36.9617L37.038 38.3219C36.6195 38.1126 35.2593 36.5431 34.7361 36.02L28.3535 29.6373C28.2489 29.5327 28.1442 29.4281 28.0396 29.3234C27.935 29.2188 27.935 29.1142 27.7257 29.0095V36.5431H25.7377C25.8423 36.1246 25.7377 26.2891 25.7377 25.5566H36.6195V27.5447H29.0859L30.2369 28.6956C30.4461 28.9049 30.5508 29.1142 30.76 29.3234C31.8064 30.2651 33.3759 32.0439 34.2129 32.7763L34.7361 33.4041C34.8407 33.5088 34.9454 33.5088 35.05 33.6134L38.189 36.857L38.3983 36.9617Z" fill="#333333"/>
<path fill-rule="evenodd" clip-rule="evenodd" d="M0.730591 0.759521H28.1435V15.303H42.687V42.6113H15.3787V28.0678H0.730591V0.759521Z" stroke="#333333" stroke-width="1.56944" stroke-miterlimit="22.9256"/>
</svg>
