<svg width="38" height="38" viewBox="0 0 38 38" fill="none" xmlns="http://www.w3.org/2000/svg">
<g id="_1819227312">
<path id="Vector" fill-rule="evenodd" clip-rule="evenodd" d="M5.74669 21.901C5.74669 21.7685 5.85262 21.7685 5.95855 21.7421L7.38861 21.2124C7.57398 21.1594 7.81231 21.027 7.99769 21.0005V29.8192H5.72022V21.901H5.74669ZM1.08578 25.2642C1.08578 24.6816 2.14508 23.7812 2.54231 23.5164L3.52217 22.9073C3.89293 22.6954 4.21071 22.5365 4.55499 22.3511V29.8457H1.0593V25.2907L1.08578 25.2642ZM20.3915 19.491C20.7622 19.7559 21.848 20.7357 22.2453 20.7357C22.5366 20.7357 23.0133 20.312 23.4899 20.0737C24.8935 19.3586 25.0259 19.5705 25.6085 19.3322C25.8469 19.2527 25.9793 19.0144 26.0323 18.776L26.2441 17.0282H27.4888L27.7006 18.7231C27.7801 19.4116 28.1244 19.2527 28.8924 19.491C29.3955 19.6499 29.8192 19.8088 30.2694 20.0472C30.5078 20.1531 30.6932 20.2855 30.905 20.3914C31.6465 20.8417 31.5141 20.8681 32.494 20.1001C32.6529 19.9942 33.2355 19.491 33.3679 19.4381L34.2683 20.312C34.1889 20.4444 34.0564 20.5768 33.9505 20.7357L33.262 21.6096C33.1825 21.7156 33.156 21.7421 33.1031 21.848C32.8912 22.2717 33.1031 22.4836 33.3149 22.8013L33.6857 23.4104C34.5861 25.0259 34.0829 25.7939 35.0098 25.9792L36.7576 26.1911V27.4358C36.4398 27.4358 35.46 27.5947 35.0363 27.6212C34.4007 27.7006 34.4272 27.9919 34.2153 28.7599C33.8711 30.137 32.9971 31.1433 32.9971 31.4346C32.9971 31.62 33.156 31.8054 33.262 31.9113C33.3944 32.0702 33.4738 32.2026 33.6062 32.3615L34.2683 33.2354L33.3679 34.1358C33.3414 34.1094 33.3149 34.0829 33.262 34.0564L32.0703 33.1295C31.3817 32.5469 31.2758 33.0501 30.2959 33.5267C29.8722 33.7386 29.422 33.9505 28.8924 34.0829C28.2833 34.2418 27.8595 34.1888 27.7271 34.8509L27.5153 36.5987H26.2706C26.2706 36.2015 26.1117 35.354 26.0852 34.8773C26.0587 34.5596 25.9793 34.4271 25.7145 34.2947C25.2378 34.0829 24.2844 34.1094 22.669 33.0236C22.1658 32.6793 21.954 32.9176 21.3184 33.4738L20.4445 34.1358L19.544 33.2354L20.1796 32.4145C20.4974 31.9643 20.7622 31.8054 20.7622 31.3552C20.7622 30.9844 19.9413 30.2429 19.5705 28.7334C19.2527 27.5152 19.4646 27.7006 17.9551 27.4887C17.6638 27.4358 17.346 27.3828 17.0812 27.3828V26.1381C17.293 26.1381 17.6638 26.0587 17.9286 26.0322C19.544 25.8204 19.2527 26.0322 19.597 24.814C19.8354 23.9666 20.0472 23.5429 20.4709 22.8278C20.8947 22.1128 20.9741 22.1128 20.5239 21.5567L19.544 20.312L20.4445 19.4381L20.3915 19.491ZM18.4053 24.8935C17.5049 25.1053 15.9424 24.9199 15.9424 25.635V28.0714C15.9424 28.601 16.631 28.6275 16.9488 28.654C17.399 28.6805 17.9286 28.8129 18.4053 28.8129C18.4053 29.1571 18.5642 29.5014 18.6437 29.7927H9.18941V20.4179C9.18941 20.2855 10.2752 19.2527 10.3546 19.1997C10.5665 19.3322 10.9637 19.7824 11.1756 19.9942L12.791 21.6096C13.0029 21.8215 13.3736 22.3511 13.7974 22.1393C13.8768 22.1128 16.9223 19.0408 17.0282 18.9084L18.1935 20.0472C18.0081 20.4444 18.4053 20.7887 18.6966 21.1859C19.7824 22.616 19.5176 21.848 18.829 23.4899C18.6966 23.8342 18.4318 24.5492 18.4053 24.8935ZM13.506 20.7887C13.3736 20.6033 13.1088 20.365 12.9234 20.1796C12.844 20.0737 12.8175 20.0472 12.7381 19.9412L11.1226 18.3258C10.8843 18.114 10.9637 18.114 10.9637 17.7167C10.9637 17.4519 10.9637 17.1606 10.9637 16.8958C11.6788 17.2665 12.9499 17.7167 13.7709 17.5843C14.4594 17.4784 14.5124 17.5578 15.2539 17.293C15.4922 17.2136 15.6776 17.1341 15.8895 17.0282C16.1013 16.9222 16.2867 16.8163 16.4721 16.7104C16.4721 17.0017 16.4721 17.293 16.4721 17.5843C16.4721 17.8227 16.4986 17.7962 16.3662 17.9021C15.9689 18.2993 13.6649 20.6298 13.506 20.7622V20.7887ZM13.5855 16.4456C12.6056 16.4456 11.5464 16.0218 10.9108 15.5187L10.3282 15.0155C10.1428 14.8037 10.0368 14.7242 9.7985 14.4064C8.92458 13.2412 8.31549 11.5463 8.31549 10.0103V9.37475H18.8025V9.95736C18.8025 12.9764 16.7104 16.472 13.559 16.472L13.5855 16.4456ZM7.22972 7.22967C7.22972 5.45535 7.99769 4.10474 9.13644 2.93952C9.26885 2.8071 9.40127 2.70117 9.53368 2.59524C9.66609 2.48931 9.82498 2.3569 9.98388 2.25097C10.2752 2.0656 10.6459 1.85374 10.9637 1.72132C13.1353 0.794438 15.7041 1.11223 17.4784 2.56876C18.2199 3.17786 18.7761 3.83992 19.1998 4.71384C19.6765 5.69369 19.7824 6.54113 19.7824 7.73284C19.7824 7.9447 19.7559 7.97118 19.7559 8.15656C19.5705 8.15656 19.4646 8.10359 19.3587 8.10359C19.2527 8.10359 19.1468 8.15656 18.9614 8.15656H8.23604C8.02419 8.15656 7.94473 8.13008 7.81232 8.13008C7.6799 8.13008 7.54749 8.15656 7.33563 8.15656C7.33563 7.81229 7.22972 7.54746 7.22972 7.22967ZM6.17042 8.15656C5.53484 8.15656 5.27 8.18304 5.27 8.87158C5.27 9.10993 5.53483 9.34827 5.77318 9.34827H7.15025C7.15025 10.2752 7.22971 11.0431 7.38861 11.8906C7.49454 12.4467 7.73288 13.0293 7.94474 13.5325C8.23604 14.274 8.68624 14.9625 9.24237 15.5452C9.9574 16.3132 9.77203 15.6246 9.77203 18.061C9.77203 18.1934 8.8981 18.9879 8.76569 19.1203C8.13011 19.7559 8.34197 19.597 7.46805 19.8883C6.09096 20.3385 4.3696 21.0005 3.09844 21.7421C2.64824 22.0069 2.22452 22.2452 1.82729 22.5365L1.27116 22.9867C0.900402 23.3575 0.556133 23.6488 0.291309 24.1255C0.185379 24.2844 0 24.6551 0 24.8935V30.3753C0 30.8785 0.423724 30.9579 0.873926 30.9579H18.6701C18.829 30.9579 19.0409 30.9315 19.1468 30.8785C19.2528 31.0904 19.3852 31.3022 19.4911 31.5141C19.3322 31.7789 18.1935 33.0501 18.1935 33.3149C18.1935 33.7121 18.3523 33.818 18.6172 34.0564L19.6235 35.1157C20.1002 35.5924 20.2591 35.7778 20.8417 35.3276C21.0006 35.1951 21.133 35.1157 21.2919 34.9833L21.7421 34.639C21.901 34.5066 22.0599 34.4007 22.2188 34.2947C22.3512 34.3212 22.4306 34.3742 22.5366 34.4536C22.6425 34.5331 22.7219 34.5596 22.8543 34.6125C23.5164 34.9303 24.205 35.1951 24.92 35.354C24.92 35.6189 24.973 35.8572 24.9994 36.0955C25.0259 36.3339 25.0524 36.5722 25.0789 36.8371C25.1319 37.2608 25.1583 37.8169 25.7409 37.8169H28.0184C28.2833 37.8169 28.4422 37.6845 28.5481 37.5256C28.707 37.3137 28.8659 35.6718 28.8659 35.354C29.6074 35.3011 30.3224 34.9303 30.958 34.6125C31.6465 34.2683 31.4082 34.1358 32.0173 34.6125L32.8912 35.3011C33.6592 35.8837 33.7651 35.46 34.6655 34.5596L35.46 33.7121C35.9102 33.2619 35.3011 32.6793 35.0098 32.335C34.0829 31.1433 34.2418 31.7524 34.7979 30.5077C35.0363 29.9516 35.2482 29.3955 35.407 28.7599C35.6984 28.7599 37.3403 28.5745 37.5256 28.4686C37.658 28.3891 37.8699 28.1773 37.8699 27.9919V25.6879C37.8699 25.1053 37.3138 25.0788 36.8901 25.0259C36.4134 24.9729 35.8837 24.867 35.407 24.867C35.3806 24.4433 35.1422 23.8077 34.9833 23.4369C34.8774 23.1986 34.7979 23.0397 34.692 22.8013C34.2683 21.9539 34.1889 22.3511 34.8509 21.5302C34.9304 21.4243 34.9568 21.3713 35.0363 21.2919C36.0426 20.0737 35.8837 20.312 34.1359 18.5642C33.5003 17.9286 33.4738 17.9286 32.7323 18.5377L31.5406 19.4381L31.2493 19.2527C31.1434 19.1997 31.0639 19.1468 30.958 19.0938C30.2959 18.776 29.6074 18.5112 28.8924 18.3523C28.8924 17.8491 28.7864 17.3724 28.7335 16.8958C28.707 16.6839 28.6805 16.3661 28.6011 16.2072C28.5216 16.0483 28.3097 15.8894 28.0979 15.8894H25.8204C25.5556 15.8894 25.3967 16.0218 25.2908 16.1807C25.1054 16.4985 25.1054 17.1871 25.0524 17.5843C25.0259 17.7962 24.9994 18.1404 24.9465 18.3523C24.3903 18.4847 23.9931 18.5906 23.5164 18.8025C23.0662 18.9879 22.6955 19.2262 22.2453 19.4646C22.1393 19.3322 21.9539 19.2262 21.8215 19.0938L20.9211 18.4053C20.7622 18.2729 20.6298 18.1404 20.365 18.1404C19.9678 18.1404 19.3587 19.0144 19.0409 19.2262C18.882 19.1203 17.7168 17.9815 17.7168 17.8491V15.8894C17.7168 15.81 18.2994 15.1744 18.4053 15.042C19.597 13.3206 20.0737 11.6787 20.0737 9.37475H21.3978C22.2188 9.37475 22.2188 8.20952 21.3713 8.20952H21.0535C21.0535 8.02415 21.08 8.05063 21.08 7.86525C21.08 6.22334 20.9741 5.48183 20.2591 4.05178C19.6765 2.88655 18.6436 1.77429 17.5049 1.16519C17.0812 0.92685 16.6839 0.741472 16.2337 0.556094C14.1681 -0.211896 11.9966 -3.47644e-05 10.0633 0.979816C7.97123 2.01263 6.46171 4.21067 6.19688 6.51465C6.14392 6.96485 6.09095 7.81229 6.19688 8.23601L6.17042 8.15656Z" fill="#EB691F"/>
<path id="Vector_2" fill-rule="evenodd" clip-rule="evenodd" d="M34.88 16.4986C34.4298 16.4986 33.9796 16.4191 33.6883 16.0484C33.4765 15.7835 33.1322 15.4657 32.9998 15.2804C33.1057 15.1215 34.5622 13.8238 34.88 13.5325C35.0389 13.4001 35.3567 13.0558 35.5421 12.9234C35.701 13.0294 36.1247 13.506 36.2306 13.6385C37.2105 14.9361 36.0717 16.4721 34.88 16.4721V16.4986ZM27.5973 4.34312C27.7562 4.44905 30.6693 7.60046 30.9606 7.91825C31.0401 8.02418 31.0665 8.07715 31.1725 8.18307L31.5962 8.65976C31.7551 8.84514 31.8875 8.95107 32.0464 9.13645L33.8472 11.0697C34.0326 11.255 34.5887 11.9171 34.7476 12.0495C34.6682 12.1819 34.5622 12.2879 34.4298 12.3673L32.7879 13.8503C32.682 13.9563 32.2318 14.4065 32.0994 14.4329C32.0729 14.327 31.199 13.4266 31.0401 13.2147C30.9606 13.1353 30.8812 13.0558 30.8017 12.9764L29.2658 11.308C29.1598 11.2021 29.1598 11.1491 29.0539 11.0432L26.3792 8.18307C26.2732 8.07715 26.2467 8.02418 26.1673 7.91825L25.0285 6.70006C25.0815 6.62061 27.3325 4.47553 27.5709 4.31664L27.5973 4.34312ZM22.9364 1.8008C23.0424 1.85377 26.4851 3.60161 26.697 3.65458L24.7902 5.4289C24.6843 5.53483 24.6313 5.64076 24.4724 5.66724L22.9364 1.82729V1.8008ZM21.2151 0.635578C21.2151 0.87392 23.2278 5.72021 23.3866 6.09096C23.4661 6.27634 23.7044 6.96488 23.8104 7.07081L24.287 7.57398C24.393 7.67991 24.4195 7.70639 24.4989 7.8388L26.3527 9.82499C26.4586 9.93092 26.4851 9.98388 26.5645 10.0898L28.4183 12.076C28.5242 12.1819 28.5507 12.2349 28.6566 12.3408L31.6492 15.5717C31.7286 15.6511 31.8081 15.7306 31.8875 15.81C32.7879 16.7104 33.2646 17.6903 34.933 17.6903C36.0453 17.6903 37.0781 16.9488 37.5548 15.9954C38.1109 14.8831 37.8461 13.506 36.9456 12.6321L36.2306 11.8906C36.1247 11.7847 36.1247 11.7317 36.0188 11.6258C35.9393 11.5463 35.8599 11.4669 35.7804 11.3875L34.6417 10.1428C34.4828 9.93092 34.3504 9.82499 34.1915 9.66609L32.6025 7.94474C32.2847 7.5475 31.3314 6.59413 31.0136 6.19689L29.8748 4.9787C29.7954 4.89925 29.716 4.81981 29.6365 4.74036C29.5306 4.63443 29.5041 4.58146 29.4246 4.47553C29.3452 4.3696 29.2657 4.31664 29.1598 4.21071L28.7096 3.70754C28.5242 3.52217 28.4183 3.38975 28.2594 3.20437C27.8887 2.83362 28.0475 2.99252 27.6768 2.83362C27.4384 2.72769 27.2531 2.62176 27.0147 2.51583C26.1673 2.09211 25.3463 1.66839 24.4724 1.24467C24.1546 1.08578 22.0625 0 21.9036 0C21.5858 0 21.1621 0.0264807 21.1621 0.582612L21.2151 0.635578Z" fill="#EB691F"/>
<path id="Vector_3" fill-rule="evenodd" clip-rule="evenodd" d="M27.0661 31.0109C26.2716 31.0109 25.7949 30.9579 25.0799 30.6136C22.9613 29.5543 22.1404 27.065 23.1202 25.0788C23.7028 23.9136 24.7092 23.0926 26.0068 22.7748C29.2641 22.0333 32.1242 25.476 30.6942 28.5215C30.4823 28.9717 30.2175 29.3954 29.8732 29.7397C29.529 30.084 29.1582 30.3753 28.6815 30.5871C28.2578 30.799 27.6487 30.9844 27.0396 30.9844L27.0661 31.0109ZM21.5312 26.8531C21.5312 28.5215 22.2198 29.7927 23.1202 30.6931C23.3321 30.9049 23.5704 31.0903 23.8352 31.2757L24.6827 31.7789C26.404 32.5204 27.8341 32.4144 29.476 31.5935C29.6349 31.514 29.7408 31.4346 29.8732 31.3287C30.4558 30.9314 31.1444 30.2164 31.4887 29.5808C32.5215 27.7006 32.442 25.6879 31.2768 23.9136L30.6677 23.1721C27.1455 19.7029 21.5312 22.3511 21.5312 26.8531Z" fill="#EB691F"/>
<path id="Vector_4" fill-rule="evenodd" clip-rule="evenodd" d="M13.7419 3.31036C14.1127 3.31036 14.404 3.44277 14.6158 3.65463C15.119 4.13132 15.119 4.95228 14.6423 5.45544C13.9008 6.19695 12.5502 5.69378 12.5238 4.608C12.4973 3.91946 13.0534 3.33685 13.7684 3.33685L13.7419 3.31036ZM11.3585 4.3167C11.3585 5.19062 11.4644 5.6673 12.1 6.30288C12.4708 6.67363 13.2917 7.01791 13.7949 6.96494C14.1657 6.93846 14.457 6.85901 14.7483 6.7266C14.9866 6.62067 15.2514 6.40881 15.4368 6.24992C15.4898 6.19695 15.6487 6.01157 15.7016 5.93213C16.8933 4.23725 15.5957 2.11865 13.7155 2.11865C12.4178 2.11865 11.332 3.31036 11.332 4.3167H11.3585Z" fill="#EB691F"/>
</g>
</svg>
