<svg width="33" height="33" viewBox="0 0 33 33" fill="none" xmlns="http://www.w3.org/2000/svg">
<g id="_1819227984">
<path id="Vector" fill-rule="evenodd" clip-rule="evenodd" d="M15.0846 25.7372H17.2298V31.1661H15.0846V25.7372ZM11.7214 8.70895C11.8273 8.36468 15.9586 1.71759 16.144 1.53221C16.3558 1.71759 17.0973 2.98874 17.2827 3.30653L20.0634 7.75559C20.1693 7.94096 20.54 8.52358 20.593 8.68247C20.3282 8.84137 19.5337 8.86785 19.1365 8.9473C18.448 9.07971 18.5803 9.45046 18.8187 9.90066C19.0305 10.2714 19.2424 10.6157 19.4807 10.96C19.6926 11.3042 19.9045 11.675 20.1163 11.9928C20.5665 12.6813 20.9638 13.3699 21.4405 14.0849C21.5994 14.3232 22.6851 15.9651 22.6586 16.2035C22.0231 16.3624 20.6989 16.2829 20.4341 16.6802C20.2487 16.945 20.4077 17.1833 20.5401 17.3687C20.8579 17.8454 24.8037 23.5391 24.8832 23.8304C24.5654 24.0688 21.8642 24.3601 21.2286 24.4395C19.1894 24.6779 13.7341 24.7044 11.8538 24.519C10.4238 24.3866 8.72888 24.2012 7.40476 23.8569C7.43124 23.4597 10.5562 19.3019 10.6621 18.8782C10.8475 18.2956 10.0795 17.9778 9.73522 18.4545C8.59648 20.0699 7.43124 21.6324 6.37194 23.3008C6.18656 23.6186 5.6834 24.2012 6.08063 24.519C6.74269 24.9957 9.78817 25.3929 10.5826 25.4723C11.2447 25.5253 13.5487 25.6577 13.9724 25.7372V31.1396C13.7605 31.1661 13.3898 31.1396 13.1514 31.1396C12.357 31.1131 12.357 31.3779 12.357 30.5835L12.2775 26.7965C11.9068 26.4787 11.5625 26.5581 11.3241 26.8759C11.2182 27.0083 11.2712 27.3261 11.2712 27.538C11.2712 28.7297 11.3507 30.0008 11.2712 31.1661C10.5562 31.1661 9.84112 31.1926 9.1261 31.1661C9.07313 30.3451 9.1261 28.306 9.1261 27.3526C9.1261 26.717 9.23206 26.3198 8.4111 26.2933C7.24587 26.2668 2.479 25.7372 1.55212 25.3929C1.55212 25.1546 2.08176 24.4395 2.21418 24.2542L5.89528 18.9312C6.02769 18.7193 6.10714 18.428 5.89528 18.2426C5.57749 17.9248 4.0415 18.0043 3.61778 17.8189C3.67075 17.5011 6.39843 13.3963 6.87511 12.5754C7.08697 12.2311 7.32529 11.8868 7.51067 11.5161C7.6166 11.3307 7.77551 11.1189 7.69606 10.8805C7.51069 10.4303 6.42492 10.4303 5.76286 10.3244C5.81582 10.139 6.18657 9.55639 6.2925 9.37101C7.21938 7.86152 8.11978 6.3785 9.09963 4.869C9.20556 4.7101 10.0795 3.2006 10.2384 3.09467C10.4238 3.41246 10.6621 3.78322 10.8739 4.10101C11.0593 4.39231 11.4036 4.94845 11.8273 4.68362C12.3305 4.39231 12.0392 3.99508 11.8273 3.57136C11.589 3.14764 10.821 1.82352 10.4767 1.61166C10.0265 1.29387 9.7882 1.85 9.57634 2.14131C9.12613 2.80337 8.72888 3.46543 8.27868 4.15397C7.1929 5.84885 6.16009 7.51724 5.10079 9.2386C4.88894 9.55639 4.67705 9.92715 4.49167 10.2714C4.20036 10.854 4.22684 10.9864 4.86242 11.1983C5.47152 11.3837 5.94821 11.3837 6.23952 11.4896C6.18656 11.728 2.69089 17.1833 2.24069 17.9248C2.08179 18.1897 2.10827 18.375 2.32013 18.5604C2.58495 18.8253 3.93557 18.9312 4.43873 19.0371C4.38577 19.2225 4.04149 19.6727 3.93556 19.8581C3.75018 20.1229 3.5913 20.3612 3.40592 20.6261C2.39959 22.1885 1.26083 23.6451 0.254501 25.2605C0.0691242 25.5518 -0.169215 25.8166 0.175057 26.1079C0.386917 26.2933 0.837106 26.3727 1.15489 26.4257C2.61143 26.7435 4.17389 26.9289 5.6569 27.1143C6.02766 27.1672 7.802 27.2467 7.98737 27.3526C8.0933 27.485 8.06683 30.7159 8.04035 31.1396C7.72256 31.1396 5.92174 31.1131 5.70988 31.1396C5.47154 31.1926 5.28617 31.6428 5.3921 31.8811C5.551 32.1724 5.89526 32.1194 6.2925 32.1459C7.03401 32.1724 7.74904 32.1724 8.49055 32.1724L20.2488 32.1989C22.7911 32.1989 25.3599 32.2254 27.9287 32.1724C28.22 32.1724 28.6966 32.2254 28.882 32.04C29.0939 31.8546 29.0939 31.5103 28.9085 31.2985C28.6702 31.0601 27.346 31.1396 26.8958 31.1396H24.2211C24.1946 30.6894 24.1681 27.5115 24.2741 27.3526C24.433 27.2467 26.2867 27.1407 26.631 27.1143C27.4255 27.0348 28.1405 26.9289 28.9085 26.8229C29.65 26.717 30.418 26.5846 31.133 26.4257C32.007 26.2403 32.5895 26.1079 32.0069 25.234C31.6627 24.7044 31.3184 24.2012 30.9477 23.6715C30.5769 23.1419 30.2326 22.6652 29.8884 22.1356C29.5706 21.6324 27.9022 19.3549 27.7962 19.0106C28.3259 18.9047 29.6765 18.7988 29.9148 18.5075C30.1002 18.2956 30.1267 18.1632 29.9678 17.8984C29.5176 17.1833 29.0939 16.4683 28.6437 15.7533C28.3259 15.2766 26.0219 11.7015 25.9689 11.4896C26.2338 11.3837 26.9488 11.3042 27.3196 11.1983C27.9551 11.0129 28.0081 10.8805 27.7168 10.2979C27.2931 9.3975 25.7571 7.04056 25.2274 6.19312C24.433 4.92196 23.5061 3.33302 22.6586 2.16779C22.4733 1.90296 22.182 1.29387 21.7582 1.58517C21.4404 1.82352 20.2752 3.62432 20.1428 4.10101C20.0634 4.36583 20.2222 4.57769 20.3811 4.65714C20.8578 4.94845 21.2021 4.31287 21.361 4.07452C21.5729 3.78322 21.7582 3.3595 21.9966 3.09467C22.0231 3.12116 22.0231 3.09467 22.0495 3.14764C22.2349 3.3595 23.0029 4.65714 23.1353 4.869C23.5591 5.55754 26.3927 9.98011 26.4721 10.3244C26.2338 10.3773 25.9955 10.4303 25.7571 10.4568C25.3334 10.5098 24.6448 10.4568 24.5124 10.96C24.4595 11.1718 24.6448 11.4102 24.7243 11.5691C25.148 12.2841 25.5982 12.9726 26.0219 13.6877C26.4456 14.4027 26.8958 15.0647 27.346 15.7798L28.4848 17.6071C28.5378 17.6865 28.6437 17.7924 28.5907 17.8454C28.3789 18.0573 26.6045 17.9513 26.3132 18.2956C26.1278 18.5339 26.2073 18.7723 26.3397 18.9841C27.2931 20.4142 28.2994 21.8442 29.2792 23.2743C29.4911 23.5656 30.6828 25.2075 30.6563 25.4723C30.1002 25.7372 27.2931 26.0285 26.5251 26.1079C25.8365 26.1874 25.0686 26.2933 24.38 26.3198C24.0622 26.3463 23.5061 26.2933 23.2942 26.4522C22.95 26.717 23.0559 27.0083 23.0559 27.4056V31.219H20.9108C20.8314 30.0538 20.9108 28.7297 20.9108 27.5645C20.9108 27.3261 20.9638 27.0348 20.8314 26.9024C20.3547 26.3727 19.9045 26.8494 19.878 26.8494C19.8515 27.5645 19.8515 28.306 19.825 29.021C19.825 29.1534 19.8515 31.0866 19.7721 31.1661C19.6926 31.2455 18.2891 31.219 18.1831 31.219C18.1566 30.3716 18.1302 26.4522 18.1831 25.8166C18.8982 25.6842 19.8515 25.6842 20.593 25.6312C22.129 25.4988 23.665 25.3134 25.1215 24.9427C26.1014 24.7044 26.4986 24.5984 25.9689 23.698C25.6511 23.1684 25.2804 22.6122 24.9361 22.1356L22.8176 19.0636C22.6057 18.7723 21.8907 17.766 21.7847 17.5011C22.2614 17.4482 22.8175 17.3422 23.2942 17.2628C23.7974 17.1833 24.3005 16.9715 23.9828 16.4153C23.3472 15.2501 22.0496 13.3169 21.2816 12.0987C21.0962 11.7809 19.9839 10.139 19.9575 9.98011C20.1428 9.90066 20.7784 9.8477 21.0167 9.79473C21.3875 9.71529 21.7318 9.63584 21.8642 9.37101C21.9701 9.15916 21.9436 9.05322 21.8377 8.86785L16.7795 0.764219C16.3558 0.102157 16.038 -0.401009 15.4554 0.446429C14.608 1.71759 13.84 2.98874 13.019 4.2599C12.357 5.29272 11.7479 6.29905 11.0858 7.35835C10.9269 7.62317 10.768 7.888 10.6091 8.15282C10.3178 8.65599 9.65577 9.37101 10.5562 9.66232C11.9597 10.1125 14.7669 10.192 16.2764 10.192C16.6207 10.192 17.1503 10.2185 17.4151 10.0596C17.627 9.92715 17.6799 9.47694 17.4946 9.26509C17.3092 9.05323 15.8791 9.10619 15.5084 9.10619C14.6874 9.07971 12.1981 8.97378 11.589 8.73544L11.7214 8.70895Z" fill="#EC691F"/>
<path id="Vector_2" fill-rule="evenodd" clip-rule="evenodd" d="M15.4834 17.66H18.3435C18.8467 17.66 19.0321 17.7394 19.2439 17.4216C19.4293 17.1303 19.2704 16.6007 18.9526 16.6007C17.0724 16.6007 14.0799 16.6271 12.4644 16.5212C11.9878 16.4947 9.86915 16.3623 9.60433 16.2299C9.63081 15.9386 11.8289 12.5753 12.1731 11.9927C12.385 11.6484 12.7557 11.1982 12.3585 10.854C12.1731 10.6951 11.8818 10.6686 11.7229 10.854C11.617 10.9864 11.4581 11.1982 11.3786 11.3571C10.9284 12.0192 8.28021 16.0975 8.12132 16.5742C8.04187 16.8125 8.28021 17.0244 8.41263 17.0773C8.57152 17.1568 8.8893 17.2098 9.10116 17.2362C11.1933 17.5805 13.3649 17.66 15.5364 17.66H15.4834Z" fill="#EC691F"/>
</g>
</svg>
