<svg width="54" height="54" viewBox="0 0 54 54" fill="none" xmlns="http://www.w3.org/2000/svg">
<path fill-rule="evenodd" clip-rule="evenodd" d="M23.1187 44.1808C23.0262 41.8436 22.1468 40.3858 21.013 39.1362C19.9022 37.9329 18.7915 36.6833 17.6807 35.3412C15.6212 32.8188 13.5849 30.0651 13.4229 25.4833C13.1452 17.523 19.6014 11.0668 27.4229 11.0436C36.9336 10.9974 44.7088 20.7627 40.0345 31.1759C39.6873 31.9627 39.1551 32.7957 38.6923 33.3974L35.4989 37.3544C33.7865 39.5065 32.1667 40.0387 31.7733 44.2503C30.3617 44.2734 24.0444 44.4354 23.1419 44.204L23.1187 44.1808ZM25.9419 9.3081C12.9832 10.6965 7.66089 25.1825 14.7882 34.5544C15.4361 35.4106 16.0146 36.1279 16.6394 36.9379C17.9353 38.5808 19.7634 40.2469 20.5733 41.6122C22.1468 44.2503 20.2956 46.0089 22.6328 46.0552H29.1121C35.684 46.0321 32.6064 46.2172 33.9716 42.4222C34.5733 40.8023 36.5865 38.9279 37.7204 37.5858C40.127 34.7164 42.9733 31.3379 43.251 25.9693C43.7138 16.4354 35.7072 8.31306 25.965 9.35439L25.9419 9.3081Z" fill="black"/>
<path fill-rule="evenodd" clip-rule="evenodd" d="M23.9991 25.6454C24.5082 25.8305 25.2255 26.0387 25.8966 25.8536C26.6371 25.6454 26.9148 25.2057 27.4239 24.9049C28.8123 25.5759 28.2569 26.2933 30.8487 25.6685C30.6636 26.3396 30.2007 27.242 29.9231 27.9825C28.928 30.5974 28.5115 33.3511 28.3264 36.1743C28.2569 37.2387 28.2338 38.3495 28.2569 39.4139C28.2569 40.3858 27.933 41.8437 28.9974 41.9825C30.2239 42.1445 30.0388 40.7792 30.0619 39.8536C30.1313 34.5776 30.4322 30.7363 32.7231 26.085C32.9082 25.6916 33.7644 24.1412 33.8107 23.9098C34.2272 21.4338 30.3627 24.1181 29.5528 24.0487C28.7892 23.9792 28.2338 22.7991 27.4239 22.7991C26.6603 22.7991 26.0586 23.933 25.4107 24.0255C24.7627 24.1181 23.6288 23.4007 23.0503 23.1462C22.2636 22.8222 21.0371 22.4751 21.0371 23.6784C21.0371 24.9974 24.9016 28.2371 24.809 39.7379C24.809 40.6635 24.5545 42.0288 25.7578 41.9825C26.8917 41.9363 26.5908 40.4553 26.5908 39.5065C26.5908 38.4189 26.5677 37.285 26.4983 36.1974C26.0586 28.7925 24.0917 26.5247 23.9991 25.6222V25.6454Z" fill="black"/>
<path fill-rule="evenodd" clip-rule="evenodd" d="M25.8024 12.9878C22.9098 13.4275 21.0123 14.3994 19.0685 16.3663C18.5594 16.8754 18.3512 17.0605 17.9115 17.6622C17.5181 18.1713 17.2404 18.6804 16.9396 19.2589C15.8288 21.4109 17.2867 21.4341 17.7958 21.249C18.5131 20.9713 19.2536 17.1762 23.4421 15.5101C26.0569 14.4688 26.1958 14.9779 27.6074 14.6539C28.3247 14.4919 28.5793 13.5663 28.0008 13.0804C27.4917 12.6638 26.4041 12.8952 25.8024 12.9878Z" fill="black"/>
<path fill-rule="evenodd" clip-rule="evenodd" d="M23.1872 49.9196H32.3277C33.1145 49.9196 33.7161 49.5031 33.4153 48.6238C33.1376 47.8601 31.1476 48.0915 29.8748 48.0915H22.4004C21.6831 48.0915 21.1509 48.4849 21.4054 49.318C21.6137 49.9891 22.4467 49.9196 23.1641 49.9196H23.1872Z" fill="black"/>
<path fill-rule="evenodd" clip-rule="evenodd" d="M24.738 53.4139C25.7099 53.4139 26.6586 53.4139 27.6305 53.4139C28.6024 53.4139 29.5743 53.4139 30.5231 53.4139C31.4719 53.4139 32.5363 53.4371 32.2818 52.28C32.0967 51.4007 30.9396 51.5858 30.0834 51.5858H24.2752C23.3727 51.5858 22.3314 51.5627 22.4934 52.6734C22.6091 53.5991 23.7892 53.3908 24.7148 53.3908L24.738 53.4139Z" fill="black"/>
<path fill-rule="evenodd" clip-rule="evenodd" d="M15.623 24.8119C15.623 26.2235 15.8545 27.3574 16.2941 28.5838C17.0578 30.7822 18.3999 29.6252 18.2611 28.7458C18.1916 28.3756 17.8677 27.6119 17.752 27.1491C17.2892 25.3905 17.7057 24.0714 16.8264 23.8169C16.0164 23.6086 15.6462 24.1177 15.6462 24.8119H15.623Z" fill="black"/>
<path fill-rule="evenodd" clip-rule="evenodd" d="M15.1128 3.36125C14.0715 3.9629 15.2516 5.44389 15.6219 6.06869C16.293 7.20257 16.6632 8.42902 17.7277 7.91993C18.7921 7.41084 17.5888 5.86042 17.2186 5.23563C16.8252 4.54141 16.1773 2.73645 15.0897 3.38439L15.1128 3.36125Z" fill="black"/>
<path fill-rule="evenodd" clip-rule="evenodd" d="M47.6483 11.9924C46.8615 12.2932 45.7508 13.0337 44.964 13.4965C44.5243 13.7511 44.0615 13.9362 44.0615 14.561C44.0847 16.6899 47.2781 14.2139 47.9723 13.8436C48.4582 13.5659 48.8979 13.4271 48.8285 12.7097C48.759 12.1312 48.2037 11.8073 47.6483 12.0155V11.9924Z" fill="black"/>
<path fill-rule="evenodd" clip-rule="evenodd" d="M27.0773 0.121313C26.2443 0.46842 26.522 2.06511 26.522 3.06016C26.522 3.54611 26.4294 4.33288 26.6145 4.77255C26.7765 5.11966 27.2625 5.42049 27.7716 5.21222C28.6046 4.88825 28.3038 3.22214 28.3038 2.27338C28.3038 1.30148 28.4658 -0.48034 27.0542 0.121313H27.0773Z" fill="black"/>
<path fill-rule="evenodd" clip-rule="evenodd" d="M38.8091 3.38418C38.3231 3.68501 37.6058 5.21228 37.2355 5.83708C37.0041 6.20732 36.6107 6.71641 36.7033 7.27179C36.7959 7.8503 37.4669 8.19741 38.0454 7.8503C38.3694 7.66517 39.3182 5.88336 39.5959 5.39741C39.8041 5.02716 40.2438 4.47179 40.1744 3.9627C40.1049 3.31476 39.4107 3.01393 38.8322 3.38418H38.8091Z" fill="black"/>
<path fill-rule="evenodd" clip-rule="evenodd" d="M6.61955 11.9922C6.365 12.0848 6.17988 12.1311 6.06417 12.5013C5.74021 13.4732 6.71211 13.7509 7.42946 14.1674C8.05426 14.5146 9.58153 15.6484 10.2757 15.3708C10.6923 15.2088 10.9931 14.6071 10.6691 14.0749C10.5303 13.8435 7.38318 11.7146 6.64269 12.0154L6.61955 11.9922Z" fill="black"/>
</svg>
