<svg width="55" height="55" viewBox="0 0 55 55" fill="none" xmlns="http://www.w3.org/2000/svg">
<path d="M51.4909 4.89245H45.2988V2.16061C45.2988 1.61424 44.9345 1.25 44.3881 1.25H38.196C37.6496 1.25 37.2854 1.61424 37.2854 2.16061V4.89245H17.6162V2.16061C17.6162 1.61424 17.2519 1.25 16.7055 1.25H10.5134C9.96702 1.25 9.60277 1.61424 9.60277 2.16061V4.89245H3.41061C2.86424 4.89245 2.5 5.25669 2.5 5.80306V15.6377V54.0655C2.5 54.6119 2.86424 54.9761 3.41061 54.9761H51.673C52.2194 54.9761 52.5836 54.6119 52.5836 54.0655V15.6377V5.80306C52.5836 5.25669 52.2194 4.89245 51.673 4.89245H51.4909ZM38.9245 3.07122H43.4775V5.80306V8.53489H38.9245V5.80306V3.07122ZM11.2419 3.07122H15.7949V5.80306V8.53489H11.2419V5.80306V3.07122ZM4.1391 6.71367H9.60277V9.44551C9.60277 9.99187 9.96702 10.3561 10.5134 10.3561H16.7055C17.2519 10.3561 17.6162 9.99187 17.6162 9.44551V6.71367H37.2854V9.44551C37.2854 9.99187 37.6496 10.3561 38.196 10.3561H44.3881C44.9345 10.3561 45.2988 9.99187 45.2988 9.44551V6.71367H50.7624V14.7271H4.1391V6.71367ZM4.1391 53.337V16.5483H50.7624V53.337H4.1391Z" fill="#B3B3B3"/>
<path d="M34.5557 21.8298H28.3633H26.542H20.3496H18.5283H10.5146V29.8435V31.6648V37.8572V39.6785V47.6921H18.5283H20.3496H26.542H28.3633H34.5557H36.3769H44.3906V39.6785V37.8572V31.6648V29.8435V21.8298H36.3769H34.5557ZM28.3633 23.6511H34.5557V29.8435H28.3633V23.6511ZM34.5557 38.0393H28.3633V31.8469H34.5557V38.0393ZM20.1675 31.8469H26.3599V38.0393H20.1675V31.8469ZM20.1675 23.8333H26.3599V30.0256H20.1675V23.8333ZM12.1538 23.8333H18.3462V30.0256H12.1538V23.8333ZM12.1538 31.8469H18.3462V38.0393H12.1538V31.8469ZM18.3462 46.2351H12.1538V40.0427H18.3462V46.2351ZM26.3599 46.2351H20.1675V40.0427H26.3599V46.2351ZM34.3735 46.2351H28.1811V40.0427H34.3735V46.2351ZM42.3872 46.2351H36.1948V40.0427H42.3872V46.2351ZM42.3872 38.2214H36.1948V32.0291H42.3872V38.2214ZM42.3872 23.8333V30.0256H36.1948V23.8333H42.3872Z" fill="#B3B3B3"/>
</svg>
