<svg width="40" height="40" viewBox="0 0 40 40" fill="none" xmlns="http://www.w3.org/2000/svg">
<path fill-rule="evenodd" clip-rule="evenodd" d="M26.2611 36.5325C27.3695 36.5107 27.2825 36.4456 27.2825 37.5177L26.2611 36.5325ZM16.677 0H17.4667C18.7416 0.0651978 20.0239 0.456384 21.2264 1.1808C22.7332 2.09357 23.8705 3.65832 24.4283 5.32448C24.9427 6.84577 24.6891 8.93934 24.8123 9.81589C24.8485 10.0984 25.0876 10.3375 25.218 10.649C25.9786 12.46 24.4718 14.2348 22.9505 14.2348C22.6463 15.5316 22.3275 16.5313 21.422 17.4295C21.2554 17.5962 20.7048 18.0236 20.7048 18.2626C20.7048 19.7622 20.5962 19.5593 21.1322 19.7694C21.8277 20.0447 24.6167 21.2834 24.8775 21.2834C25.0079 21.2834 25.16 21.1748 25.3411 21.1241C25.8554 20.9792 28.927 21.0516 29.6731 21.0516C29.9557 21.0516 30.2889 21.269 30.2889 21.5153C30.2889 22.5657 29.2023 22.2904 27.9707 22.2904C27.4781 22.2904 26.9928 22.2904 26.5002 22.2904C26.0728 22.2904 25.4208 22.16 25.4208 22.6019V35.3662H27.0435C28.7749 35.3662 28.5141 37.4308 28.5141 38.4594H36.2509C36.6131 38.4594 36.7942 38.2783 36.7942 37.9161V22.754C36.7942 22.1238 36.3306 22.2904 35.7148 22.2904L32.7737 22.2976C31.448 22.2759 31.716 21.0589 32.4694 21.0589H36.4899C37.2795 21.0589 37.9605 21.7398 37.9605 22.5295V38.1552C37.9605 38.5826 37.7794 38.9158 37.5621 39.1476C37.3882 39.336 36.9753 39.6258 36.6493 39.6258H27.9056C27.4492 39.6258 26.2756 38.2711 25.9134 37.9016C24.3486 36.3369 24.834 36.5252 23.5735 36.5252H5.16601C4.37639 36.5252 4.08664 36.5904 3.60128 36.2282C3.28978 35.9964 3 35.5762 3 35.0547V27.5497C3 26.0936 3.55056 25.1446 4.3112 24.1449C4.53577 23.8551 5.26744 23.2611 5.60792 23.051C6.16572 22.7033 11.1063 20.6532 12.1567 20.2403C12.4682 20.1171 12.6927 20.0157 12.9753 19.8926C13.3592 19.7259 13.6707 19.7042 13.6707 19.4289C13.6707 18.2192 13.8011 18.2626 13.2868 17.8787C12.345 17.176 11.3526 15.3939 11.3526 14.2421C10.6209 14.2421 10.0486 13.9089 9.66467 13.5322C8.91852 12.8005 8.87505 12.2862 8.87505 11.3806C8.87505 10.9822 9.03441 10.6924 9.1793 10.4461C9.41836 10.0549 9.50529 10.1709 9.49804 9.52612C9.4908 8.76548 9.45457 7.87444 9.49079 7.12105C9.58497 5.31 10.5557 3.32509 11.7872 2.15153C13.1781 0.825838 14.895 0.101419 16.6698 0.0072442L16.677 0ZM5.15878 25.0649C6.53518 25.3837 7.8681 26.7745 7.8681 28.4697V35.3517H4.69514C3.92725 35.3517 4.15182 34.2288 4.15182 32.9538C4.15182 31.9107 4.23152 31.1428 4.23152 30.0924C4.23152 29.1869 4.16632 28.0278 4.23152 27.1585C4.28223 26.4631 4.73862 25.3764 5.15878 25.0649ZM19.1618 25.84C20.0383 25.84 20.1832 25.5648 20.473 24.9852L21.2481 23.5147C21.5669 23.5436 22.4145 23.9928 22.726 24.1232C23.1316 24.2898 23.8126 24.6665 24.182 24.7534V35.3517H19.6182C19.6182 34.8229 19.4733 34.1274 19.4661 33.5696C19.4154 31.505 18.2273 32.3308 18.2273 32.7945C18.2273 33.758 18.3794 34.4172 18.3794 35.3444H15.9816L16.677 26.8325H17.684C17.684 27.5569 17.8941 28.6291 17.9158 29.5418C17.952 31.1066 18.7851 30.7878 19.0097 30.556C19.3284 30.23 19.0459 28.7232 18.9952 27.9191C18.901 26.2747 18.6837 26.7094 19.1545 25.8256L19.1618 25.84ZM8.1796 25.6082L11.8814 23.971C12.2219 23.8334 12.7652 23.5219 13.1274 23.4422C13.3882 23.9348 13.6128 24.4129 13.8735 24.9418C14.2647 25.7241 14.4603 25.84 15.2137 25.84C15.3948 26.1805 15.5687 26.2602 15.4818 26.7963L14.8732 34.0839C14.8298 34.3882 14.7573 35.1054 14.7501 35.3517H9.10685C9.10685 33.6348 9.28072 28.4262 8.86055 27.0861C8.80984 26.9194 8.64322 26.521 8.54181 26.3182C8.38243 26.0067 8.23031 25.9632 8.1796 25.601V25.6082ZM16.3004 25.0649C16.5611 24.9925 16.5032 24.9635 16.7205 24.7896C16.8944 24.652 16.9958 24.5506 17.1479 24.4492C17.4304 24.5216 18.0752 25.0649 18.0752 25.1446C18.0752 25.9052 16.9523 25.7241 16.4525 25.6082C16.3583 25.4199 16.3293 25.3257 16.3004 25.0649ZM22.1826 21.5805C22.5304 21.5877 23.8633 22.1817 24.1965 22.3556V23.4422L21.8784 22.4353C21.9146 22.0368 22.1029 21.9572 22.1899 21.5805H22.1826ZM6.17296 24.058C6.40478 23.9928 6.30337 24.0073 6.49896 23.9203L7.6218 23.4205C8.14338 23.1959 11.7872 21.5949 12.2074 21.5877C12.2871 21.9209 12.4464 22.0803 12.5913 22.3628L7.66526 24.5578C7.22337 24.7824 7.27409 24.7824 6.92636 24.5506C6.67282 24.3767 6.33957 24.3043 6.16571 24.0652L6.17296 24.058ZM13.2868 21.0371C14.1343 20.8416 13.649 20.291 15.134 22.131C15.3151 22.3483 15.5107 22.5874 15.7063 22.7975L16.3076 23.5147C16.1699 23.7247 15.3224 24.4419 14.9891 24.5216C14.8443 23.8841 13.7576 22.1528 13.3882 21.3269C13.3375 21.2183 13.3085 21.0951 13.2868 21.0444V21.0371ZM19.4009 24.5216C19.1546 24.4564 18.2056 23.6958 18.0824 23.5147L20.4006 20.8053C20.6324 20.8053 20.9004 20.972 21.1757 21.0371C20.5672 22.1817 20.0021 23.3698 19.3936 24.5216H19.4009ZM14.837 18.7987C15.9744 19.4 17.7564 19.3855 19.0459 18.9798C19.3067 18.9001 19.3212 18.8494 19.5602 18.7987C19.5602 19.3927 19.6544 19.8056 19.3791 20.1678C19.2487 20.3417 19.1401 20.4069 19.0097 20.5735C18.633 21.0371 17.5318 22.428 17.1624 22.6743L15.0254 20.1751C14.7501 19.8201 14.8443 19.4072 14.8443 18.8059L14.837 18.7987ZM12.5189 13.8509V9.43919C14.3444 9.43919 15.5252 9.32328 17.1334 8.79445C18.3867 8.37429 19.2053 7.91066 20.2557 7.35286L21.4365 8.64957C21.5596 8.77997 21.8059 8.92485 21.8059 9.13493V13.3148C21.8059 15.2563 20.741 16.8862 19.2777 17.5962C15.9599 19.2116 12.5189 16.5457 12.5189 13.8581V13.8509ZM22.965 13.0033V10.294C24.6094 10.294 24.6312 12.9671 22.965 13.0033ZM10.0486 11.7646C10.0486 10.9098 10.5847 10.4606 11.2874 10.294V13.0033C10.4977 12.9888 10.0486 12.1123 10.0486 11.7646ZM11.367 9.05525C10.9759 9.05525 11.0193 9.12769 10.6716 9.13493C10.6716 6.91821 10.831 4.85361 12.4682 3.19469C13.0694 2.58618 13.6924 2.15153 14.511 1.76034C16.1627 0.963478 18.604 1.02143 20.1832 1.94869C20.9294 2.38334 21.5959 2.89043 22.1319 3.5569C23.6025 5.37519 23.588 6.8675 23.588 9.14218L22.9723 9.06249C22.9723 8.34531 22.7984 8.36705 22.1754 7.61365C22.0595 7.47601 21.9581 7.38908 21.8277 7.25869L21.1032 6.51253C21.0888 6.49804 21.0743 6.48356 21.067 6.46907C21.0525 6.45458 21.0381 6.44009 21.0308 6.43285C21.0308 6.43285 20.828 6.26623 20.8207 6.25899C20.0384 5.77362 19.2705 6.61395 18.2273 7.09931C16.8437 7.7368 15.0833 8.21492 13.4534 8.20767C12.4319 8.20043 11.4395 8.12799 11.367 9.06249V9.05525Z" fill="#F6F5F6"/>
<path fill-rule="evenodd" clip-rule="evenodd" d="M27.9443 33.5696C27.4661 33.5696 27.285 33.1856 26.8431 32.7365C26.5244 32.4178 26.2201 32.186 26.0101 31.7875C26.6258 30.6212 26.988 32.483 27.8646 32.483C28.3572 32.483 29.2482 31.3891 29.6684 31.0341L30.3711 30.4184C30.7188 30.201 30.6101 30.3966 30.8854 30.3966C31.0665 31.15 30.6536 31.0631 29.509 32.1932C29.2989 32.396 28.1399 33.5696 27.9443 33.5696ZM27.8646 31.0196C27.1112 30.5125 27.4516 30.2445 26.1622 30.2445C25.5899 30.2445 24.8438 30.8603 24.8438 31.8672C24.8438 32.6786 25.5827 33.1856 26.0246 33.6275C26.7997 34.4027 27.7414 35.6197 29.1975 34.1274C30.103 33.2074 32.1966 31.7803 32.1966 30.7009C32.1966 29.8388 31.5446 29.1506 30.4942 29.1506C29.7915 29.1506 29.4583 29.636 29.0816 29.9837C28.8788 30.1721 28.0529 30.9544 27.8646 31.0051V31.0196Z" fill="#F6F5F6"/>
<path fill-rule="evenodd" clip-rule="evenodd" d="M25.3954 27.2309H31.7413C32.8859 27.2309 32.7918 25.9922 31.9732 25.9922H25.0912C24.6348 25.9922 24.374 26.3761 24.4537 26.7021C24.5623 27.144 24.8811 27.2237 25.3954 27.2237V27.2309Z" fill="#F6F5F6"/>
<path fill-rule="evenodd" clip-rule="evenodd" d="M25.0827 24.9056H31.8922C32.8267 24.9056 32.8702 23.6668 31.7401 23.6668H25.2421C24.083 23.6668 24.2858 24.9056 25.0899 24.9056H25.0827Z" fill="#F6F5F6"/>
</svg>
