<svg width="37" height="37" viewBox="0 0 37 37" fill="none" xmlns="http://www.w3.org/2000/svg">
<path fill-rule="evenodd" clip-rule="evenodd" d="M26.9144 15.2136C29.3185 15.2136 32.1331 15.155 34.4786 15.2136C34.4786 15.9173 34.5372 33.2739 34.4786 33.8016C34.42 34.212 34.244 34.3294 33.7749 34.3294H3.22503C2.40412 34.3294 2.58002 33.3326 2.58002 32.3944V15.2136C4.39777 15.2723 6.39144 15.2136 8.26783 15.2136H17.8843V28.407C17.8843 28.8174 18.0016 29.228 18.412 29.2866C18.9398 29.3452 19.1157 29.052 19.1743 28.5829C19.233 27.7033 19.1743 26.6479 19.1743 25.7683V11.6955C19.1743 10.7573 19.1157 9.76039 19.1743 8.88083H34.7132C35.2995 8.88083 35.7686 8.88084 35.7686 9.52584V13.2786C35.7686 13.5718 35.6513 13.6891 35.4754 13.8064C35.2995 13.9823 35.0649 13.9236 34.7718 13.9236H26.3281C25.8003 13.9236 25.3898 14.2169 25.6244 14.8032C25.8003 15.2723 26.328 15.2136 26.9144 15.2136ZM1.29002 13.22V9.52584C1.29002 8.70493 1.99366 8.82223 2.6973 8.82223C7.74009 8.82223 12.9002 8.76359 17.8843 8.82223V13.9236C17.4738 13.9236 1.93503 13.9823 1.70048 13.9236C1.46593 13.865 1.29002 13.5132 1.29002 13.22ZM13.0761 4.95216C13.0761 4.5417 13.252 4.18992 13.4279 3.89674C14.1902 2.84127 15.5975 2.84126 16.2425 3.42763C16.7702 3.89673 16.8875 4.36581 17.122 5.24536C17.2979 6.00765 17.4739 6.76992 17.5325 7.53221C16.3011 7.53221 15.832 7.47359 14.6006 7.00449C13.9556 6.76995 13.9556 6.76997 13.5452 6.30088C13.1933 5.89042 13.0761 5.53853 13.0761 4.95216ZM19.233 7.3563C19.2916 6.12492 19.5848 4.48313 19.9366 3.36902C20.3471 1.9031 21.168 1.19939 22.6339 1.19939C24.3344 1.19939 25.6244 3.25169 24.9207 4.77626C24.7448 5.18672 24.5103 5.59722 24.1585 5.83177C24.0412 5.89041 23.9239 6.00764 23.8067 6.06628C23.6307 6.18355 23.5721 6.18355 23.3962 6.24218C21.9303 6.82855 20.8748 7.12172 19.233 7.41491V7.3563ZM18.2948 4.83495C18.1775 4.13131 17.7084 3.13447 17.2979 2.72401C16.3597 1.78582 14.9525 1.60984 13.7211 2.19621C13.4865 2.31349 12.9588 2.66531 12.7829 2.84122C12.1379 3.6035 11.8447 4.13126 11.8447 5.24536C11.8447 6.65265 12.9002 7.53217 12.9002 7.59081C10.496 7.53217 7.97465 7.59081 5.57053 7.59081C4.33915 7.59081 3.10776 7.53217 1.87638 7.59081C0.820917 7.64945 0 8.47041 0 9.46724V13.3959C0 14.2168 0.645015 14.9791 1.29002 15.155V32.1012C1.29002 32.8634 1.17274 34.0948 1.46593 34.6812C2.11093 35.8539 3.10777 35.7366 4.22188 35.7366H33.7749C34.5372 35.7366 35.2409 35.3848 35.5341 34.6812C35.8273 33.9776 35.71 32.9221 35.71 32.1012V15.155C35.71 15.155 35.71 15.155 35.7686 15.155C35.8273 15.2137 36.4723 14.6859 36.5895 14.51C36.8241 14.2755 37 13.8064 37 13.3373V9.52584C37 8.88084 36.7654 8.4704 36.4722 8.17722C36.1204 7.82539 35.6513 7.59081 35.065 7.59081C33.3645 7.59081 23.748 7.64945 23.5135 7.59081C24.1585 7.18035 24.8621 7.12175 25.5071 6.06628C25.6244 5.89037 25.6831 5.77308 25.7417 5.59717C26.2694 4.48307 26.2108 3.07583 25.683 2.079C24.8035 0.4958 22.6339 -0.501105 20.8748 0.261177C19.4089 0.964822 18.8811 2.13757 18.5293 3.66214C18.4707 3.89669 18.2948 4.71768 18.2361 4.83495H18.2948Z" fill="#EB691F"/>
<path fill-rule="evenodd" clip-rule="evenodd" d="M20.9312 13.9823C20.5794 14.0409 20.3449 14.3341 20.4621 14.8032C20.5794 15.2136 20.8726 15.2723 21.2831 15.2723C21.7522 15.2723 23.5113 15.3309 23.8045 15.2136C24.2736 15.0963 24.5667 13.9822 23.394 13.9236C22.8663 13.9236 21.2831 13.865 20.8726 13.9823H20.9312Z" fill="#EB691F"/>
<path fill-rule="evenodd" clip-rule="evenodd" d="M19.1747 32.5703C19.2333 32.2185 19.2333 31.0457 19.0574 30.8112C18.7642 30.3421 18.002 30.5179 17.8847 31.0457C17.826 31.3975 17.826 32.6876 18.002 32.8635C18.1779 33.098 18.9988 33.3326 19.1747 32.5703Z" fill="#EB691F"/>
<path fill-rule="evenodd" clip-rule="evenodd" d="M21.1088 32.6289C21.2261 33.1566 21.9884 33.2739 22.2816 32.8048C22.3988 32.6289 22.3989 31.2802 22.3402 30.987C22.2229 30.4007 21.3434 30.4007 21.1675 30.8111C21.0502 31.0457 21.0502 32.277 21.1088 32.6289Z" fill="#EB691F"/>
<path fill-rule="evenodd" clip-rule="evenodd" d="M24.3315 32.6289C24.4488 33.2153 25.2697 33.2153 25.5042 32.8048C25.6215 32.5703 25.6215 31.2803 25.5629 30.9871C25.3869 30.3421 24.6247 30.4594 24.3901 30.8112C24.2729 31.0458 24.2728 32.2771 24.3315 32.6289Z" fill="#EB691F"/>
<path fill-rule="evenodd" clip-rule="evenodd" d="M5.16157 32.6877C5.33748 33.2154 6.09974 33.274 6.33429 32.7463C6.45156 32.5704 6.45158 31.1631 6.39294 30.9285C6.27567 30.4008 5.45474 30.3421 5.22019 30.8112C5.10292 31.0458 5.10293 32.3944 5.16157 32.629V32.6877Z" fill="#EB691F"/>
<path fill-rule="evenodd" clip-rule="evenodd" d="M15.1877 30.5764C14.6013 30.7523 14.7186 31.3973 14.7186 32.0423C14.7186 32.6287 14.7772 33.3323 15.5395 33.0978C16.1259 32.9219 16.0086 32.2768 16.0086 31.6318C16.0086 31.3387 16.0672 31.0455 15.8913 30.8109C15.774 30.635 15.4222 30.5178 15.1877 30.5764Z" fill="#EB691F"/>
<path fill-rule="evenodd" clip-rule="evenodd" d="M12.8408 31.3388C12.8408 31.1043 12.8408 30.987 12.7235 30.8111C12.3717 30.4007 11.6094 30.4593 11.5508 31.1629C11.5508 31.4561 11.5508 32.1597 11.5508 32.5116C11.6094 32.922 11.7853 33.1566 12.1958 33.1566C13.0167 33.1566 12.8408 32.1598 12.8408 31.3975V31.3388Z" fill="#EB691F"/>
<path fill-rule="evenodd" clip-rule="evenodd" d="M30.726 32.6875C30.9019 33.3325 31.7228 33.1565 31.8988 32.7461C32.016 32.5702 32.016 31.1629 31.9574 30.9283C31.8401 30.4006 31.0192 30.4006 30.7846 30.811C30.6674 31.0456 30.6674 32.3942 30.726 32.6288V32.6875Z" fill="#EB691F"/>
<path fill-rule="evenodd" clip-rule="evenodd" d="M27.498 32.453C27.498 32.8048 27.7912 33.098 28.2017 33.098C28.964 33.098 28.7881 32.2184 28.7881 31.2802C28.7881 30.2248 27.498 30.342 27.498 31.1629V32.453Z" fill="#EB691F"/>
<path fill-rule="evenodd" clip-rule="evenodd" d="M9.61744 32.6875C9.67608 32.453 9.67609 31.1042 9.55881 30.8697C9.32427 30.342 8.56198 30.4593 8.38607 30.9284C8.26879 31.1629 8.32743 32.5702 8.38607 32.8047C8.56198 33.2738 9.44154 33.2153 9.55881 32.6875H9.61744Z" fill="#EB691F"/>
</svg>
