<svg width="54" height="54" viewBox="0 0 54 54" fill="none" xmlns="http://www.w3.org/2000/svg">
<path fill-rule="evenodd" clip-rule="evenodd" d="M16.2281 39.3587L16.9686 39.3355C18.2413 41.1636 14.9323 41.1405 16.2281 39.3587ZM38.119 31.0512C38.5124 32.3934 37.3323 32.486 36.9852 31.9769C36.5223 31.3289 37.1471 30.5653 38.119 31.0512ZM25.5306 27.3256C27.3124 25.7752 27.2893 29.5008 25.5537 27.9504L25.5306 27.3256ZM19.2595 24.8033C18.6579 24.9884 18.519 24.919 18.0793 24.5719C17.8942 22.9752 19.9537 23.2992 19.2595 24.8033ZM26.0397 19.9207C24.7207 20.3141 24.5818 19.157 25.1141 18.7868C25.8083 18.3008 26.5025 18.995 26.0397 19.9207ZM27.6595 20.1289H31.038L31.0612 33.5736L27.0116 33.5967V29.8479C27.3587 29.5471 28.724 29.038 28.4694 27.2562C28.076 24.7339 24.3736 24.757 24.0033 27.2562C23.7257 29.2 25.3686 29.5471 25.4612 29.9405V33.5736H19.5372V26.5388C19.6066 26.1686 20.0694 26.238 20.5785 25.5207C21.6661 24.0165 20.648 22.0033 18.8661 21.9107C16.2744 21.795 15.5571 25.4744 17.9637 26.3074V30.1488C16.0661 30.1719 13.6595 29.7554 13.6595 30.9587C13.6595 32.1388 15.9042 31.676 17.9637 31.7455C17.9405 36.2116 16.8761 34.9851 25.438 35.1471V39.1967H18.7273C17.7091 36.767 14.3075 37.5074 14.3075 40.0066C14.3306 41.9041 16.4364 42.7835 17.8017 41.9041C18.2876 41.5802 18.4033 41.3025 18.7273 40.7934C20.2777 40.562 23.8645 40.7471 25.6463 40.7471C27.2661 40.7471 26.9884 40.0992 26.9884 38.6413C26.9884 37.4612 26.9884 36.3041 26.9884 35.124H31.038C31.038 40.2149 30.4827 39.4281 34.5785 39.4281C35.8744 39.4281 41.6595 39.3587 42.4463 39.4744V43.4545C41.3587 43.5934 26.1322 43.5008 23.3554 43.5008C22.2678 43.5008 21.6661 43.2694 20.9951 43.9174C20.8562 45.1207 21.4579 45.0744 22.4529 45.0744H40.8959C42.4694 45.0744 44.7603 44.7273 45.3388 45.8612C45.7091 46.5785 45.524 47.2727 45.038 47.7587C44.4364 48.3372 43.6727 48.1984 42.724 48.1984H11.0446C8.29093 48.1984 8.6843 46.162 9.33224 45.5372C10.3041 44.5884 14.8166 45.2595 16.8066 45.0744C17.848 44.9818 17.7554 43.8479 17.1769 43.5934C16.7372 43.4083 12.7571 43.524 11.924 43.5008V19.5273L15.719 17.3058C17.2232 16.3802 26.9422 10.7107 27.2199 10.7107C27.4976 10.7107 38.5124 17.2132 40.5719 18.3934C41.1041 18.6942 42.0298 19.1802 42.4694 19.5273V21.8645C39.9703 22.2579 36.9157 21.1934 36.7769 22.6975C36.5917 24.5256 36.7769 27.4645 36.7769 29.4083C34.4397 30.2182 35.0182 33.7587 37.5405 33.7818C40.0165 33.805 40.757 30.357 38.3504 29.3851V23.4843H42.4926V37.8314L32.6579 37.8777C32.5653 31.7917 32.7273 25.6364 32.6579 19.6198C32.6347 18.3702 31.8942 18.5322 30.7604 18.5322C29.719 18.5322 28.7008 18.5322 27.6595 18.5322C26.8727 16.195 23.3091 16.7504 23.286 19.2959C23.2628 21.7719 26.6645 22.5355 27.6827 20.0826L27.6595 20.1289ZM7.55044 20.3372V17.2595L27.2199 5.73554L40.5257 13.4182C41.2661 13.881 41.9835 14.2744 42.7471 14.7141C43.3256 15.038 46.681 16.9355 47.1901 17.3752L47.2132 20.476C45.7323 19.8975 28.0298 9.02149 27.243 8.99835C26.7339 8.97521 23.3785 11.081 22.7537 11.4512C21.2496 12.3537 19.7918 13.1868 18.3108 14.043C17.3389 14.5983 8.29094 20.0826 7.55044 20.3603V20.3372ZM6 17.1438V21.3322C6 23.5306 9.4248 20.9388 10.3504 20.4992L10.3736 43.5471C6.18516 43.8479 6.37027 49.8182 10.5818 49.8182H43.7422C46.9587 49.8182 48.0232 46.5091 46.2645 44.5422C45.7554 43.9636 45.038 43.7554 44.0199 43.5008V20.5223C44.4595 20.6149 48.7405 23.6694 48.7405 21.6562V17.2364C48.7405 16.1719 48.6942 16.3802 46.843 15.3157C44.1124 13.7422 27.6364 4 27.2199 4C26.7339 4 18.4496 8.97521 17.2926 9.62314L7.99008 15.1537C7.5967 15.3851 7.20333 15.6165 6.7868 15.8711C6.16201 16.2413 6 16.2645 6 17.1438Z" fill="black"/>
</svg>
