<svg width="54" height="54" viewBox="0 0 54 54" fill="none" xmlns="http://www.w3.org/2000/svg">
<path fill-rule="evenodd" clip-rule="evenodd" d="M5.69741 38.2099C6.5536 37.7471 7.36352 37.3074 8.19658 36.7984C8.56683 36.567 9.0065 36.3124 9.39989 36.1041C9.77013 35.919 10.3255 35.5025 10.6958 35.4099L14.0974 41.3108C15.185 43.2314 16.4809 45.3141 17.4991 47.2116C16.8974 47.3504 16.4346 47.8595 15.9024 48.0215L13.3338 43.6017C12.5007 42.7686 11.4594 43.5322 11.552 44.4116C11.6214 44.9669 13.9586 48.4843 14.0974 49.1322C13.542 49.4331 13.0561 49.7339 12.5007 50.0347L5.69741 38.2331V38.2099ZM12.5701 52.2099H12.061C11.5057 52.0942 11.0891 51.5851 10.6958 50.9372C8.96022 48.0678 7.22468 44.805 5.48914 41.9355C5.11889 41.3107 4.79493 40.7322 4.42468 40.1074C3.29079 38.2331 2.92055 37.5157 4.86435 36.3818C5.53542 35.9884 6.16022 35.6413 6.83129 35.2479C7.50236 34.8546 8.12716 34.5074 8.79823 34.1141C9.21476 33.8595 10.3949 33.1422 10.9272 33.1422C11.7139 33.1422 12.547 34.1603 12.7321 34.8314C13.2181 34.7851 16.3189 33.0959 17.1057 32.7025C18.4941 32.0083 19.952 31.0364 21.942 31.0364C23.2842 31.0364 23.7007 30.9901 25.066 31.4066C25.6908 31.5917 26.2462 31.7074 26.8941 31.8926L34.3916 33.7901C35.271 34.1372 36.428 35.2711 36.428 36.4512C36.8677 36.3355 37.2842 35.7339 37.6081 35.4331L42.9999 30.0413C44.1338 28.9074 44.6197 28.4678 46.3321 28.4678C48.9933 28.4678 51.1916 32.1934 48.5536 34.7851L42.9999 40.3388C40.3387 43 38.071 46.0545 34.0214 46.0545H25.6214C25.1123 46.0545 24.6263 45.5455 24.6263 45.0595C24.6263 43.7405 26.0842 43.9488 27.5189 43.9488C28.7916 43.9488 30.0412 43.9488 31.3139 43.9488C34.6693 43.9488 35.5255 44.157 37.6544 42.6992L47.2809 33.1422C47.9751 32.3091 47.6511 31.0826 46.7949 30.6893C45.6148 30.1339 44.9668 30.967 44.342 31.5917L38.58 37.3306C37.2379 38.6727 35.8958 40.4546 34.1139 40.4546H25.5057C25.0197 40.4546 24.6032 40.038 24.6032 39.5521C24.6032 38.3025 25.3437 38.4413 26.8015 38.4413H32.7949C33.6974 38.395 34.3916 37.9785 34.3916 37.0298C34.3916 35.595 33.3734 35.6182 31.8693 35.2479L25.6445 33.6744C23.423 33.119 22.0346 32.6331 19.8594 33.605C18.7949 34.0909 14.2362 36.5438 13.7966 36.6364L18.3553 44.5736C19.1883 46.124 20.3453 47.2579 19.2115 48.4612C18.8875 48.8314 14.3982 51.2843 13.4958 51.8397C13.1486 52.0479 12.8247 52.1868 12.547 52.2331L12.5701 52.2099Z" fill="black"/>
<path fill-rule="evenodd" clip-rule="evenodd" d="M14.3976 15.2083C14.3976 9.56198 18.4241 4.60992 23.8621 3.36033C25.8059 2.92066 27.3331 2.92066 29.2538 3.33719C32.1464 3.98512 34.9464 5.81323 36.5662 8.24298C37.029 8.93719 37.353 9.44628 37.7001 10.2099C39.1579 13.4496 39.1579 16.9669 37.7001 20.2066C35.7563 24.5107 31.429 27.4033 26.5926 27.4033C24.8803 27.4033 22.7282 26.8711 21.5943 26.3157C18.6323 24.8347 16.9662 23.1917 15.4852 20.2066C14.9298 19.0727 14.3976 16.8975 14.3976 15.2083ZM25.991 1H27.2174C29.0224 1.06942 30.8274 1.50909 32.6092 2.29587C33.9745 2.89752 35.7563 4.17025 36.7513 5.25785L36.8439 5.37355C37.515 6.13719 37.9083 6.43801 38.5563 7.47934C41.1249 11.6215 41.6802 16.8975 39.4819 21.2711C39.0885 22.0578 38.7414 22.7521 38.2323 23.4231C36.9596 25.1355 37.1447 24.7653 35.8488 26.038C35.5712 26.3157 35.224 26.5471 34.9001 26.7785C34.2059 27.2876 33.5811 27.6347 32.7712 28.0281C30.2951 29.2777 28.5827 29.3934 25.829 29.3934C22.6588 29.3934 18.6092 27.4496 16.5034 25.2281C15.3695 24.0479 14.467 22.6826 13.7265 21.2017C12.6621 19.0496 12.4307 17.1521 12.4307 14.6066C12.4307 11.9917 13.472 9.4 14.7447 7.40992C16.0637 5.35041 18.4935 3.26777 20.6455 2.29587C22.4274 1.50909 24.2323 1.06942 26.0373 1H25.991Z" fill="black"/>
<path fill-rule="evenodd" clip-rule="evenodd" d="M26.5938 13.704C25.4831 12.9635 23.1921 9.90892 22.3822 9.90892C21.5955 9.90892 21.2715 10.2329 21.2715 11.0197C21.2715 11.575 22.0583 12.1536 22.4054 12.5007L24.9971 15.0924C25.5988 15.694 25.8533 16.2263 26.6632 16.2263C27.1723 16.2263 27.4963 15.7403 27.7971 15.4626L33.6516 9.6081C34.1839 9.07587 34.4847 9.00645 34.4847 8.24281C34.4847 7.59488 33.9988 7.34033 33.374 7.34033C32.8186 7.34033 32.1012 8.26595 31.5459 8.82132L26.5707 13.7502L26.5938 13.704Z" fill="black"/>
<path fill-rule="evenodd" clip-rule="evenodd" d="M46.1936 1.90248C46.1936 3.36033 45.939 4.40166 47.3043 4.40166C48.4614 4.40166 48.2068 2.9438 48.2068 1.90248C48.2068 1.34711 47.7903 1.04628 47.3275 1H47.0961C46.6333 1.04628 46.2167 1.34711 46.2167 1.90248H46.1936Z" fill="black"/>
<path fill-rule="evenodd" clip-rule="evenodd" d="M5.00411 22.5204C5.00411 23.9783 4.72643 25.0196 6.11486 25.0196C7.27188 25.0196 7.01734 23.5617 7.01734 22.5204C7.01734 21.3171 5.02725 21.3171 5.02725 22.5204H5.00411Z" fill="black"/>
<path fill-rule="evenodd" clip-rule="evenodd" d="M7.5957 26.5005C7.5957 27.8658 8.66017 27.6113 10.0949 27.6113C11.2982 27.6113 11.2982 25.6212 10.0949 25.6212C9.35438 25.6212 7.5957 25.3666 7.5957 26.5237V26.5005Z" fill="black"/>
<path fill-rule="evenodd" clip-rule="evenodd" d="M48.8076 5.90554C48.8076 7.27083 49.8721 7.01628 51.3068 7.01628C51.8622 7.01628 52.163 6.59976 52.2093 6.13695V5.90554C52.163 5.44273 51.8622 5.02621 51.3068 5.02621C50.5663 5.02621 48.8076 4.77166 48.8076 5.92869V5.90554Z" fill="black"/>
<path fill-rule="evenodd" clip-rule="evenodd" d="M46.1936 8.40475C46.1936 9.95516 45.9159 10.9965 47.3043 10.9965C48.4613 10.9965 48.2068 9.51549 48.2068 8.40475C48.2068 7.38657 46.2167 7.38657 46.2167 8.40475H46.1936Z" fill="black"/>
<path fill-rule="evenodd" clip-rule="evenodd" d="M1 26.5008C1 27.8661 2.04132 27.6116 3.49917 27.6116C4.70248 27.6116 4.70248 25.6215 3.40661 25.6215C2.41157 25.6215 1 25.3901 1 26.524V26.5008Z" fill="black"/>
<path fill-rule="evenodd" clip-rule="evenodd" d="M42.1895 5.90585C42.1895 7.27114 43.2308 7.0166 44.6886 7.0166C45.8919 7.0166 45.8919 5.02652 44.5961 5.02652C43.601 5.02652 42.1895 4.79512 42.1895 5.929V5.90585Z" fill="black"/>
<path fill-rule="evenodd" clip-rule="evenodd" d="M5.00411 29.023C5.00411 30.5734 4.72643 31.6148 6.11486 31.6148C7.27188 31.6148 7.01734 30.1338 7.01734 29.023C7.01734 28.5834 6.138 27.8429 5.35122 28.4676C5.23552 28.5602 5.00411 28.861 5.00411 29.023Z" fill="black"/>
<path fill-rule="evenodd" clip-rule="evenodd" d="M25.5979 5.21161C25.5979 5.99838 25.3897 7.31739 26.7087 7.31739C27.8194 7.31739 27.6112 5.85954 27.6112 5.32731C27.6112 4.03144 25.6211 4.2397 25.6211 5.23474L25.5979 5.21161Z" fill="black"/>
<path fill-rule="evenodd" clip-rule="evenodd" d="M34.5068 15.2082C34.5068 16.5966 37.3994 16.8512 37.3994 15.1156C37.3994 13.8429 34.5068 13.8429 34.5068 15.2082Z" fill="black"/>
<path fill-rule="evenodd" clip-rule="evenodd" d="M15.8105 15.1154C15.8105 16.4113 16.713 16.2261 17.7081 16.2261C19.0039 16.2261 19.0039 14.2361 17.7081 14.2361C17.037 14.2361 15.8105 14.0509 15.8105 15.1385V15.1154Z" fill="black"/>
<path fill-rule="evenodd" clip-rule="evenodd" d="M25.5979 23.9093C25.5979 25.0432 25.3897 26.0151 26.7087 26.0151C28.0277 26.0151 27.9351 23.1226 26.6161 23.1226C26.2459 23.1226 25.6211 23.5854 25.6211 23.9325L25.5979 23.9093Z" fill="black"/>
<path fill-rule="evenodd" clip-rule="evenodd" d="M20.6006 44.9202C20.6006 46.3781 22.5907 46.3087 22.5907 45.1285C22.5907 44.2723 22.0816 43.8789 21.5262 43.9715C21.0403 44.0409 20.6006 44.4112 20.6006 44.9434V44.9202Z" fill="black"/>
<path fill-rule="evenodd" clip-rule="evenodd" d="M10.5114 41.8194C11.9461 41.8194 12.0387 39.8293 10.5114 39.8293C9.26182 39.8293 9.26182 41.8194 10.5114 41.8194Z" fill="black"/>
</svg>
