<svg width="40" height="40" viewBox="0 0 40 40" fill="none" xmlns="http://www.w3.org/2000/svg">
<path d="M36.2729 4.34712H32.1654V2.58678C32.1654 2.26079 31.9046 2 31.5786 2H27.4712C27.1452 2 26.8844 2.26079 26.8844 2.58678V4.34712H13.9752V2.58678C13.9752 2.26079 13.7144 2 13.3884 2H9.281C8.95501 2 8.69422 2.26079 8.69422 2.58678V4.34712H4.58678C4.26079 4.34712 4 4.60791 4 4.9339V11.3885V36.6273C4 36.9532 4.26079 37.214 4.58678 37.214H36.2801C36.6061 37.214 36.8669 36.9532 36.8669 36.6273V11.3885V4.9339C36.8669 4.60791 36.6061 4.34712 36.2801 4.34712H36.2729ZM28.0579 3.17356H30.9918V4.9339V6.69424H28.0579V4.9339V3.17356ZM9.86778 3.17356H12.8017V4.9339V6.69424H9.86778V4.9339V3.17356ZM5.17356 5.52068H8.69422V7.28102C8.69422 7.60701 8.95501 7.8678 9.281 7.8678H13.3884C13.7144 7.8678 13.9752 7.60701 13.9752 7.28102V5.52068H26.8844V7.28102C26.8844 7.60701 27.1452 7.8678 27.4712 7.8678H31.5786C31.9046 7.8678 32.1654 7.60701 32.1654 7.28102V5.52068H35.6861V10.8017H5.1663V5.52068H5.17356ZM5.17356 36.0405V11.9753H35.6934V36.0405H5.17356Z" fill="white"/>
<path d="M25.1243 15.5032H21.0169H19.8433H15.7358H14.5623H9.28125V20.7842V21.9578V26.0652V27.2388V32.5198H14.5623H15.7358H19.8433H21.0169H25.1243H26.2979H31.5789V27.2388V26.0652V21.9578V20.7842V15.5032H26.2979H25.1243ZM21.0169 16.6767H25.1243V20.7842H21.0169V16.6767ZM25.1243 26.0652H21.0169V21.9578H25.1243V26.0652ZM15.7358 21.9578H19.8433V26.0652H15.7358V21.9578ZM15.7358 16.6767H19.8433V20.7842H15.7358V16.6767ZM10.4548 16.6767H14.5623V20.7842H10.4548V16.6767ZM10.4548 21.9578H14.5623V26.0652H10.4548V21.9578ZM14.5623 31.3462H10.4548V27.2388H14.5623V31.3462ZM19.8433 31.3462H15.7358V27.2388H19.8433V31.3462ZM25.1243 31.3462H21.0169V27.2388H25.1243V31.3462ZM30.4053 31.3462H26.2979V27.2388H30.4053V31.3462ZM30.4053 26.0652H26.2979V21.9578H30.4053V26.0652ZM30.4053 16.6767V20.7842H26.2979V16.6767H30.4053Z" fill="white"/>
</svg>
