<svg width="80" height="80" viewBox="0 0 80 80" fill="none" xmlns="http://www.w3.org/2000/svg">
<path fill-rule="evenodd" clip-rule="evenodd" d="M32.7013 39.691H49.9703C50.1396 39.8603 50.3089 39.5217 50.3089 40.5375C50.3089 40.8761 50.3089 41.2147 50.3089 41.7226V57.2986C50.3089 62.5471 50.4782 71.1816 50.3089 76.0914C49.4624 76.43 33.3785 76.43 32.532 76.0914V40.1989C32.532 39.3524 32.532 40.0296 32.8706 39.691H32.7013ZM7.98283 47.479C8.66004 47.479 15.2629 45.278 16.6173 44.7701C19.6648 43.9236 22.3737 42.7384 25.4212 42.0612C25.5905 41.8919 25.0826 41.7226 25.7598 41.8919V75.7528C24.9133 76.0914 8.32143 76.0914 7.64422 75.7528V47.8176L7.98283 47.3097V47.479ZM14.9243 43.2464C14.9243 43.2464 14.755 43.2464 14.755 43.4157C14.5857 43.585 13.9085 43.7543 13.5699 43.7543C13.4006 42.0612 13.4006 28.6862 13.7392 27.8397C14.755 27.6704 22.8816 27.501 23.7281 28.009C23.8974 29.702 23.7281 36.6435 23.7281 39.1831C23.7281 39.8603 23.8974 40.3682 23.3895 40.7068L14.9243 43.2464ZM47.4307 33.596L71.472 40.1989V75.9221H52.5099C52.1713 73.8904 52.6792 39.0137 52.3406 38.1672C52.002 37.1514 49.4624 37.6593 47.4307 37.49V33.596ZM30.8389 37.6593C30.1617 38.5058 30.5003 40.7068 30.5003 42.0612C30.5003 43.7543 30.5003 45.278 30.5003 46.9711C30.5003 56.2828 30.6696 66.949 30.5003 75.9221H27.9607C27.7914 66.7797 27.9607 56.1135 27.9607 46.6324C27.9607 40.0296 28.638 39.0137 25.9291 39.691C25.5905 39.3524 25.7598 40.1989 25.7598 39.1831V9.55478C26.6063 9.21618 44.5526 9.21618 45.3991 9.55478C45.5684 10.7399 45.5684 36.3049 45.3991 37.3207C43.5367 37.8286 33.2092 36.9821 31.0082 37.49L30.8389 37.6593ZM64.8691 35.9663C63.684 35.9663 57.9276 34.1039 56.2346 33.596C53.5257 32.7495 50.1396 31.7337 47.6 31.2257C47.2614 31.0564 47.4307 31.5644 47.2614 30.5485V20.7289C48.7852 20.5596 64.6998 20.5596 65.377 20.8982C65.5463 22.4219 65.5463 35.6277 65.377 36.1356C64.6998 36.1356 65.0384 36.1356 64.6998 35.9663H64.8691ZM23.5588 25.6387C21.6965 25.808 12.8927 25.3001 12.0461 25.808C11.1996 26.3159 11.5382 29.0248 11.5382 30.0406C11.5382 33.0881 11.7075 42.5691 11.5382 44.0929C10.5224 44.4315 9.16796 44.9394 8.15213 45.278C6.45909 45.7859 5.95117 45.6166 5.95117 47.8176C5.95117 51.0344 5.95117 54.0818 5.95117 57.2986C5.95117 63.3936 6.12048 69.9965 5.95117 75.9221C5.10465 75.9221 1.37996 75.7528 0.702738 76.0914C0.0255206 76.43 0.0255206 77.4458 0.533434 77.9538C1.04135 78.2924 12.554 78.1231 13.7392 78.1231H73.165C74.5194 78.1231 77.3976 78.631 78.0748 77.6152C78.9214 75.2449 75.1967 76.0914 73.5036 75.9221C73.3343 74.5677 73.5036 45.1087 73.5036 42.2305C73.5036 39.183 73.8422 38.6751 71.8106 38.1672C70.6254 37.8286 68.4245 37.3207 67.4087 36.8128V23.2684C67.4087 17.6814 68.9324 18.8665 57.589 18.8665C56.9118 15.9884 58.6048 10.5706 56.4039 10.4013C54.8801 10.4013 55.3881 12.6023 55.3881 13.9567C55.3881 15.1418 55.5574 17.6814 55.2187 18.6972H47.2614C47.0921 17.8507 47.0921 11.0785 47.0921 9.21618C47.0921 7.86174 46.9228 7.52313 45.5684 7.52313H24.5747C22.7123 7.52313 23.2202 9.21618 23.2202 11.0785C23.2202 13.7874 23.3895 24.6229 23.0509 25.808L23.5588 25.6387Z" fill="#333333"/>
<path fill-rule="evenodd" clip-rule="evenodd" d="M61.6525 51.3729C60.6366 51.8808 61.1446 54.0817 61.1446 55.2669C61.1446 56.452 60.9753 58.8223 62.6683 57.9757C63.6841 57.4678 63.1762 51.8808 63.1762 51.8808C63.0069 51.3729 62.3297 51.0343 61.6525 51.3729Z" fill="#333333"/>
<path fill-rule="evenodd" clip-rule="evenodd" d="M60.9753 43.9235C60.9753 46.2937 60.4674 49.3412 61.9911 49.3412C63.5149 49.3412 63.007 46.463 63.007 43.9235C63.007 43.0769 62.8377 42.3997 61.9911 42.569C61.1446 42.569 60.9753 43.2462 60.9753 43.9235Z" fill="#333333"/>
<path fill-rule="evenodd" clip-rule="evenodd" d="M20.0042 52.7273C20.0042 55.2668 19.4963 58.8222 21.5279 57.9757C22.2051 57.6371 22.2051 57.2985 22.2051 56.452V52.7273C22.2051 50.6956 20.0042 50.5263 20.0042 52.7273Z" fill="#333333"/>
<path fill-rule="evenodd" clip-rule="evenodd" d="M65.3783 52.7274V56.6214C65.3783 57.6372 65.7169 58.1451 66.902 57.9758C67.9179 57.6372 67.4099 54.4204 67.4099 52.7274C67.4099 50.5264 65.209 50.5264 65.209 52.7274H65.3783Z" fill="#333333"/>
<path fill-rule="evenodd" clip-rule="evenodd" d="M11.3696 52.7273C11.3696 54.0817 11.031 57.4678 11.8775 57.9757C13.0627 58.145 13.5706 57.8064 13.5706 56.6213V52.7273C13.5706 50.6956 11.3696 50.5263 11.3696 52.7273Z" fill="#333333"/>
<path fill-rule="evenodd" clip-rule="evenodd" d="M57.0823 42.7383C56.4051 43.2462 56.5744 48.4947 56.913 48.8333C57.2516 49.3412 57.9288 49.5105 58.4367 49.1719C59.1139 48.664 58.9446 43.4155 58.7753 43.0769C58.606 42.569 57.7595 42.2304 57.0823 42.7383Z" fill="#333333"/>
<path fill-rule="evenodd" clip-rule="evenodd" d="M56.7432 52.7273V56.6213C56.7432 57.9757 57.759 58.4837 58.6055 57.8064C59.1134 57.2985 59.1134 52.0501 58.6055 51.5422C58.2669 51.2036 56.9125 50.6957 56.9125 52.7273H56.7432Z" fill="#333333"/>
<path fill-rule="evenodd" clip-rule="evenodd" d="M15.6011 52.7274V56.6214C15.6011 58.653 17.802 58.653 17.802 56.6214V52.7274C17.802 50.5264 15.6011 50.5264 15.6011 52.7274Z" fill="#333333"/>
<path fill-rule="evenodd" clip-rule="evenodd" d="M65.376 44.0929V47.8176C65.376 49.8492 67.5769 50.0185 67.5769 47.8176V43.9236C67.5769 42.0612 65.376 41.7226 65.376 44.0929Z" fill="#333333"/>
<path fill-rule="evenodd" clip-rule="evenodd" d="M60.975 61.5311C60.975 63.9014 60.4671 66.441 61.9908 66.441C63.5145 66.441 63.0066 64.0707 63.0066 61.3618C63.0066 59.3302 60.8057 59.1609 60.8057 61.5311H60.975Z" fill="#333333"/>
<path fill-rule="evenodd" clip-rule="evenodd" d="M56.7414 61.5311C56.7414 62.7163 56.5721 65.7637 57.0801 66.2716C57.4187 66.6103 58.0959 66.6103 58.4345 66.2716C58.9424 65.7637 58.9424 60.6846 58.4345 60.1767C58.0959 59.8381 57.4187 59.8381 57.0801 60.1767C56.7414 60.5153 56.7414 61.0232 56.7414 61.5311Z" fill="#333333"/>
<path fill-rule="evenodd" clip-rule="evenodd" d="M20.002 61.3618V64.9172C20.002 66.7796 22.2029 66.9489 22.2029 64.7479V61.3618C22.2029 59.3302 20.002 59.1609 20.002 61.3618Z" fill="#333333"/>
<path fill-rule="evenodd" clip-rule="evenodd" d="M65.376 61.3618V64.9171C65.376 66.9488 67.5769 67.1181 67.5769 64.9171V61.3618C67.5769 59.3301 65.376 59.3301 65.376 61.3618Z" fill="#333333"/>
<path fill-rule="evenodd" clip-rule="evenodd" d="M11.3677 61.3618V64.9172C11.3677 66.7796 13.5686 66.9489 13.5686 64.9172V61.1925C13.5686 59.4995 11.3677 58.9916 11.3677 61.3618Z" fill="#333333"/>
<path fill-rule="evenodd" clip-rule="evenodd" d="M15.6011 61.3618V64.9172C15.6011 66.7795 17.802 66.9488 17.802 64.9172V61.1925C17.802 59.3301 15.6011 58.9915 15.6011 61.3618Z" fill="#333333"/>
<path fill-rule="evenodd" clip-rule="evenodd" d="M19.4956 33.0882C19.4956 35.4584 19.157 37.4901 20.5115 37.4901C22.0352 37.4901 21.5273 35.4584 21.5273 33.0882C21.5273 30.8872 19.4956 30.8872 19.4956 33.0882Z" fill="#333333"/>
<path fill-rule="evenodd" clip-rule="evenodd" d="M15.6011 32.9188V36.1355C15.6011 37.8286 17.802 38.1672 17.802 35.9662V32.7495C17.802 30.8871 15.6011 30.7178 15.6011 32.7495V32.9188Z" fill="#333333"/>
<path fill-rule="evenodd" clip-rule="evenodd" d="M55.894 23.7764C54.8782 24.2843 54.7089 28.8555 56.9099 28.009C57.9257 27.5011 57.9257 22.5913 55.894 23.7764Z" fill="#333333"/>
<path fill-rule="evenodd" clip-rule="evenodd" d="M34.225 27.1623C34.5636 28.5167 37.1032 28.8554 36.2566 24.4534C36.0873 23.6069 34.9022 23.2683 34.3943 23.9455C34.0557 24.4534 34.0557 26.4851 34.225 27.1623Z" fill="#333333"/>
<path fill-rule="evenodd" clip-rule="evenodd" d="M45.062 49.172C44.2155 49.6799 44.0462 54.759 46.2472 53.2353C46.9244 52.7274 47.0937 47.8176 45.062 49.172Z" fill="#333333"/>
<path fill-rule="evenodd" clip-rule="evenodd" d="M45.062 55.7748C44.2155 56.2828 44.0462 61.3619 46.2472 59.8381C47.0937 59.3302 47.0937 54.4204 45.062 55.7748Z" fill="#333333"/>
<path fill-rule="evenodd" clip-rule="evenodd" d="M44.722 72.1975C44.8913 73.044 46.2458 73.3826 46.5844 72.5361C46.7537 72.1975 46.7537 69.9965 46.7537 69.4886C46.5844 68.4728 45.23 68.3035 44.722 69.15C44.5527 69.4886 44.5527 71.6895 44.5527 72.3668L44.722 72.1975Z" fill="#333333"/>
<path fill-rule="evenodd" clip-rule="evenodd" d="M34.2236 33.5958C34.3929 34.7809 35.7474 34.9502 36.2553 34.1037C36.4246 33.7651 36.4246 31.5642 36.4246 31.0562C36.2553 29.8711 33.7157 29.0246 34.3929 33.5958H34.2236Z" fill="#333333"/>
<path fill-rule="evenodd" clip-rule="evenodd" d="M40.3182 72.1973C40.4875 73.0438 41.842 73.2131 42.1806 72.5359C42.3499 72.1972 42.3499 69.9963 42.3499 69.4884C42.1806 68.4726 40.8261 68.4726 40.3182 69.1498C40.1489 69.4884 40.1489 71.6893 40.1489 72.3666L40.3182 72.1973Z" fill="#333333"/>
<path fill-rule="evenodd" clip-rule="evenodd" d="M40.6604 27.501C40.8297 27.1624 40.8297 24.9614 40.6604 24.4535C40.4911 23.607 39.306 23.2684 38.7981 24.1149C38.4595 24.6228 38.4595 26.6545 38.6288 27.3317C38.7981 28.3475 40.1525 28.5168 40.6604 27.6703V27.501Z" fill="#333333"/>
<path fill-rule="evenodd" clip-rule="evenodd" d="M36.0871 46.6323C36.9336 47.3095 37.7801 47.1402 37.9494 46.2937C38.1187 45.6165 38.1187 43.5848 37.7801 43.2462C37.4415 42.569 36.0871 42.3997 35.9178 43.5848C35.7485 44.2621 35.9178 46.1244 36.0871 46.8016V46.6323Z" fill="#333333"/>
<path fill-rule="evenodd" clip-rule="evenodd" d="M46.7524 45.4472C46.7524 44.0927 47.091 42.2304 45.3979 42.3997C44.5514 42.569 44.5514 43.5848 44.5514 44.6006C44.5514 45.4472 44.3821 46.463 45.2286 46.8016C46.4138 47.1402 46.7524 46.2937 46.7524 45.4472Z" fill="#333333"/>
<path fill-rule="evenodd" clip-rule="evenodd" d="M38.7946 21.2368C41.6728 22.5912 40.8263 17.8507 40.4877 17.5121C39.9797 16.8349 38.7946 17.0042 38.6253 18.02C38.456 18.8665 38.6253 20.5596 38.7946 21.2368Z" fill="#333333"/>
<path fill-rule="evenodd" clip-rule="evenodd" d="M40.6604 34.1039C40.8297 33.5959 40.8297 31.5643 40.6604 31.0564C40.4911 30.0405 39.1367 30.0406 38.7981 30.7178C38.4595 31.2257 38.4595 33.2573 38.6288 33.9345C38.7981 34.9504 40.1525 35.1197 40.4911 34.2732L40.6604 34.1039Z" fill="#333333"/>
<path fill-rule="evenodd" clip-rule="evenodd" d="M11.3694 69.9965C11.3694 71.351 11.0308 73.3826 12.7239 72.8747C13.5704 72.7054 13.5704 71.6896 13.5704 70.6738C13.5704 69.8272 13.7397 68.8114 12.8932 68.4728C11.708 67.9649 11.3694 68.8114 11.3694 69.8272V69.9965Z" fill="#333333"/>
<path fill-rule="evenodd" clip-rule="evenodd" d="M29.8228 27.1624C29.9921 28.1782 31.5158 28.3475 31.8544 27.501C32.0237 27.1624 32.0237 24.7921 31.8544 24.4535C31.6851 23.4377 30.3307 23.4377 29.9921 24.2842C29.8228 24.6228 29.8228 26.8237 29.8228 27.3317V27.1624Z" fill="#333333"/>
<path fill-rule="evenodd" clip-rule="evenodd" d="M37.9492 72.3666C38.1185 72.028 38.1185 69.8271 37.9492 69.3191C37.6106 68.3033 36.2561 68.3033 35.9175 69.1498C35.7482 69.4885 35.7482 71.8587 35.9175 72.3666C36.2561 73.2131 37.4412 73.3824 37.7799 72.3666H37.9492Z" fill="#333333"/>
<path fill-rule="evenodd" clip-rule="evenodd" d="M44.7218 63.5629C44.7218 64.5787 44.5525 67.2876 46.4148 66.2718C47.092 65.9332 46.9227 64.5787 46.9227 63.7322C46.9227 61.3619 44.7218 61.5312 44.7218 63.5629Z" fill="#333333"/>
<path fill-rule="evenodd" clip-rule="evenodd" d="M40.3203 50.5264V51.8809C40.3203 53.9125 42.5213 54.0818 42.5213 51.7115C42.5213 50.3571 42.6906 48.8334 41.5054 48.8334C40.4896 48.8334 40.4896 49.5106 40.4896 50.3571L40.3203 50.5264Z" fill="#333333"/>
<path fill-rule="evenodd" clip-rule="evenodd" d="M34.9039 17.1734C34.0574 17.512 34.2267 18.6971 34.2267 19.7129C34.2267 20.7288 34.396 21.9139 35.7504 21.406C36.597 21.0674 36.9356 16.3269 34.9039 17.1734Z" fill="#333333"/>
<path fill-rule="evenodd" clip-rule="evenodd" d="M29.9941 33.7653C30.1634 34.7811 31.6872 34.9504 32.0258 34.1039C32.1951 33.7653 32.1951 31.395 32.0258 31.0564C31.8565 30.0406 30.5021 30.0406 30.1634 30.8871C29.9941 31.2257 29.9941 33.2573 29.9941 33.9346V33.7653Z" fill="#333333"/>
<path fill-rule="evenodd" clip-rule="evenodd" d="M15.6011 70.1657V71.5201C15.6011 73.5518 17.802 73.3825 17.802 71.5201C17.802 69.9964 18.1406 68.4727 16.7862 68.4727C15.7704 68.4727 15.7704 69.1499 15.7704 69.9964L15.6011 70.1657Z" fill="#333333"/>
<path fill-rule="evenodd" clip-rule="evenodd" d="M20.002 69.9964V71.5201C20.002 73.3825 22.2029 73.5518 22.2029 71.3508V69.9964C22.2029 68.1341 20.002 67.7955 20.002 69.9964Z" fill="#333333"/>
<path fill-rule="evenodd" clip-rule="evenodd" d="M40.3203 63.5628V64.9172C40.3203 66.9489 42.5213 67.1182 42.5213 64.9172C42.5213 63.5628 42.6906 62.0391 41.5054 62.0391C40.6589 62.0391 40.4896 62.7163 40.4896 63.5628H40.3203Z" fill="#333333"/>
<path fill-rule="evenodd" clip-rule="evenodd" d="M35.9177 63.5628C35.9177 65.2558 35.7484 65.4251 36.4257 66.441C38.4573 66.6103 38.1187 65.5945 38.1187 63.7321C38.1187 62.8856 38.1187 62.2084 37.1029 62.0391C36.087 62.0391 35.9177 62.547 35.9177 63.5628Z" fill="#333333"/>
<path fill-rule="evenodd" clip-rule="evenodd" d="M59.7886 24.9615V26.6545C59.7886 28.3476 61.9895 28.6862 61.9895 26.4852V25.1308C61.9895 22.9298 59.7886 23.0991 59.7886 24.9615Z" fill="#333333"/>
<path fill-rule="evenodd" clip-rule="evenodd" d="M35.9185 56.96C35.9185 58.4838 35.5799 60.0075 36.9343 60.0075C38.2887 60.0075 37.9501 58.6531 37.9501 56.96C37.9501 55.0977 35.9185 54.9284 35.9185 56.96Z" fill="#333333"/>
<path fill-rule="evenodd" clip-rule="evenodd" d="M50.9869 25.1308C50.9869 26.4853 50.8176 28.009 52.0027 28.009C53.3571 28.009 53.1878 26.4853 53.1878 25.1308C53.1878 22.9299 51.1562 23.0992 51.1562 25.1308H50.9869Z" fill="#333333"/>
<path fill-rule="evenodd" clip-rule="evenodd" d="M40.3203 44.0928V45.4472C40.3203 47.3096 42.5213 47.6482 42.5213 45.2779V44.0928C42.5213 41.8918 40.3203 41.8918 40.3203 44.0928Z" fill="#333333"/>
<path fill-rule="evenodd" clip-rule="evenodd" d="M60.9771 70.1658V71.3509C60.9771 73.3826 63.178 73.7212 63.178 71.3509V69.9965C63.178 67.9648 60.9771 67.7955 60.9771 70.1658Z" fill="#333333"/>
<path fill-rule="evenodd" clip-rule="evenodd" d="M29.8236 18.6972C29.8236 20.0516 29.485 21.5753 31.0087 21.5753C32.3631 21.5753 32.0245 20.2209 32.0245 18.5279C32.0245 16.4962 29.9929 16.4962 29.9929 18.6972H29.8236Z" fill="#333333"/>
<path fill-rule="evenodd" clip-rule="evenodd" d="M35.9188 50.3572C35.9188 51.8809 35.5802 53.4047 37.1039 53.4047C38.289 53.4047 38.1197 52.0502 38.1197 50.5265C38.1197 48.4948 36.0881 48.3255 36.0881 50.3572H35.9188Z" fill="#333333"/>
<path fill-rule="evenodd" clip-rule="evenodd" d="M65.376 69.9964V71.3508C65.376 73.3825 67.5769 73.7211 67.5769 71.3508V69.9964C67.5769 67.9647 65.376 67.9647 65.376 69.9964Z" fill="#333333"/>
<path fill-rule="evenodd" clip-rule="evenodd" d="M40.3203 57.2985V58.4837C40.3203 60.5153 42.5213 60.5153 42.5213 58.4837V57.1292C42.5213 54.9283 40.3203 54.9283 40.3203 57.2985Z" fill="#333333"/>
<path fill-rule="evenodd" clip-rule="evenodd" d="M56.7432 70.1658V71.3509C56.7432 73.3826 58.7748 73.5519 58.7748 71.3509V69.9965C58.7748 67.9648 56.7432 67.7955 56.7432 70.1658Z" fill="#333333"/>
</svg>
