<svg width="44" height="56" viewBox="0 0 44 56" fill="none" xmlns="http://www.w3.org/2000/svg">
<path fill-rule="evenodd" clip-rule="evenodd" d="M7.81818 36.0909C8 36.0909 8.36364 36.2727 8.72727 36.4545L14.3636 38.8182V53.3636C14 53.3636 13.8182 53.1818 13.6364 53C13.2727 52.8182 13.0909 52.8182 12.9091 52.6364L9.81818 51.3636C9.45455 51.1818 9.27273 51.1818 9.09091 51C8.90909 50.8182 8.54545 50.8182 8.36364 50.6364V36.0909H7.81818ZM1.45455 33.3636C1.63636 33.3636 1.81818 33.5455 2 33.5455C2.18182 33.7273 2.36364 33.7273 2.54545 33.7273C2.90909 33.9091 3.27273 34.0909 3.81818 34.2727C4.18182 34.4545 4.54545 34.6364 5.09091 34.8182C5.27273 35 6.18182 35.3636 6.36364 35.3636V49.9091C6.18182 49.9091 6 49.7273 5.81818 49.7273C5.63636 49.7273 5.45455 49.5454 5.27273 49.5454L2.90909 48.4545C2.54545 48.2727 2 48.0909 1.63636 47.9091V33.3636H1.45455ZM7.81818 16.4545C8 16.6364 8.36364 16.6364 8.54545 16.8182C8.90909 17 9.09091 17 9.27273 17.1818L14 19.1818V33.7273C13.4545 33.5455 8 31.1818 7.63636 31V16.4545H7.81818ZM1.45455 13.7273L5.09091 15.1818C5.27273 15.3636 6.18182 15.7273 6.36364 15.7273V30.2727C6 30.0909 5.63636 29.9091 5.27273 29.7273L1.63636 28.2727V13.7273H1.45455ZM42.3636 28.8182V30.2727C42.3636 30.4545 42.3636 30.6364 42.3636 30.8182V31.5455C42.3636 31.7273 42.3636 31.9091 42.3636 32.0909V32.8182C42.3636 33 42.3636 33.1818 42.3636 33.3636V34.0909C42.3636 34.2727 42.3636 34.4545 42.3636 34.6364V35.3636C42.3636 35.5455 42.3636 35.7273 42.3636 35.9091V36.6364C42.3636 36.8182 42.3636 37 42.3636 37.1818V37.9091C42.3636 38.0909 42.3636 38.2727 42.3636 38.4545V39.1818C42.3636 39.3636 42.3636 39.5454 42.3636 39.7273V40.4545C42.3636 40.6364 42.3636 40.8182 42.3636 41V41.7273C42.3636 41.9091 42.3636 42.0909 42.3636 42.2727C42.3636 42.4545 42.3636 42.4545 42.3636 42.8182L20.7273 52.0909C20.1818 52.2727 19.6364 52.6364 19.0909 52.8182C18.5455 53 18 53.3636 17.4545 53.5454C17.0909 53.7273 16.9091 53.7273 16.5455 53.9091C16.3636 54.0909 16 54.2727 15.6364 54.2727V39.7273C15.8182 39.5454 16.1818 39.5454 16.3636 39.3636L20.5455 37.5454C21.0909 37.3636 21.6364 37 22.1818 36.8182L35.4545 31.1818C36.1818 30.8182 41.8182 28.4545 42.1818 28.2727C42.1818 28.4545 42.1818 28.8182 42.1818 29C42.1818 29.3636 42.1818 29.3636 42.1818 29.7273L42.3636 28.8182ZM2.72727 32.2727C2.90909 32.0909 3.81818 31.7273 4.18182 31.5455C4.90909 31.1818 4.72727 31.3636 5.81818 31.7273L12 34.2727C12.5455 34.4545 14.7273 35.5455 15.0909 35.5455C15.2727 35.5455 16.5455 35 16.7273 34.8182L28.1818 29.9091C29.2727 29.3636 30.3636 29 31.4545 28.4545L39.2727 25.1818C39.4545 25.1818 41.2727 25.9091 41.2727 26.0909L32.9091 29.5455C29.4545 31.1818 25.6364 32.6364 22 34.0909L16 36.6364C14.7273 37.1818 15.2727 37.1818 14.1818 36.8182L12.3636 36.0909C11.6364 35.7273 10.7273 35.3636 10 35L3.45455 32.0909C3.27273 32.0909 3.09091 31.9091 2.72727 31.9091V32.2727ZM42.3636 9.72727V11.1818C42.3636 11.3636 42.3636 11.5455 42.3636 11.7273V12.4545C42.3636 12.6364 42.3636 12.8182 42.3636 13V13.7273C42.3636 13.9091 42.3636 14.0909 42.3636 14.2727V15C42.3636 15.1818 42.3636 15.3636 42.3636 15.5455V16.2727C42.3636 16.4545 42.3636 16.6364 42.3636 16.8182V17.5455C42.3636 17.7273 42.3636 17.9091 42.3636 18.0909V18.8182C42.3636 19 42.3636 19.1818 42.3636 19.3636V20.0909C42.3636 20.2727 42.3636 20.4545 42.3636 20.6364V21.3636C42.3636 21.5455 42.3636 21.7273 42.3636 21.9091V22.8182C42.3636 23.3636 42 23.3636 40.9091 23.7273L25.8182 30.0909C24.7273 30.6364 23.6364 31 22.3636 31.5455L15.6364 34.4545V19.9091C16.3636 19.5455 19.6364 18.2727 20.5455 17.7273C23.8182 16.2727 27.2727 15 30.5455 13.5455L42.3636 8.63636V9.54545C42.3636 9.72727 42.3636 9.90909 42.3636 10.0909C42.3636 10.2727 42.3636 10.2727 42.3636 10.6364V9.72727ZM2.72727 12.6364V12.4545C2.90909 12.4545 3.27273 12.2727 3.63636 12.0909L12.7273 8.27273C13.2727 8.09091 13.8182 7.72727 14.3636 7.54545L19.2727 5.36364C19.2727 5.36364 28.9091 1.18182 29.2727 1.18182C29.4545 1.18182 39.0909 5.36364 40 5.72727C40.1818 5.90909 40.5455 5.90909 40.7273 6.09091C40.9091 6.09091 40.9091 6.27273 41.0909 6.27273C41.2727 6.27273 41.2727 6.27273 41.4545 6.45455L40.1818 7C37.4545 8.27273 34.5455 9.36364 31.8182 10.6364L27.0909 12.6364C25.4545 13.3636 24 13.9091 22.3636 14.6364L15.8182 17.3636C15.0909 17.7273 15.2727 17.5455 14 17L3.81818 12.6364C3.63636 12.6364 3.45455 12.4545 3.09091 12.4545L2.72727 12.6364ZM0 12.6364V28.6364C0 29.5455 0.909091 29.7273 2 30.0909C2.36364 30.2727 2.72727 30.2727 2.72727 30.4545C2.36364 30.4545 2.18182 30.6364 2 30.8182C0.909091 31.1818 0 31.3636 0 32.2727V48.2727C0 49 0.727273 49.1818 1.45455 49.5454C2.18182 49.9091 2.72727 50.0909 3.45455 50.4545L14 55C15.2727 55.5454 14.9091 55.5454 16.9091 54.6364L43.0909 43.5454C43.6364 43.3636 44 43.1818 44 42.4545V26.6364C44 25.7273 43.6364 25.7273 42.9091 25.5455L41.2727 24.8182C41.4545 24.6364 41.4545 24.6364 41.6364 24.6364C41.8182 24.6364 41.8182 24.4545 42 24.4545C43.2727 23.9091 44 23.9091 44 23V7.18182C44 6.45455 43.2727 6.27273 42.5455 5.90909L40.5455 5C37.4545 3.72727 34.1818 2.09091 31.0909 0.818182C28.7273 -0.272727 29.6364 -0.272727 27.2727 0.818182L10.7273 7.90909C10 8.27273 9.45455 8.45454 8.90909 8.63636L7.09091 9.36364C6.36364 9.54545 5.81818 9.90909 5.27273 10.0909L1.09091 11.9091C0.727273 12.0909 0.181818 12.2727 0.181818 13L0 12.6364Z" fill="#1A1A1A"/>
<path fill-rule="evenodd" clip-rule="evenodd" d="M17.8184 19.9092V30.8183C17.8184 31.9092 19.2729 31.7274 19.2729 31.0001V19.9092C19.2729 19.0001 17.8184 19.0001 17.8184 19.9092Z" fill="#1A1A1A"/>
<path fill-rule="evenodd" clip-rule="evenodd" d="M17.8184 39.364V50.2731C17.8184 51.364 19.2729 51.1822 19.2729 50.4549V39.364C19.2729 39.1822 19.0911 39.0003 19.0911 38.8185C18.5456 38.2731 17.8184 38.8185 17.8184 39.364Z" fill="#1A1A1A"/>
<path fill-rule="evenodd" clip-rule="evenodd" d="M28.5449 15.5457V26.4548C28.5449 27.3639 29.9995 27.3639 29.9995 26.4548V15.5457C29.9995 14.4548 28.5449 14.4548 28.5449 15.5457Z" fill="#1A1A1A"/>
<path fill-rule="evenodd" clip-rule="evenodd" d="M25.0898 36.4548V47.3639C25.0898 48.2729 26.5444 48.2729 26.5444 47.3639V36.2729C26.5444 35.3639 25.0898 35.3639 25.0898 36.2729V36.4548Z" fill="#1A1A1A"/>
<path fill-rule="evenodd" clip-rule="evenodd" d="M21.4551 18.4547V29.5456C21.4551 30.4547 22.9096 30.6365 22.9096 29.5456V18.6365C22.9096 17.7274 21.4551 17.7274 21.4551 18.6365V18.4547Z" fill="#1A1A1A"/>
<path fill-rule="evenodd" clip-rule="evenodd" d="M28.5449 35.0004V45.9095C28.5449 46.8186 29.9995 46.8186 29.9995 45.9095V34.8186C29.9995 33.9095 28.5449 33.7277 28.5449 34.8186V35.0004Z" fill="#1A1A1A"/>
<path fill-rule="evenodd" clip-rule="evenodd" d="M21.4551 37.9091V48.8182C21.4551 49.9091 22.9096 49.9091 22.9096 48.8182V37.9091C22.9096 37 21.4551 37 21.4551 37.9091Z" fill="#1A1A1A"/>
<path fill-rule="evenodd" clip-rule="evenodd" d="M32.1816 33.3637V44.4546C32.1816 44.8183 32.5453 45.1819 32.9089 45.1819C33.2725 45.1819 33.6362 44.8183 33.6362 44.2728V33.3637C33.6362 32.2728 32.1816 32.4546 32.1816 33.1819V33.3637Z" fill="#1A1A1A"/>
<path fill-rule="evenodd" clip-rule="evenodd" d="M32.1816 13.9092V25.0001C32.1816 25.9092 33.6362 26.091 33.6362 24.8183V13.9092C33.6362 12.8183 32.1816 13.0001 32.1816 13.7274V13.9092Z" fill="#1A1A1A"/>
<path fill-rule="evenodd" clip-rule="evenodd" d="M39.2734 30.4546V41.5455C39.2734 42.4546 40.728 42.4546 40.728 41.5455V30.6364C40.728 29.5455 39.2734 29.5455 39.2734 30.4546Z" fill="#1A1A1A"/>
<path fill-rule="evenodd" clip-rule="evenodd" d="M39.2734 10.8185V21.9094C39.2734 22.8185 40.728 22.8185 40.728 21.9094V11.0003C40.728 10.273 40.0007 9.9094 39.4553 10.4549C39.2734 10.6367 39.2734 10.8185 39.2734 11.0003V10.8185Z" fill="#1A1A1A"/>
<path fill-rule="evenodd" clip-rule="evenodd" d="M25.0898 17.0002V27.9093C25.0898 28.8184 26.5444 28.8184 26.5444 27.9093V16.8184C26.5444 16.2729 25.8171 15.7274 25.2717 16.2729C25.0898 16.4547 25.0898 16.6365 25.0898 16.8184V17.0002Z" fill="#1A1A1A"/>
<path fill-rule="evenodd" clip-rule="evenodd" d="M35.8203 12.4546V23.5456C35.8203 24.4546 37.2749 24.4546 37.2749 23.3637V12.4546C37.2749 11.3637 35.8203 11.3637 35.8203 12.2728V12.4546Z" fill="#1A1A1A"/>
<path fill-rule="evenodd" clip-rule="evenodd" d="M35.8203 31.9095V43.0004C35.8203 43.364 36.1839 43.7276 36.5476 43.7276C36.9112 43.7276 37.2749 43.364 37.2749 43.0004V32.0913C37.2749 31.0004 35.8203 31.1822 35.8203 31.9095Z" fill="#1A1A1A"/>
<path fill-rule="evenodd" clip-rule="evenodd" d="M8.36328 23.0002V25.182C8.36328 26.0911 8.72692 26.273 9.27237 26.273C9.63601 26.273 9.99964 25.9093 9.99964 25.3639V22.8184C9.99964 21.7275 8.90874 21.7275 8.5451 22.273C8.36328 22.4548 8.36328 22.8184 8.36328 23.0002Z" fill="#1A1A1A"/>
<path fill-rule="evenodd" clip-rule="evenodd" d="M8.36328 42.2731V44.6367C8.36328 45.5458 8.72692 45.7276 9.27237 45.7276C9.63601 45.7276 9.99964 45.364 9.99964 44.8185V42.2731C9.99964 41.0004 8.36328 41.0004 8.36328 42.2731Z" fill="#1A1A1A"/>
<path fill-rule="evenodd" clip-rule="evenodd" d="M4.36523 41.0001V43.9092C4.36523 44.8183 5.81978 44.8183 5.81978 43.7274V40.8183C5.81978 40.2729 5.09251 39.7274 4.54705 40.2729C4.36523 40.4547 4.36523 40.6365 4.36523 40.8183V41.0001Z" fill="#1A1A1A"/>
<path fill-rule="evenodd" clip-rule="evenodd" d="M4.36523 21.5456V24.4546C4.36523 25.3637 5.81978 25.3637 5.81978 24.2728V21.3637C5.81978 20.8183 5.09251 20.2728 4.54705 20.8183C4.36523 21.0001 4.36523 21.1819 4.36523 21.3637V21.5456Z" fill="#1A1A1A"/>
</svg>
