<svg width="80" height="80" viewBox="0 0 80 80" fill="none" xmlns="http://www.w3.org/2000/svg">
<g clip-path="url(#clip0_30_4575)">
<path fill-rule="evenodd" clip-rule="evenodd" d="M67.3461 61.9954H74.8252V73.2183H67.3461V61.9954ZM0 58.6006V58.0159C0.052362 57.2479 0.331592 56.4799 0.837757 55.8167C1.28283 55.232 1.86756 54.9963 2.49591 54.6647C2.49591 50.9732 2.49591 47.2817 2.49591 43.5989C2.49591 37.682 1.02105 29.9848 8.39536 27.515C11.0047 26.6423 15.4904 27.07 18.8678 27.07C19.2343 26.3805 19.4873 25.7958 20.1069 25.3507C21.9483 24.0417 24.514 24.3646 25.6573 26.3631C26.1809 27.2881 25.6923 27.07 28.6856 27.07C28.6856 24.033 32.0455 24.574 33.6774 24.574C33.6774 22.7937 33.1276 19.5822 36.1733 19.5822V12.0944H30.8761C28.9649 12.0944 27.4463 10.4538 27.4463 8.04513C27.4463 6.291 29.122 4.61542 30.8761 4.61542H48.9584C50.6776 4.61542 52.3881 6.33463 52.3881 8.04513C52.3881 10.4363 50.9569 12.0944 48.9584 12.0944H43.6611V19.5822C44.525 19.5822 44.8916 19.8091 45.3454 20.2367C46.4799 21.3102 46.1571 22.3836 46.1571 24.574C48.0857 24.574 51.1489 24.0853 51.1489 27.07C54.3168 27.07 53.6623 27.2707 54.2208 26.2409C55.1721 24.4868 57.9123 23.9544 59.8235 25.4118C60.4082 25.8569 60.6439 26.4416 60.9755 27.07C63.7943 27.07 69.2225 26.7645 71.5613 27.5587C74.1183 28.4226 76.0644 30.4473 76.9371 33.0916C77.5043 34.8021 77.3473 36.146 77.3473 38.3016V54.6734C78.2026 55.1272 78.4993 55.1098 79.0665 55.9127C79.4156 56.4014 79.8432 57.0995 79.8432 57.9461C79.8432 61.6987 77.3473 61.2536 77.3473 62.1525V73.2183H78.9094C79.9741 73.2183 80.4105 75.7142 78.5952 75.7142H1.26537C0.698117 75.7142 0.0173645 75.2866 0.0173645 74.7804C0.0173645 72.9739 0.794161 73.2183 2.51338 73.2183V62.1525C2.51338 61.6812 2.09444 61.6376 1.70172 61.402C0.671936 60.7998 0.104634 59.7438 0.0173645 58.6093L0 58.6006ZM4.99181 61.9954H12.4708V73.2183H4.99181V61.9954ZM64.859 58.2515C64.859 57.6319 65.5658 57.0035 66.264 57.0035H75.6193C78.0454 57.0035 77.6004 59.4995 75.9336 59.4995H66.264C65.5658 59.4995 64.859 58.8711 64.859 58.2515ZM2.49591 58.2515C2.49591 57.6319 3.20278 57.0035 3.90094 57.0035H13.2563C15.6824 57.0035 15.2285 59.4995 13.5704 59.4995H3.90094C3.20278 59.4995 2.49591 58.8711 2.49591 58.2515ZM14.9667 54.3505V39.5408C21.1541 39.5408 17.9078 39.4623 19.9237 41.1292C21.6953 42.5866 24.4617 42.2811 25.5962 40.3524C26.1897 39.3314 25.5963 39.5408 28.6856 39.5408C28.6856 41.0332 29.9598 42.0368 30.8674 42.0368H48.9497C49.8573 42.0368 51.1314 41.0332 51.1314 39.5408C55.4775 39.5408 53.0339 39.5147 54.8317 41.1466C56.132 42.3335 58.305 42.3509 59.806 41.199C61.979 39.5408 58.5319 39.5408 64.8502 39.5408V54.3505C64.8502 55.2931 62.3543 54.8131 62.3543 58.557C62.3543 59.386 62.7994 60.1714 63.1921 60.6776C65.2342 63.3568 64.8502 57.3439 64.8502 73.2096H14.9581V62.1437C14.9581 61.2012 17.454 61.7685 17.454 57.9373C17.454 55.3192 14.9581 55.04 14.9581 54.3505H14.9667ZM31.1815 27.07H48.6442V39.5408H31.1815V27.07ZM56.1232 38.1358V28.4663C56.1232 26.7994 58.6191 26.3456 58.6191 28.7805V38.1358C58.6191 39.9336 56.1232 39.8899 56.1232 38.1358ZM21.1978 38.1358V28.7805C21.1978 26.4242 23.6937 26.8431 23.6937 28.4663V37.8216C23.6937 40.1779 21.1978 39.759 21.1978 38.1358ZM61.1063 29.5572H68.1228C72.05 29.5572 74.8252 32.2276 74.8252 36.1024V54.4989H67.3461V39.375C67.3461 37.97 65.9585 37.0362 65.1644 37.0362H61.1063V29.5572ZM51.1314 29.5572H53.6273V37.0362H51.1314V29.5572ZM26.1897 29.5572H28.6856V37.0362H26.1897V29.5572ZM12.4708 39.2267V54.5076H4.99181V36.5824C4.99181 35.4392 5.14018 34.4006 5.4369 33.5978C5.69871 32.8909 6.30957 31.9222 6.82446 31.3986C8.1946 30.0284 10.0186 29.5659 12.0084 29.5659H18.7106V37.0449H14.6525C13.6839 37.0449 12.4708 38.258 12.4708 39.2267ZM36.1646 22.0781H43.6523V24.574H36.1646V22.0781ZM38.6605 12.1032H41.1564V19.5909H38.6605V12.1032ZM29.9335 8.3593C29.9335 7.74841 30.6404 7.11134 31.3386 7.11134H48.173C50.5991 7.11134 50.1452 9.60726 48.4871 9.60726H31.6527C30.78 9.60726 29.9335 9.14473 29.9335 8.3593Z" fill="#333333"/>
<path fill-rule="evenodd" clip-rule="evenodd" d="M33.6689 36.9338C33.6689 37.5185 33.7823 38.4959 34.6027 38.4959H41.1479C42.9195 38.4959 42.6229 36 41.4622 36H34.6027C34.2274 36 33.6689 36.5585 33.6689 36.9338Z" fill="#333333"/>
<path fill-rule="evenodd" clip-rule="evenodd" d="M38.6611 49.405C38.6611 51.6042 41.157 51.3511 41.157 49.7192C41.157 47.9476 38.6611 48.2443 38.6611 49.405Z" fill="#333333"/>
<path fill-rule="evenodd" clip-rule="evenodd" d="M43.6523 36.934C43.6523 39.2292 46.1484 38.7754 46.1484 37.2482C46.1484 35.433 43.6523 35.8694 43.6523 36.934Z" fill="#333333"/>
<path fill-rule="evenodd" clip-rule="evenodd" d="M43.6523 49.405C43.6523 51.7002 46.1484 51.2464 46.1484 49.7192C46.1484 47.9039 43.6523 48.3403 43.6523 49.405Z" fill="#333333"/>
<path fill-rule="evenodd" clip-rule="evenodd" d="M33.6689 49.405C33.6689 51.5867 36.1649 51.4994 36.1649 49.405C36.1649 48.2006 33.6689 48.2006 33.6689 49.405Z" fill="#333333"/>
</g>
<defs>
<clipPath id="clip0_30_4575">
<rect width="80" height="80" fill="white"/>
</clipPath>
</defs>
</svg>
