<svg width="49" height="45" viewBox="0 0 49 45" fill="none" xmlns="http://www.w3.org/2000/svg">
<path fill-rule="evenodd" clip-rule="evenodd" d="M25.8527 29.1132H32.4684V33.035C32.4518 36.011 32.5237 39.435 32.4518 42.3335H25.8583C25.8085 38.124 25.9025 33.7818 25.8527 29.5834L25.8583 29.1077L25.8527 29.1132ZM37.408 29.1132H44.0292V34.075L37.4136 34.0584L37.4025 29.1132H37.408ZM12.5163 20.4509C16.8032 18.62 21.1897 16.6397 25.471 14.8364C26.9922 14.1948 27.5011 14.145 27.5011 12.2256C27.5011 11.4235 27.4624 8.15438 27.5177 7.63995C28.9006 8.41989 30.2613 9.30493 31.6608 10.1512L40.9261 15.7768C41.4571 16.0755 43.7416 17.5303 44.0292 17.6298V27.4704C41.966 27.4316 39.8751 27.4759 37.8063 27.4704C36.971 27.4704 36.1634 27.6197 35.8481 28.6098C35.6988 29.08 35.7707 30.9773 35.7707 31.6079C35.7707 33.8426 35.2784 35.74 37.8671 35.7344C39.9248 35.7289 41.977 35.7344 44.0348 35.7344L44.0292 42.3501H34.1279C34.0228 40.8123 34.1168 38.9316 34.1168 37.3551V29.8821C34.1168 27.7691 33.5913 27.4593 31.6 27.4648H26.5995C24.4588 27.4648 24.1988 28.0512 24.1988 29.9927V37.4105C24.1988 38.9648 24.2928 40.8289 24.1877 42.3446L6.01678 42.3501L6.01124 23.2554L12.5218 20.4564L12.5163 20.4509ZM2.70341 19.8148C2.80851 19.6544 2.87488 19.6599 3.07401 19.5769L4.15817 19.1123C7.4826 17.6354 10.9951 16.2027 14.2587 14.7258C16.1726 13.8573 18.1252 13.1051 20.0336 12.2256L25.8416 9.71979V12.8783C25.4268 13 24.8349 13.3042 24.4035 13.4923L14.2974 17.8732C14.0485 17.9838 3.19018 22.7188 2.69788 22.8737V19.8148H2.70341ZM39.0675 2.66713H42.3808L42.3864 9.73638C42.0545 9.61469 41.7779 9.3879 41.5013 9.22195L39.0675 7.74504V2.67266V2.66713ZM25.8693 1.66593C26.2897 1.89272 26.7654 2.20802 27.2024 2.47906C27.6449 2.75563 28.0875 3.03221 28.5632 3.30325C30.2724 4.29339 32.225 5.53245 33.9287 6.5613L43.3378 12.2753C44.5271 13.0055 46.2197 14.0731 47.3426 14.6981V17.7017C47.1213 17.6409 45.0359 16.3244 44.6432 16.0865C43.3267 15.2955 41.1141 14.0122 39.9138 13.2268C38.9126 12.5685 37.7122 11.9213 36.5893 11.2078C34.8193 10.0793 33.0049 9.05601 31.2293 7.94418C30.7757 7.66207 30.3498 7.40762 29.8686 7.11999C29.4095 6.83788 29.0112 6.60003 28.541 6.32345C28.0819 6.04688 27.6394 5.79243 27.1748 5.50479C26.7544 5.23928 26.2676 4.89632 25.8472 4.70825L25.8693 1.67699V1.66593ZM44.0182 2.67266C44.7262 2.645 45.3125 2.77223 45.6002 2.19695C45.9099 1.57743 45.4066 1.063 44.8811 1.01874H36.6004C35.9864 1.0464 35.566 1.60508 35.8592 2.21908C36.1192 2.7667 36.7055 2.66713 37.4191 2.66713V6.72725C37.0595 6.5613 36.6225 6.2792 36.2796 6.05241L26.4169 0.106047C25.3715 -0.281157 24.409 0.454532 24.232 1.30085C24.1324 1.79869 24.1601 4.13851 24.1988 4.74697C24.2597 5.71499 25.0562 6.21835 25.8583 6.59449L25.8251 8.0714C25.1226 8.12119 23.9278 8.75178 23.2695 9.02282L15.9237 12.1924C15.9237 11.5397 15.9624 10.7431 15.9237 10.107C15.8518 9.02282 14.5242 9.06154 14.3085 9.89126C14.2476 10.1347 14.2808 12.5519 14.2808 12.917L12.6158 13.6306C12.6546 10.992 12.5993 8.35904 12.6158 5.73158C12.6214 5.25587 12.6878 4.93504 12.4057 4.61975C12.2065 4.40402 11.8691 4.22701 11.4598 4.39849C10.7738 4.6806 10.9675 5.6818 10.9675 6.53918C10.9675 7.89439 10.9121 13.5033 10.9841 14.3828C10.4254 14.5267 9.47948 15.0079 8.87655 15.2734C7.69834 15.7934 2.00644 18.1498 1.6303 18.4872C0.734199 19.3003 1.055 20.8215 1.04947 22.409C1.04947 23.5043 1.28182 24.063 2.04516 24.417C2.92467 24.8208 3.62163 24.251 4.35179 23.9966L4.34625 42.3556C3.73226 42.339 3.11271 42.3501 2.49872 42.3501C1.86813 42.3501 1.40904 42.2892 1.14353 42.7816C0.861421 43.3015 1.22095 43.8547 1.64688 43.9653C2.06174 44.0704 36.5617 43.9985 39.4657 43.9985C40.2346 43.9985 48.1225 44.0704 48.4655 43.9432C48.8416 43.7993 49.1791 43.213 48.8582 42.7373C48.554 42.2837 48.1004 42.3501 47.4587 42.3501C46.8669 42.3556 46.275 42.3501 45.6776 42.3501L45.6942 18.6863C46.4299 19.0846 47.1269 19.7318 48.1391 19.1786C49.0629 18.6753 48.9799 17.7902 48.9799 16.778C48.9799 16.0976 49.0242 15.2734 48.9744 14.6096C48.9246 13.9127 48.565 13.531 48.117 13.2544L44.0237 10.7818L44.0182 2.68926V2.67266Z" fill="#333333"/>
<path fill-rule="evenodd" clip-rule="evenodd" d="M8.72697 29.6751L20.2767 29.6807L20.2712 34.6314L8.69932 34.6369L8.73251 29.6751H8.72697ZM8.46701 28.0434C6.56971 28.3476 7.05095 30.6266 7.05648 32.3911C7.06202 34.211 6.59737 36.2908 8.95932 36.2853C9.80564 36.2853 19.9559 36.3461 20.4869 36.2632C22.3953 35.9811 21.9251 33.7242 21.9251 31.9265C21.9251 31.2903 22.0081 29.6032 21.8311 29.1165C21.5269 28.2701 20.8465 28.0157 20.0002 28.0212C19.176 28.0268 8.94826 27.9604 8.47255 28.0378L8.46701 28.0434Z" fill="#333333"/>
<path fill-rule="evenodd" clip-rule="evenodd" d="M26.9439 17.7014C29.079 17.2423 29.7649 20.4008 27.7017 20.9041C25.5333 21.4352 24.8032 18.1605 26.9439 17.7014ZM26.883 16.0364C24.9746 16.3296 23.7798 17.9669 24.0288 19.7536C24.2556 21.3909 25.7988 22.8789 27.757 22.5747C29.422 22.3147 30.8546 20.8101 30.567 18.8464C30.3291 17.2091 28.7859 15.7488 26.8775 16.0364H26.883Z" fill="#333333"/>
<path fill-rule="evenodd" clip-rule="evenodd" d="M37.4704 38.3788C36.7402 38.6609 36.9559 39.3966 36.9393 40.348C36.9338 40.7463 36.9338 41.1114 37.1551 41.3437C37.3431 41.5373 37.7248 41.6977 38.0899 41.5483C38.7592 41.2718 38.5877 40.3314 38.5877 39.6013C38.5877 39.1698 38.6209 38.9043 38.3941 38.6111C38.2005 38.3567 37.8797 38.2239 37.4648 38.3843L37.4704 38.3788Z" fill="#333333"/>
<path fill-rule="evenodd" clip-rule="evenodd" d="M12.677 38.3733C11.98 38.6333 12.1515 39.4907 12.1515 40.2872C12.1515 40.6855 12.1238 41.0671 12.334 41.3326C12.5 41.5428 12.9037 41.6867 13.2633 41.5594C13.9603 41.305 13.7943 40.4974 13.7999 39.6566C13.7999 39.2583 13.8496 38.9043 13.6118 38.6167C13.4016 38.3622 13.0974 38.2129 12.677 38.3733Z" fill="#333333"/>
<path fill-rule="evenodd" clip-rule="evenodd" d="M20.9404 38.3622C20.2434 38.6056 20.4149 39.474 20.4093 40.2872C20.4093 40.702 20.3706 41.0339 20.5864 41.2994C20.7855 41.5373 21.1008 41.6922 21.4935 41.5649C22.2347 41.3271 22.0522 40.4697 22.0522 39.6566C22.0522 39.2417 22.1131 38.9043 21.8807 38.6166C21.6871 38.3733 21.311 38.2294 20.9348 38.3622H20.9404Z" fill="#333333"/>
<path fill-rule="evenodd" clip-rule="evenodd" d="M30.1014 35.0377C29.338 35.2866 29.4984 36.0887 29.4984 36.8963C29.4984 37.2724 29.4431 37.6983 29.6589 37.9749C29.8248 38.1962 30.1788 38.3953 30.5992 38.257C31.3128 38.0192 31.1468 37.1618 31.1524 36.3818C31.1524 35.9946 31.1745 35.6019 30.9864 35.3253C30.8426 35.1096 30.4775 34.916 30.1069 35.0377H30.1014Z" fill="#333333"/>
<path fill-rule="evenodd" clip-rule="evenodd" d="M16.8151 38.3733C16.096 38.672 16.2785 39.4187 16.2785 40.2872C16.2785 40.7242 16.2287 41.0339 16.4887 41.316C16.6878 41.5373 17.0418 41.6866 17.4069 41.5539C18.1094 41.2994 17.9269 40.4752 17.9269 39.651C17.9269 39.2141 18.0044 38.9375 17.7388 38.6222C17.5286 38.3733 17.2465 38.1852 16.8151 38.3677V38.3733Z" fill="#333333"/>
<path fill-rule="evenodd" clip-rule="evenodd" d="M8.53574 38.3733C7.8277 38.6499 8.02684 39.4741 8.01577 40.2872C8.01024 40.691 8.01022 41.0561 8.20383 41.316C8.36977 41.5318 8.75146 41.7033 9.12207 41.5594C9.82457 41.2829 9.65862 40.4365 9.66415 39.6566C9.66415 39.2749 9.71945 38.8767 9.4816 38.6056C9.29353 38.3954 8.91741 38.2239 8.53574 38.3733Z" fill="#333333"/>
<path fill-rule="evenodd" clip-rule="evenodd" d="M41.5925 38.3732C40.9011 38.6442 41.0836 39.5071 41.0725 40.2871C41.067 40.6964 41.0504 41.0504 41.255 41.3215C41.4265 41.5427 41.8082 41.6866 42.1788 41.5538C42.8647 41.3049 42.7209 40.3977 42.7209 39.6565C42.7209 39.2693 42.7375 38.871 42.5328 38.611C42.3613 38.3953 41.9631 38.2238 41.5925 38.3732Z" fill="#333333"/>
</svg>
