<svg width="90" height="90" viewBox="0 0 90 90" fill="none" xmlns="http://www.w3.org/2000/svg">
<g clip-path="url(#clip0_20_1172)">
<path d="M77.2294 22.3064V43.0711H80.2165V22.3064H77.2294Z" fill="white"/>
<path d="M40.0362 37.9161L42.9751 41.5776H25.3901L34.1585 30.593L40.0362 37.9161ZM44.5649 59.4035H40.1326V48.997C40.1326 48.178 39.4581 47.5035 38.639 47.5035H29.7261C28.9071 47.5035 28.2326 48.178 28.2326 48.997V59.4035H23.752V44.5646H44.5649V59.4035ZM37.1455 59.4035H31.2196V50.4905H37.1455V59.4035ZM50.539 26.7388H34.2066C33.773 26.7388 33.3394 26.9315 33.0504 27.2687L21.1504 42.1076C21.054 42.2039 21.0059 42.3003 20.9577 42.4448C20.9577 42.4448 20.9577 42.4448 20.9577 42.493C20.9095 42.6375 20.8613 42.8302 20.8613 43.023V43.0711V60.897C20.8613 61.716 21.5358 62.3905 22.3548 62.3905H60.9936V59.4035H47.6002V44.5646H68.4131V53.4776H71.4001V43.0711V43.023C71.4001 42.8302 71.3519 42.6857 71.3038 42.493C71.3038 42.493 71.3038 42.493 71.3038 42.4448C71.2556 42.3485 71.2074 42.2039 71.111 42.1076L66.6787 36.5189L64.3661 38.3979L66.9196 41.5776H46.9738L40.6143 33.6764L37.4346 29.7258H50.6835V26.7388H50.539Z" fill="white"/>
<path d="M59.4018 53.4776H56.4148V50.4906H59.4018V53.4776ZM54.9213 47.5517C54.1022 47.5517 53.4277 48.2262 53.4277 49.0452V54.9711C53.4277 55.7901 54.1022 56.4646 54.9213 56.4646H60.8472C61.6662 56.4646 62.3407 55.7901 62.3407 54.9711V49.0452C62.3407 48.2262 61.6662 47.5517 60.8472 47.5517H54.9213Z" fill="white"/>
<path d="M77.2288 67.4493V77.2294H67.4487L77.2288 67.4493ZM62.4864 79.3011C62.7272 79.8792 63.2572 80.2165 63.8353 80.2165H78.6742C79.4932 80.2165 80.1677 79.542 80.1677 78.7229V63.8841C80.1677 63.2578 79.8305 62.7278 79.2523 62.5351C78.6742 62.2942 78.0479 62.4388 77.6143 62.8724L62.7754 77.7112C62.3418 78.1448 62.2455 78.7711 62.4382 79.3492L62.4864 79.3011Z" fill="white"/>
<path d="M14.8392 62.3906V66.8711C14.8392 67.6902 15.5137 68.3646 16.3327 68.3646H20.7651V65.3776H17.7781V62.3906H14.791H14.8392Z" fill="white"/>
<path d="M20.8126 17.8259H16.3802C15.5612 17.8259 14.8867 18.5004 14.8867 19.3194V23.7999H17.8738V20.8129H20.8608V17.8259H20.8126Z" fill="white"/>
<path d="M2.98639 17.8258V8.9129C2.98639 7.27485 4.33537 5.92586 5.97342 5.92586H8.96046V65.3294H5.97342C4.91351 65.3294 3.90177 65.6185 2.98639 66.1003V17.7777V17.8258ZM0.240237 72.7488C0.336593 73.0379 0.384771 73.327 0.481128 73.5678C0.529306 73.6642 0.577484 73.7606 0.625662 73.8569C0.770196 74.0978 0.866552 74.3387 1.01109 74.5796C1.44469 75.2059 1.97465 75.784 2.64914 76.2176C2.84185 76.3622 3.08274 76.4585 3.32363 76.6031C3.41999 76.6512 3.51634 76.7476 3.66088 76.7958C3.90177 76.8921 4.19084 76.9885 4.47991 77.0367C4.57626 77.0848 4.67262 77.133 4.76897 77.133C5.1544 77.2294 5.53982 77.2776 5.97342 77.2776H46.0576V74.2905H5.97342C5.78071 74.2905 5.588 74.2905 5.39529 74.2423C5.34711 74.2423 5.25075 74.1942 5.20258 74.1942C5.10622 74.146 4.96169 74.146 4.86533 74.0978C4.76897 74.0496 4.67262 74.0014 4.57626 73.9533C4.52808 73.9051 4.43173 73.9051 4.38355 73.8569C4.23902 73.7606 4.09448 73.616 3.94995 73.4715C3.80541 73.327 3.70906 73.1824 3.56452 73.0379C3.51634 72.9415 3.46817 72.8452 3.41999 72.7488C3.37181 72.6525 3.32363 72.6043 3.27545 72.5079C3.22728 72.3634 3.1791 72.267 3.13092 72.1225C3.13092 72.0743 3.08274 72.0262 3.08274 71.9298C3.03456 71.7371 3.03456 71.5444 3.03456 71.3517C3.03456 69.7136 4.38355 68.3646 6.0216 68.3646H10.454C11.273 68.3646 11.9475 67.6901 11.9475 66.8711V14.887H63.9316V11.8999H11.9475V4.48052C11.9475 3.66149 11.273 2.987 10.454 2.987H6.0216C2.7455 2.987 0.0957031 5.63679 0.0957031 8.9129V71.3035C0.0957031 71.6889 0.143881 72.1225 0.240237 72.5079C0.240237 72.6043 0.288415 72.7006 0.336593 72.797L0.240237 72.7488Z" fill="white"/>
<path d="M69.8086 23.1736L65.9543 19.3194L81.6604 3.61333L85.5146 7.46758L69.8086 23.1736ZM61.6183 31.3639L57.764 27.5096L63.8345 21.4392L67.6887 25.2935L61.6183 31.3639ZM56.8005 34.0137L55.1143 32.3274L55.9333 29.9185L59.2094 33.1947L56.8005 34.0137ZM82.7203 0.481759C82.1421 -0.0963774 81.1786 -0.0963774 80.6004 0.481759L53.8616 27.2206C53.7171 27.3651 53.5726 27.5578 53.5244 27.7987L52.0309 32.2793C51.8381 32.8092 51.9827 33.3874 52.3681 33.821L52.8017 34.2546L49.3811 37.6752L51.5009 39.7951L54.9215 36.3744L55.3551 36.808C55.6442 37.0971 56.0296 37.2416 56.4151 37.2416C56.5596 37.2416 56.7523 37.2416 56.8968 37.1453L61.3774 35.6517C61.6183 35.5554 61.811 35.459 61.9555 35.3145L88.6944 8.57567C89.2725 7.99754 89.2725 7.03397 88.6944 6.45584L82.7685 0.529937L82.7203 0.481759Z" fill="white"/>
<path d="M86.1424 86.1423H45.1429L86.1424 45.1428V86.1423ZM88.2141 40.2287C87.636 39.9878 87.0096 40.1323 86.576 40.5659L40.5178 86.6241C40.0842 87.0577 39.9879 87.684 40.1806 88.2622C40.4215 88.8403 40.9514 89.1776 41.5296 89.1776H87.5878C88.4068 89.1776 89.0813 88.5031 89.0813 87.684V41.6258C89.0813 40.9995 88.7441 40.4695 88.1659 40.2768L88.2141 40.2287Z" fill="white"/>
</g>
<defs>
<clipPath id="clip0_20_1172">
<rect width="90" height="90" fill="white"/>
</clipPath>
</defs>
</svg>
