<svg width="52" height="55" viewBox="0 0 52 55" fill="none" xmlns="http://www.w3.org/2000/svg">
<path fill-rule="evenodd" clip-rule="evenodd" d="M31.3306 42.2478L32.3858 39.258C32.5617 39.4339 34.3204 41.0167 34.4963 41.1926C33.6169 41.3685 32.0341 42.2478 31.3306 42.2478ZM36.0791 39.9615C35.5515 39.6097 35.1998 39.0821 34.6721 38.5545C34.1445 38.0269 33.6169 37.6751 33.2652 37.1475C33.7928 36.7958 33.9687 36.444 34.3204 36.0923L38.5413 31.6955C39.4207 30.8161 41.3553 28.8816 41.707 28.1781C41.8829 28.3539 44.521 30.8161 44.521 30.8161C43.8175 31.8714 42.5864 32.7507 41.8829 33.6301L37.1343 38.7304C36.7826 39.0821 36.4309 39.6097 36.0791 39.7856V39.9615ZM28.6925 43.8307C28.6925 45.9411 31.6823 44.1824 33.9687 43.303C34.4963 43.1272 36.6067 42.2478 37.1343 41.8961C37.4861 41.5443 37.4861 41.3685 37.8378 41.1926V52.4484H2.13585V1.97316H26.582V11.9979C26.582 12.5255 27.1097 13.0531 27.6373 13.0531H37.662V29.4092C37.662 29.7609 35.3756 32.0472 34.848 32.399L32.0341 35.3888C31.6823 35.7406 30.9788 36.444 30.803 36.9717L29.396 41.3685C29.2201 42.0719 28.6925 42.9513 28.6925 43.6548V43.8307ZM43.2899 26.7711C43.6416 26.2435 44.521 25.1882 45.2244 24.8365C46.1038 25.54 46.9832 26.5952 48.0384 27.4746C47.5108 28.1781 46.8073 28.7057 46.1038 29.585C45.5762 29.2333 45.2244 28.7057 44.6968 28.1781C44.1692 27.6505 43.6416 27.2987 43.2899 26.7711ZM28.5166 3.38014L36.255 11.1185H28.5166V3.38014ZM0.0253906 0.742061V53.5036C0.0253906 54.0312 0.553006 54.383 1.08062 54.383H38.5413C39.2448 54.383 39.5966 53.8554 39.5966 53.1519C39.5966 51.0414 39.4207 39.4339 39.7724 38.9062C39.7724 38.7304 48.3901 29.9368 49.2695 29.0574C50.6765 27.2987 51.38 28.0022 47.3349 24.3089C45.7521 22.9019 45.4003 21.4949 43.6416 23.6054C43.4657 23.9571 43.2899 23.9571 43.114 24.3089L39.7724 27.6505V12.7013C39.7724 11.2944 39.0689 11.1185 37.662 9.71152L30.2753 2.32491C29.7477 1.79729 28.3408 0.0385742 27.4614 0.0385742H1.25649C0.728878 0.0385742 0.201262 0.390318 0.201262 0.917933L0.0253906 0.742061Z" fill="#EC691F"/>
<path fill-rule="evenodd" clip-rule="evenodd" d="M14.6236 34.5093L21.8344 37.4991C22.1861 37.675 22.1861 37.4991 22.362 38.0267C22.5379 38.3785 22.8896 41.0165 22.8896 41.3683C20.7791 41.3683 18.3169 39.2578 17.0858 37.8508C16.2065 36.9715 15.3271 35.7404 14.7995 34.5093H14.6236ZM24.6483 39.6096C24.6483 38.2026 23.769 34.5093 23.769 34.1575C23.769 33.8058 24.4725 33.1023 24.6483 32.7506C25.3518 31.8712 25.8794 31.1677 26.407 30.2883L28.3416 27.8261C28.3416 30.2884 27.814 32.3988 27.1105 34.3334C26.7588 35.3886 25.1759 38.9061 24.6483 39.4337V39.6096ZM11.9856 27.1227C12.5132 27.1227 15.6789 28.3538 16.3823 28.5296C17.0858 28.7055 20.4274 29.9366 20.7791 29.9366C20.7791 30.816 21.8344 34.1575 21.8344 35.3886L15.503 32.7506C14.7995 32.3988 14.096 32.0471 13.2167 32.0471C13.0408 31.5195 13.0408 31.3436 12.8649 30.9918C12.5132 29.9366 11.8097 28.1779 11.8097 27.1227H11.9856ZM23.2414 31.5195C23.2414 30.6401 22.7137 29.2331 22.5379 28.3538C21.4826 24.4846 21.1309 25.7157 23.769 22.7259C24.1207 22.3741 25.3518 20.4395 25.8794 20.2637C26.0553 20.6154 27.814 23.0776 27.9899 24.8363C27.9899 25.3639 27.9899 25.1881 27.814 25.5398C27.6381 25.8916 27.4623 25.8916 27.2864 26.2433C26.7588 26.9468 23.769 31.1677 23.2414 31.3436V31.5195ZM11.9856 20.2637L14.9754 21.143C16.0306 21.4948 17.0858 21.6706 18.1411 22.0224C19.0204 22.1982 19.0204 22.7259 19.548 24.6604L20.4274 27.8261L11.8097 25.0122C11.8097 24.1328 11.8097 23.4293 11.8097 22.55C11.8097 21.6706 11.9856 21.143 11.9856 20.2637ZM15.503 13.9323C15.6789 14.4599 17.7893 18.8567 17.9652 19.9119L13.9201 18.8567C13.5684 18.6808 12.8649 18.6808 12.5132 18.5049C12.689 17.2738 14.096 15.3392 14.7995 14.4599C15.1512 14.1081 14.7995 14.1081 15.3271 13.9323H15.503ZM17.7893 14.284C18.3169 14.6358 18.8446 14.8116 19.548 15.1634C22.7137 16.9221 23.4172 18.1532 24.4725 18.8567C23.9448 19.5602 23.4172 20.2637 22.8896 20.9671C22.5379 21.3189 21.4826 22.9017 21.1309 23.0776C21.1309 22.1982 20.0757 19.3843 19.7239 18.6808L17.9652 14.4599L17.7893 14.284ZM9.69922 22.55C9.69922 26.595 10.051 29.0572 11.6338 32.9264C13.3925 36.9715 15.6789 40.1372 19.3722 42.2476C20.0757 42.5994 23.5931 44.0064 24.6483 43.4787C25.5277 42.9511 28.1658 38.2026 28.5175 37.1474C32.5626 27.6503 30.2762 19.3843 21.1309 13.9323C20.0757 13.2288 16.5582 11.2942 15.503 11.2942C14.7995 11.2942 13.5684 12.7012 13.2167 13.2288C12.1614 14.4599 11.4579 15.691 10.9303 17.2738C10.7544 17.8014 10.5786 18.1532 10.4027 18.8567C10.051 19.736 9.87509 21.3189 9.87509 22.55H9.69922Z" fill="#EC691F"/>
</svg>
