<svg width="54" height="54" viewBox="0 0 54 54" fill="none" xmlns="http://www.w3.org/2000/svg">
<path fill-rule="evenodd" clip-rule="evenodd" d="M27.6405 7.75141C28.0339 7.72827 28.4735 7.75141 28.8669 7.75141C29.5843 7.75141 29.4686 7.61257 29.5843 8.28364L30.3711 12.4258C30.5099 13.0969 30.8107 13.9299 30.3711 14.3927C30.0702 14.6936 29.862 14.6473 29.3529 14.6473C27.571 14.6473 27.5942 14.6241 27.5942 12.6803C27.5942 11.8241 27.5479 8.30678 27.6173 7.77455L27.6405 7.75141ZM23.8455 14.6473C22.619 14.6473 22.9198 13.5365 23.0124 13.0043L23.8917 8.44562C23.9149 8.3762 23.9843 7.89025 24.0074 7.84397C24.0768 7.70513 24.0074 7.75141 24.2388 7.72827L25.8818 7.75141C25.9281 8.21422 25.905 10.9679 25.905 11.6622C25.905 14.8093 26.1364 14.6473 23.8455 14.6473ZM32.0835 11.9398C31.9678 11.3613 31.2735 8.05223 31.2967 7.75141H33.0554C33.3793 8.4919 34.1198 10.5051 34.4438 11.3845C34.6752 12.0093 34.9066 12.6109 35.138 13.2126C35.4157 13.9531 35.3 14.6241 34.3975 14.6704C32.1992 14.763 32.5694 14.5316 32.0603 11.963L32.0835 11.9398ZM19.1479 14.6473C18.2454 14.6473 18.0603 13.9762 18.3611 13.1894C18.8934 11.8241 19.9578 8.86215 20.4438 7.72827H22.2025C22.2256 8.09852 21.9479 9.2324 21.8554 9.64893C21.7397 10.2969 21.624 10.8985 21.4851 11.5464C20.8372 14.8324 21.1843 14.6473 19.1248 14.6473H19.1479ZM44.9033 14.6473C44.3479 14.6473 43.7694 14.6704 43.214 14.6473C42.6124 14.6241 42.5198 14.3233 42.2653 13.9299C41.9644 13.444 38.7016 7.98281 38.6322 7.75141H40.0669C40.2289 8.00595 40.4603 8.32992 40.6686 8.60761L43.6768 12.9117C43.9545 13.3051 44.695 14.3233 44.8802 14.6473H44.9033ZM34.9297 7.75141C35.2306 7.70513 36.1099 7.70513 36.4107 7.72827C36.6884 7.75141 36.6884 7.89025 36.781 8.09852C36.8735 8.2605 36.943 8.39934 37.0355 8.53819L39.1876 12.3332C39.6041 13.0969 40.2289 13.7911 39.6273 14.3927C39.3033 14.6936 38.8867 14.6473 38.3545 14.6473C37.8223 14.6473 37.5677 14.4853 37.4057 14.115C36.9892 13.2126 36.1562 10.9217 35.7165 9.85719C35.462 9.18612 35.0917 8.39934 34.9066 7.75141H34.9297ZM16.0471 14.115C15.862 14.5084 15.6074 14.6473 15.0521 14.6241C14.543 14.6241 14.1264 14.6704 13.8256 14.3696C13.5248 14.0688 13.5016 13.6522 13.733 13.2588L16.695 8.05224C16.8107 7.82083 16.7876 7.72827 17.1116 7.72827C17.4818 7.72827 18.1992 7.70513 18.5463 7.75141L16.0471 14.115ZM13.3859 7.72827H14.8206C14.7512 7.95967 11.4653 13.4208 11.0487 14.115C10.8405 14.4622 10.6785 14.6241 10.1462 14.6241H8.57271L13.3859 7.72827ZM8.619 16.3597V23.4869C8.619 23.8341 8.57271 24.2506 8.71155 24.5283C9.03552 25.1068 9.84543 25.1531 10.1925 24.5977C10.4471 24.2043 10.3314 21.7051 10.3314 21.1729C10.3314 19.5993 10.3314 18.0258 10.3314 16.4291C10.3777 16.2903 10.8868 16.3828 11.5116 16.0357C12.0669 15.7349 11.9975 15.6423 12.3678 15.3415C12.4372 15.4341 12.6454 15.6655 12.738 15.758C13.5479 16.4985 15.3066 16.4985 16.1165 16.2208C16.5099 16.082 16.9496 15.7812 17.1347 15.5729C17.852 16.1977 18.176 16.3828 19.4719 16.3828C20.2355 16.3828 20.814 16.4291 21.462 16.0357C21.6702 15.92 21.7859 15.8043 21.9248 15.7117C22.7347 16.3134 23.0124 16.3828 24.2851 16.3828C25.0487 16.3828 25.5347 16.4291 26.2058 16.0588C26.414 15.9431 26.5297 15.8043 26.6917 15.7349C26.8306 15.8043 26.9694 15.9431 27.1545 16.0357C27.8487 16.4291 28.3347 16.3597 29.1215 16.3597C30.4405 16.3597 30.6487 16.2903 31.4818 15.6886C32.5 16.3365 32.4306 16.3597 33.8884 16.3597C35.1843 16.3597 35.5082 16.1977 36.2487 15.5729C36.781 15.8506 36.7116 16.3597 38.7711 16.3597C39.581 16.3597 40.5992 16.082 41.0388 15.3415C41.5016 15.7349 41.6868 16.0588 42.4273 16.2671C42.6124 16.3134 42.9595 16.3134 43.0752 16.4522C43.1215 16.5679 42.7743 18.1184 43.9545 18.0952C44.9727 18.0721 44.7876 16.915 44.7876 16.3828C45.181 16.3828 46.5231 16.4291 46.8008 16.3365C47.3562 16.1514 47.5413 15.5266 47.1942 14.9712L41.9876 7.54314C41.8488 7.35802 41.7099 7.14976 41.571 6.94149C40.8305 5.85389 40.8537 6.01587 39.3264 6.01587H14.0802C13.4091 6.01587 12.6223 5.90017 12.252 6.29356L6.18924 14.925C5.84214 15.4572 5.98097 16.082 6.53634 16.2903C6.83716 16.406 8.15618 16.3597 8.57271 16.3597H8.619Z" fill="black"/>
<path fill-rule="evenodd" clip-rule="evenodd" d="M38.8618 38.8059L45.7577 38.829C45.7577 40.2637 45.7808 41.7216 45.7577 43.1563C45.7346 44.3827 44.8784 45.3315 43.8833 45.6092C43.3048 45.7712 42.4718 45.7017 41.847 45.7017C41.0834 45.7017 40.6437 45.6555 40.0883 45.3084C39.209 44.7761 38.6767 43.7579 38.885 42.2538C39.8801 42.2769 40.8982 42.2538 41.8932 42.2538C42.7957 42.2538 44.0453 42.4621 44.0222 41.3745C44.0222 40.9348 43.6982 40.6108 43.328 40.5414C43.0503 40.4951 39.2552 40.5183 38.8387 40.5183V38.8059H38.8618ZM39.6255 32.3265C39.0007 32.2108 39.0238 32.3265 38.5842 32.5579C35.6685 34.0158 33.2619 30.5447 35.2519 28.5315C35.4371 28.3464 35.7842 28.0918 35.8536 27.7679C36.0156 27.0274 34.7197 26.1943 35.5759 24.505C36.0619 23.5563 36.6635 23.5563 36.8255 23.0241C36.918 22.6769 36.8255 22.2604 36.9643 21.7976C37.4966 20.0621 39.6949 19.3216 41.2222 20.6406C41.9164 21.2422 41.9395 22.0753 42.0784 22.515C42.3329 23.2555 43.1429 23.0009 43.8371 23.4174C45.3412 24.3199 44.8784 25.4075 45.4337 25.8935C45.8965 26.31 47.4701 26.1712 46.4982 23.9265C46.0585 22.8852 45.0866 22.0059 44.0685 21.6125C43.2817 21.3117 43.8371 21.5893 43.2123 20.4555C42.4718 19.067 40.6899 17.9563 38.6767 18.3034C36.8486 18.6274 35.5759 20.0158 35.2056 21.5893C35.0205 22.4224 35.2751 22.1447 34.8354 22.5844C33.6784 23.672 33.2387 25.5695 33.8172 27.1431C34.0024 27.6059 33.7015 27.467 33.2387 28.3926C31.8966 31.0769 33.7247 34.4786 36.9412 34.6174C38.2139 34.6637 38.9544 34.2009 39.2321 34.1778C39.5098 34.1546 39.7643 34.6637 41.4304 34.5943V37.0703C40.2966 37.1166 39.0701 37.0009 37.9594 37.0703C36.8255 37.1398 37.1263 38.5976 37.1263 39.6158C37.1263 40.7728 37.1032 41.9298 37.1263 43.0869C37.1494 44.429 37.4966 44.7761 37.9594 45.6555C37.7048 45.7943 37.4734 45.7712 37.3114 46.0026C37.1726 46.1877 37.08 46.4885 37.1726 46.7893C37.3346 47.3679 37.8205 47.4141 38.4685 47.4141H46.2205C46.8916 47.4141 47.3776 47.3216 47.4701 46.6968C47.609 45.8406 46.7296 45.7017 46.6602 45.6555C47.1461 45.0307 47.4932 44.0588 47.4932 43.0406C47.4932 41.9067 47.4932 40.7497 47.4932 39.6158C47.4932 38.4588 47.7709 37.1398 46.6371 37.0703C45.5495 37.0241 44.2767 37.0703 43.1891 37.0703V34.71C43.5594 34.872 43.7213 35.034 44.2073 35.1497C44.6238 35.2422 45.0635 35.2422 45.48 35.1265C46.1974 34.9414 46.7759 34.4555 47.0767 33.9695C48.4652 31.7249 46.128 29.5265 45.0635 30.0356C44.6238 30.2439 44.1147 31.1001 45.2255 31.6555C46.5213 32.3034 45.2024 34.2009 44.161 33.229C43.5594 32.6736 43.9296 31.9563 42.5412 32.3265C41.9858 31.7017 42.0784 32.1645 42.009 31.0538C41.9395 30.1282 41.6387 26.8422 41.3379 26.3331C41.1296 25.986 40.5743 25.6852 40.1115 26.0092C39.6486 26.3331 39.718 26.7265 39.8337 27.3513C39.9957 28.2075 40.1114 29.2488 40.204 30.1513L40.1577 30.4984C39.9726 30.2439 39.4867 29.5497 39.209 29.4108C38.5148 29.0869 37.5429 29.8505 38.1908 30.7761C38.3991 31.0769 38.8387 31.6323 39.0933 31.8869C39.2552 32.0488 39.4404 32.1646 39.6024 32.3497L39.6255 32.3265Z" fill="black"/>
<path fill-rule="evenodd" clip-rule="evenodd" d="M16.9265 35.196C17.1116 35.4737 17.5975 36.677 17.7132 37.0704H10.1926L9.61405 34.5018C11.3959 34.5249 13.1777 34.5018 14.9595 34.5018C15.9545 34.5018 16.4868 34.6175 16.9033 35.2192L16.9265 35.196ZM34.5364 39.8241C34.5364 38.5745 33.9579 37.8109 33.1711 37.3944C31.4818 36.4687 30.7182 37.7183 31.2041 38.4125C31.5975 38.9679 32.0372 38.6671 32.4769 38.9911C32.8471 39.2687 32.8008 39.9167 32.7777 40.5183H10.3546V38.8059C14.2884 38.8059 18.2223 38.8059 22.1562 38.8059C22.9892 38.8059 24.3314 38.8754 25.1182 38.8059C25.9975 38.7134 26.1595 37.5332 25.3727 37.163C24.933 36.9547 20.5132 37.1398 19.5876 37.0704C18.9165 36.0985 18.9165 33.5762 16.3942 32.882C15.2141 32.558 9.89173 32.9282 9.17437 32.7431C8.98925 32.2803 8.75785 31.077 8.64215 30.4985C8.48017 29.758 8.29505 28.9944 8.10993 28.2539C7.97108 27.6754 7.80909 26.4721 7.48512 26.1249C6.92975 25.5464 5.88842 26.0092 6.02726 26.9117C6.14296 27.6059 6.39751 28.4853 6.53636 29.1563C6.83718 30.4754 8.57272 37.6952 8.59586 38.2043C8.71156 41.9068 8.5496 41.3745 7.27687 45.2159C7.0686 45.8406 6.58266 46.8125 7.20745 47.2522C7.48514 47.4605 7.97107 47.5068 8.27189 47.2522C8.52644 47.044 8.59585 46.7431 8.7347 46.3497C9.01238 45.4935 9.84545 42.8787 10.1231 42.2539H20.6752C20.7678 43.0175 20.6984 44.4291 20.6984 45.2621C20.6984 46.1878 20.4901 47.4142 21.5546 47.4142C21.9942 47.4142 22.3413 47.1134 22.4107 46.7663C22.5033 46.3729 22.3645 43.1564 22.4339 42.2539H31.2736C31.4355 42.5084 32.4537 45.7018 32.6851 46.4423C32.8471 46.9282 32.9859 47.3911 33.5876 47.4142C34.1198 47.4373 34.5364 47.0208 34.4901 46.4654C34.4669 46.0721 33.1711 42.6704 33.1248 42.2307C34.7446 42.277 34.5132 41.6059 34.4901 39.801L34.5364 39.8241Z" fill="black"/>
<path fill-rule="evenodd" clip-rule="evenodd" d="M45.2743 27.4668C44.1867 27.8139 44.7421 29.48 45.8529 29.0866C46.871 28.7163 46.3851 27.1197 45.2743 27.4668Z" fill="black"/>
<path fill-rule="evenodd" clip-rule="evenodd" d="M28.1971 37.1399C27.1326 37.5796 27.7343 39.1068 28.7756 38.7597C29.169 38.6209 29.493 38.1812 29.3078 37.649C29.169 37.2787 28.7062 36.9316 28.1971 37.163V37.1399Z" fill="black"/>
</svg>
