<svg width="25" height="25" viewBox="0 0 25 25" fill="none" xmlns="http://www.w3.org/2000/svg">
<g clip-path="url(#clip0_408_4676)">
<path fill-rule="evenodd" clip-rule="evenodd" d="M14.9254 10.4482C14.1791 10.4482 10.8209 12.687 10.0746 13.4332C9.32836 13.8064 8.58209 14.5526 7.46269 14.5526C6.71642 14.5526 4.85075 14.1795 4.85075 13.4332C5.22388 12.687 10.0746 10.8213 11.194 10.4482C12.6866 9.70189 16.791 7.83622 18.2836 8.20936C18.6567 9.32876 17.5373 17.1646 16.791 18.284C16.0448 20.5228 14.5522 18.6571 12.3134 17.1646C11.5672 16.7914 10.0746 16.0452 11.194 14.9258L14.9254 11.5676C15.2985 11.1944 15.2985 11.1944 15.2985 10.8213L14.9254 10.4482ZM0 11.9407C0 14.5526 0 16.0452 1.1194 18.284C2.98507 22.0153 7.46269 25.3735 11.5672 25.3735C14.1791 25.3735 15.6716 25.3735 17.9104 24.2541C21.6418 22.3885 25 17.9108 25 13.8064C25 11.1944 25 9.70189 23.8806 7.46309C22.0149 3.73174 17.5373 0.373535 13.4328 0.373535C10.8209 0.373535 9.32836 0.373535 7.08955 1.49294C3.35821 3.35861 0 7.83622 0 11.9407Z" fill="#EB691F"/>
</g>
<defs>
<clipPath id="clip0_408_4676">
<rect width="25.0008" height="25" fill="white"/>
</clipPath>
</defs>
</svg>
