<svg width="80" height="80" viewBox="0 0 80 80" fill="none" xmlns="http://www.w3.org/2000/svg">
<path fill-rule="evenodd" clip-rule="evenodd" d="M46.2678 49.227C46.5645 49.7949 46.9035 50.295 47.3019 50.7781C47.5732 51.1002 47.6494 51.2867 47.8444 51.5833C48.0054 51.8207 48.2173 52.058 48.3869 52.2869C48.7683 52.8124 49.0989 53.2786 49.4718 53.8126C50.9043 55.8299 50.7856 55.1942 49.9634 57.0759L48.4292 60.6698C48.1919 61.2462 47.9461 61.8734 47.641 62.3989C46.5475 64.2722 46.0983 64.2807 45.2083 65.1876L39.8937 70.1207C39.5462 70.392 39.5293 70.4428 39.2072 70.7819C38.9783 71.0192 38.7749 71.1379 38.5121 71.3498C38.2663 71.5447 38.1392 71.7736 37.8934 71.994C36.2575 73.4858 34.4859 73.0789 33.6129 71.7397C32.1804 69.5359 34.3079 68.1627 35.5031 66.7218C35.715 66.4675 35.9269 66.3404 36.1388 66.103C36.3507 65.8657 36.4863 65.6284 36.7152 65.408L38.5799 63.4076C38.7664 63.1703 38.9698 63.0092 39.1902 62.7634L42.284 59.2967C42.6061 58.8898 43.4114 57.398 43.6233 56.847C43.8352 56.2876 46.0474 49.4558 46.2678 49.2185V49.227ZM10.4051 70.0868C11.2612 70.0868 11.9563 70.7904 11.9563 71.6634C11.9563 72.5364 11.2612 73.24 10.4051 73.24C9.54904 73.24 8.85399 72.5364 8.85399 71.6634C8.85399 70.7988 9.54904 70.0868 10.4051 70.0868ZM4.08191 63.077C4.08191 62.1023 4.57353 61.3733 4.98038 60.8393L8.46409 56.4148C8.69295 56.1266 8.91333 55.8977 9.15066 55.5756C10.0322 54.3974 11.0408 53.2362 11.9224 52.0495C12.3377 51.4901 12.8039 50.8883 13.5667 50.5577C14.1601 50.295 15.5671 49.9135 16.1859 50.4052L12.1343 55.2281C11.685 55.6858 11.2443 56.2537 10.812 56.7792C9.93894 57.8642 9.09133 58.8983 8.15047 59.9748L6.80276 61.5937C5.96362 62.738 7.09095 64.0772 8.31999 63.5602C8.82009 63.3483 8.75228 63.1788 9.04894 62.8482C9.31171 62.5515 9.44733 62.3735 9.71856 62.0769L17.6946 52.5073C17.915 52.2445 18.11 51.9817 18.3812 51.7444C18.7881 51.9393 19.1356 52.2614 19.4662 52.5581C19.7883 52.8463 20.068 53.0667 20.4494 53.3718L22.4074 54.9908C22.3226 55.262 20.1612 57.8218 19.7883 58.2795L11.8207 68.1204C11.346 68.061 11.0493 67.8745 10.4729 67.8745C8.69295 67.8745 8.76923 68.7646 8.11657 68.1373L6.53152 66.7557C5.4381 65.8148 4.10734 65.1961 4.10734 63.077H4.08191ZM59.7449 29.7826C60.1772 30.2234 60.3976 30.6048 60.8045 31.0795C61.1689 31.4948 61.4741 32.0034 61.8046 32.3255L62.9574 33.4189C64.1525 34.5632 69.4163 36.6568 69.9926 37.6316C70.747 38.9115 69.7214 40.2507 68.4754 40.2507C67.721 40.2507 66.0766 39.2505 65.3307 38.8776L62.3471 37.3603C61.9487 37.106 59.8551 35.7244 59.7449 35.4617L59.7534 29.7742L59.7449 29.7826ZM33.1806 42.0307C33.1806 41.217 33.8757 40.5389 34.2317 40.0049C34.647 39.3946 35.0284 38.8182 35.4777 38.191L43.013 27.3754C43.8436 26.2311 44.598 24.841 45.6745 23.9171C49.7007 20.4673 57.1851 23.1797 57.219 27.4602L57.2021 42.4799C57.2445 45.1075 56.9054 46.1416 58.1514 48.4811L62.5421 56.4995C63.0337 57.3811 63.5507 58.3219 64.0339 59.2373C64.534 60.1867 65.0086 60.941 65.5003 61.8989C65.9749 62.8143 66.4665 63.6619 66.9412 64.5943C67.1785 65.0605 67.4583 65.4843 67.6871 65.925C67.9499 66.4336 68.1533 66.7811 68.4161 67.2558C68.6873 67.722 68.9162 68.1458 69.1789 68.6459C69.4078 69.0782 69.7214 69.5359 69.857 70.0529C70.213 71.4091 69.4332 72.3839 68.5178 72.7568C67.3226 73.2484 66.4072 72.7823 65.7122 71.8499L56.9309 59.9493C56.3629 59.1102 55.7696 58.3982 55.1678 57.4828C53.8116 55.4146 51.2518 52.2021 49.9889 50.2526C48.3784 47.7691 48.0732 48.2183 47.446 44.421C46.6832 39.7506 47.3782 35.0463 47.0646 32.3085C46.9968 31.7491 46.6153 31.2914 46.0644 31.2066C44.9625 31.0371 44.4539 32.1729 43.7504 33.0629L41.9365 35.3854C41.6314 35.7838 41.3347 36.0974 41.0211 36.5381C40.7329 36.945 40.4362 37.3349 40.1311 37.7163C39.3089 38.7165 36.0456 43.1496 35.4946 43.4293C34.3334 44.0141 33.1637 43.1919 33.1637 42.0222L33.1806 42.0307ZM33.2738 45.8958C34.2062 46.0993 34.5283 46.2942 35.6217 46.0654C36.3422 45.9128 37.0118 45.5483 37.4272 45.1669C37.9781 44.6498 38.19 44.3108 38.6647 43.709C39.0716 43.1919 39.453 42.6918 39.8429 42.1917C41.0041 40.7254 42.8095 38.2503 43.9793 36.8857C44.1657 36.6738 44.3946 36.3347 44.5387 36.2076C44.5556 37.6485 44.6574 45.4466 44.5217 46.2434C44.4454 46.7011 42.1993 53.4057 42.0213 53.7109C41.6568 53.2362 41.6822 52.6513 40.6735 52.7192C40.0294 52.7615 39.5547 53.304 39.5038 53.9143C39.4445 54.5331 39.3428 56.6606 39.7157 57.2115C39.9361 57.5336 39.97 57.398 40.2836 57.6947C40.1395 58.0168 38.6986 59.6527 38.3511 59.9578C37.9273 60.3308 37.7832 60.6613 37.3594 61.0343C36.5117 61.7717 33.5281 65.3656 32.4178 66.4336C28.7306 69.9766 31.3328 76.0371 36.4609 75.4099C37.7493 75.2488 38.6138 74.7403 39.3343 74.0622C39.5462 73.8672 39.7157 73.757 39.9276 73.5705C40.4532 73.1128 40.9363 72.4941 41.4873 72.0787L46.912 67.0693C50.1923 64.3146 50.489 61.8649 52.1842 58.3134L52.3707 58.0168C52.9386 58.7796 53.4556 59.4831 54.0405 60.2375C56.2612 63.1449 58.4142 66.1624 60.5417 69.1205L62.1946 71.3328C63.2965 72.7992 64.1102 74.4944 66.0088 75.1641C69.162 76.2744 72.4592 74.0028 72.4677 70.6293C72.4762 69.324 72.0184 68.6628 71.5353 67.7474C70.6453 66.0776 69.7044 64.4417 68.806 62.738C68.3228 61.8141 66.3224 58.4406 66.1275 57.7286C67.1023 57.5845 67.3311 57.1013 67.3226 56.0503C67.3142 55.4146 67.4244 53.838 67.187 53.3718C66.7124 52.4394 64.5255 51.9139 64.8052 55.2705C64.3899 54.9484 64.0508 53.9652 63.7966 53.5244L60.9316 48.2946C59.9314 46.4214 59.7365 46.6672 59.7365 44.0904C59.7365 42.2765 59.7365 40.4626 59.7365 38.6402C60.1348 38.8776 60.4146 39.0979 60.8045 39.3438C61.847 39.9879 62.9913 40.505 64.1186 41.0729C65.5257 41.7849 67.3481 43.0139 69.1704 42.7173C70.925 42.4291 72.2982 41.0983 72.6457 39.4539C73.3831 35.9533 70.6368 34.8344 68.4754 33.6647C67.8058 33.3002 67.026 32.8425 66.314 32.5035C63.2626 31.0371 62.7625 29.1893 61.2198 27.528L59.7365 25.6802C59.1855 25.019 58.9143 24.3833 58.4227 23.6713C57.948 22.9763 57.4055 22.4846 56.7783 21.9846C54.3202 20.0096 49.7431 19.0348 46.3187 20.5945C43.5554 21.8489 42.3857 23.8408 40.8346 26.087L35.0199 34.4869C34.7741 34.8429 34.5707 35.0718 34.3418 35.4278C33.918 36.072 33.3925 36.8009 32.9433 37.4451C32.4686 38.1232 32.0702 38.7165 31.5871 39.4116C30.0953 41.5476 30.6208 42.6495 31.3243 44.3956L25.8826 50.8968C25.586 51.2697 25.2893 51.6088 24.9842 51.9817C24.8231 52.1767 24.696 52.3123 24.5349 52.5157C24.3908 52.7022 24.2043 52.9056 24.0433 53.0413C23.5432 52.7785 20.6528 50.278 20.1697 49.8712C19.8561 49.5999 19.5085 49.3456 19.178 49.0659C16.6097 46.9215 12.4733 47.447 10.5153 49.8373L3.53943 58.5931C2.70877 59.6103 2.04763 60.4918 1.70858 61.8904C0.725343 65.9844 4.20057 68.1797 6.86209 70.3326C6.49762 72.0787 6.51457 72.7399 7.48085 74.0706C9.03199 76.1897 12.3801 75.7828 13.6854 73.5875C14.5585 72.1296 14.2194 71.2396 13.7447 69.8326C14.2025 69.0951 14.8806 68.4425 15.3976 67.7474C15.6858 67.366 15.9401 67.0524 16.2283 66.6879L18.271 64.145C19.5933 62.5261 21.4496 60.1104 22.7973 58.5931C23.1194 58.2287 23.3059 57.932 23.5856 57.5845L26.0691 54.5924C26.281 54.3635 26.6794 53.7956 26.8913 53.6346C26.8235 54.0584 26.815 56.5504 26.9082 56.881C27.1541 57.7201 28.3068 58.11 29.0103 57.3471C29.6037 56.7114 29.3918 55.2366 29.3918 54.2618C29.3833 53.1006 28.7476 52.4988 27.5694 52.8293C27.7474 52.5157 28.0017 52.2275 28.2644 51.9224L30.4343 49.3287C31.1209 48.4048 32.7653 46.7858 33.2738 45.9043V45.8958Z" fill="#333333"/>
<path fill-rule="evenodd" clip-rule="evenodd" d="M49.6167 12.1607C49.6167 9.38054 51.9138 7.12588 54.7024 7.1513C57.4657 7.17673 59.7373 9.38901 59.7373 12.1607C59.7373 15.0257 57.508 17.2549 54.7024 17.2719C51.9731 17.2888 49.6167 15.1443 49.6167 12.1607ZM47.0908 11.9827C47.0908 20.5182 58.1268 22.6966 61.5766 15.3393C64.4161 9.2873 58.2794 2.48093 51.6595 5.25264C49.1081 6.32064 47.0908 9.06692 47.0908 11.9827Z" fill="#333333"/>
<path fill-rule="evenodd" clip-rule="evenodd" d="M71.9247 52.8123C70.8313 53.3294 71.1279 53.9736 71.1194 55.8722C71.1194 56.5842 71.1194 56.9657 71.5348 57.3895C71.8569 57.7116 72.4078 57.8811 72.8994 57.6268C73.9166 57.0928 73.6453 55.9316 73.6538 54.6178C73.6538 54.0244 73.6538 53.4481 73.3232 53.0921C73.052 52.8039 72.4333 52.575 71.9247 52.8123Z" fill="#333333"/>
<path fill-rule="evenodd" clip-rule="evenodd" d="M78.2721 52.7953C77.1447 53.2191 77.4753 54.5244 77.4584 55.7874C77.4499 56.4316 77.399 56.991 77.7804 57.364C78.0517 57.6437 78.645 57.8641 79.1621 57.6606C80.1792 57.2622 79.9843 55.9315 79.9843 54.7024C79.9843 54.1091 79.9927 53.4819 79.6961 53.1089C79.4333 52.7868 78.823 52.5919 78.2805 52.7953H78.2721Z" fill="#333333"/>
<path fill-rule="evenodd" clip-rule="evenodd" d="M33.1882 53.9821V56.4147C33.1882 57.3217 34.0188 58.0167 34.8919 57.6522C35.7988 57.2793 35.7056 56.4486 35.7056 55.3382C35.7056 54.2957 35.8836 53.2955 35.0529 52.8632C34.1121 52.3716 33.1797 53.0327 33.1797 53.9905L33.1882 53.9821Z" fill="#333333"/>
</svg>
