<svg width="26" height="25" viewBox="0 0 26 25" fill="none" xmlns="http://www.w3.org/2000/svg">
<g clip-path="url(#clip0_408_4679)">
<path fill-rule="evenodd" clip-rule="evenodd" d="M6.35674 18.6567C6.35674 17.9104 6.72988 16.791 7.10301 16.0448C7.47614 14.5522 4.8642 12.3134 7.84928 8.58209C11.2075 4.10448 19.0433 6.34328 19.0433 12.6866C19.0433 14.5522 17.9239 16.4179 16.8045 17.1642C12.7 20.1493 10.8344 17.5373 9.34182 17.9104C8.59555 18.2836 7.47614 18.2836 6.72988 18.6567H6.35674ZM0.0134583 11.5672C0.0134583 14.1791 0.0134583 15.6716 1.13286 17.9104C2.99853 21.6418 7.10301 25 11.5806 25C14.1926 25 15.6851 25 17.9239 23.8806C20.5358 22.7612 22.4015 20.5224 23.8941 17.9104C25.3866 14.5522 25.3866 10.0746 23.8941 7.08955C22.0284 3.35821 17.9239 0 13.4463 0C10.8344 0 9.34182 0 7.10301 1.1194C3.37167 2.98507 0.0134583 7.08955 0.0134583 11.5672Z" fill="#EB691F"/>
<path fill-rule="evenodd" clip-rule="evenodd" d="M11.2082 11.9404C11.5813 12.6867 12.7007 13.8061 13.447 13.8061C13.8201 13.4329 13.8201 13.4329 14.1933 13.0598C14.5664 13.0598 15.3127 13.4329 15.6858 13.8061C15.6858 15.2986 14.1933 15.6717 12.7007 14.9255C11.5813 14.5523 10.8351 13.8061 10.0888 12.6867C9.34252 11.9404 8.59625 10.0747 9.71565 9.32845C10.4619 8.58218 10.8351 9.32845 10.8351 10.0747C11.2082 11.1941 11.2082 10.821 10.4619 11.5673L11.2082 11.9404ZM7.84998 17.1643C8.59625 17.1643 9.34252 16.7911 10.0888 16.7911C10.8351 17.1643 10.8351 17.1643 11.9545 17.5374C14.9395 17.9105 17.5515 15.6717 17.5515 12.6867C17.5515 11.1941 16.8052 9.70158 16.0589 8.95531C12.7007 5.5971 6.73058 8.58218 7.47685 13.4329C7.84998 14.5523 8.22311 14.9255 8.22311 15.2986C8.22311 15.6717 7.84998 16.7911 7.84998 17.1643Z" fill="#EB691F"/>
</g>
<defs>
<clipPath id="clip0_408_4679">
<rect width="25.0251" height="25" fill="white" transform="translate(0.000762939)"/>
</clipPath>
</defs>
</svg>
