<svg width="25" height="25" viewBox="0 0 25 25" fill="none" xmlns="http://www.w3.org/2000/svg">
<g clip-path="url(#clip0_408_4673)">
<path fill-rule="evenodd" clip-rule="evenodd" d="M16.0448 12.6866C16.791 13.4328 17.1642 13.0597 18.2836 14.5522C18.6567 15.2985 19.403 16.0448 19.7761 17.1642H17.1642C16.791 15.6716 15.2985 14.1791 13.4328 14.1791V17.1642C7.83582 17.1642 5.59701 13.806 5.22388 8.20895H7.83582C7.83582 10.8209 8.95522 13.806 11.194 14.1791V8.20895H13.4328V11.5672C16.0448 11.194 16.4179 8.20895 16.791 8.20895H19.0299C18.6567 10.0746 18.2836 10.4478 17.1642 11.5672L16.791 11.9403L16.4179 12.3134L16.0448 12.6866ZM11.5672 0H13.806C15.2985 0 16.791 0.373134 17.9104 1.1194C20.5224 2.23881 22.3881 4.47761 23.8806 7.08955C25 9.32836 25 10.8209 25 13.4328C25 17.5373 21.6418 22.0149 17.9104 23.8806C15.6716 25 14.1791 25 11.5672 25C7.46269 25 2.98507 21.6418 1.1194 17.9104C0 15.6716 0 14.1791 0 11.5672C0 10.0746 0.746269 7.83582 1.1194 7.08955C2.98507 2.98507 7.08955 0.373134 11.5672 0Z" fill="#EB691F"/>
</g>
<defs>
<clipPath id="clip0_408_4673">
<rect width="25" height="25" fill="white"/>
</clipPath>
</defs>
</svg>
