<svg width="315" height="40" viewBox="0 0 315 40" fill="none" xmlns="http://www.w3.org/2000/svg">
<g clip-path="url(#clip0_408_4640)">
<path fill-rule="evenodd" clip-rule="evenodd" d="M135.221 29.768H108.14V23.1351H135.514C139.214 23.1351 140.065 27.2241 138.016 28.8756C137.324 29.4217 136.472 29.768 135.235 29.768H135.221ZM112.332 16.6887C112.039 17.2215 111.653 17.7409 111.307 18.2471C110.948 18.7931 110.655 19.2593 110.282 19.8054L108.459 22.5225C108.353 22.7089 108.433 22.5757 108.313 22.7489C108.246 22.8421 108.193 22.8821 108.14 22.9487V10.7751H133.784C137.63 10.7751 138.003 16.6355 133.505 16.6887C126.558 16.7553 119.305 16.6887 112.332 16.6887ZM101.273 4.51519V36.2144H136.073C143.18 36.2144 148.556 28.2629 144.776 21.8299C144.178 20.8043 143.02 19.3792 142.075 18.7665C142.448 18.0872 142.86 17.4479 143.113 16.6621C144.537 12.4133 142.834 8.098 138.908 5.70058C138.402 5.39424 137.763 5.0879 137.191 4.8748C135.913 4.40863 134.476 4.22217 132.72 4.22217H101.539C101.313 4.22217 101.26 4.28876 101.26 4.48855L101.273 4.51519Z" fill="black"/>
<path fill-rule="evenodd" clip-rule="evenodd" d="M86.1029 29.7677H59.1677V23.1349H86.3957C87.1143 23.1349 87.9128 23.348 88.4451 23.7209C91.2797 25.6655 89.9888 29.7677 86.1162 29.7677H86.1029ZM52.3408 4.51492V36.2141H86.7683C95.9374 36.2141 100.848 24.4934 92.6504 18.5931C92.1447 18.2202 91.6922 17.9538 91.0668 17.6608C90.0687 17.1813 88.4983 16.6885 87.0478 16.6885H59.1677V10.7882H86.2892C86.6219 10.7882 87.2075 9.696 87.5002 9.22984L90.6143 4.55487C90.7207 4.38173 90.8139 4.24854 90.4679 4.24854H52.6202C52.4073 4.24854 52.3408 4.31513 52.3408 4.51492Z" fill="black"/>
<path fill-rule="evenodd" clip-rule="evenodd" d="M24.7798 10.8683C25.0593 11.0415 25.1125 11.2546 25.3121 11.5343L31.9661 21.5635C32.3254 22.0963 32.6448 22.6157 33.0041 23.1218H16.7418C17.0213 22.6157 17.3806 22.0963 17.7133 21.5901L23.7817 12.4533C24.0213 12.107 24.7 11.188 24.7798 10.855V10.8683ZM0.000500058 36.2144H8.03847C8.39779 35.7083 8.71718 35.1888 9.07649 34.6561C10.6335 32.3119 12.9225 28.9955 14.2932 26.7979L15.8502 24.4537C16.0099 24.2007 16.3027 23.8144 16.3692 23.588C16.7285 23.6812 16.5688 23.6945 16.9415 24.2273C17.1278 24.507 17.2609 24.6935 17.4605 24.9998L20.4814 29.5815H37.3159L39.4717 32.8846C39.8577 33.4574 40.1638 33.9368 40.5497 34.4962C40.7892 34.8559 41.5478 35.8814 41.6276 36.2011H49.7587C49.5724 35.8548 49.3329 35.5351 49.1067 35.1888L41.1086 23.1618C40.8691 22.8155 40.6695 22.5091 40.4432 22.1495C40.217 21.7899 40.0174 21.4836 39.7911 21.1373L29.7969 6.08683C29.4376 5.55407 28.7057 4.22217 28.3197 4.22217H21.5194C21.0004 4.22217 21.0536 4.43527 20.6411 5.02131L15.97 12.0404C13.9605 15.237 11.4187 18.8331 9.32934 22.0829C8.87687 22.7755 8.46433 23.4015 7.98524 24.0808C7.7457 24.4271 7.54608 24.7334 7.31985 25.093C7.08031 25.4793 6.88069 25.7057 6.65445 26.092L-0.0128078 36.2011L0.000500058 36.2144Z" fill="black"/>
<path fill-rule="evenodd" clip-rule="evenodd" d="M13.5874 29.5814H19.3231L17.5265 26.8377C17.2204 26.3981 16.7147 25.4392 16.3554 25.2261C16.0227 25.8121 13.6805 29.1818 13.5741 29.5814H13.5874Z" fill="#E6631F"/>
<path d="M157.872 0H155.729V40.4498H157.872V0Z" fill="#E6631F"/>
<path fill-rule="evenodd" clip-rule="evenodd" d="M229.108 2.79695V9.80274C229.108 11.7207 230.199 13.5054 231.237 14.4777C232.302 15.4766 234.099 16.5555 236.188 16.5555H248.085C248.085 18.1671 248.258 20.0717 246.235 20.5245C245.397 20.711 233.673 20.6044 232.249 20.6044C231.956 21.0173 229.188 25.1196 229.121 25.3593C234.245 25.3593 239.368 25.3593 244.492 25.3593C247.1 25.3593 249.03 25.0264 250.906 23.2549C251.984 22.2294 252.996 20.378 252.996 18.8597V2.66376H248.098V11.6674C248.098 11.8139 248.045 11.8672 247.899 11.8672H240.619C239.195 11.8672 237.984 11.8006 236.614 11.8006C235.855 11.8006 235.469 11.694 235.043 11.3611C234.644 11.0547 234.351 10.6818 234.178 10.1757C234.005 9.65623 234.099 4.74153 234.099 3.43626C234.099 3.11661 234.205 2.59717 233.899 2.59717H229.348C229.188 2.59717 229.148 2.63712 229.148 2.78363L229.108 2.79695Z" fill="#E6631F"/>
<path fill-rule="evenodd" clip-rule="evenodd" d="M215.614 11.8672H203.943V7.29877H215.135C217.677 7.29877 218.608 9.66955 217.198 11.1746C216.905 11.4943 216.226 11.8672 215.614 11.8672ZM198.966 2.79695V25.3593H203.743C203.903 25.3593 203.943 25.3194 203.943 25.1729V16.5555H215.813C216.971 16.5555 217.996 16.2092 218.794 15.8229C219.234 15.6098 219.553 15.4234 219.926 15.157C220.152 14.9972 220.245 14.8906 220.445 14.7441C220.844 14.4511 221.456 13.7452 221.736 13.319C222.907 11.5076 223.133 9.70951 222.587 7.6717C222.374 6.87257 221.829 5.95355 221.31 5.32756C219.673 3.36967 217.517 2.59717 214.789 2.59717H199.165C199.006 2.59717 198.966 2.63712 198.966 2.78363V2.79695Z" fill="#E6631F"/>
<path fill-rule="evenodd" clip-rule="evenodd" d="M259.505 25.2393H264.548V7.29864H278.628V25.2393H283.672V2.79682C283.672 2.65031 283.619 2.61035 283.459 2.61035H259.505V25.2393Z" fill="#E6631F"/>
<path fill-rule="evenodd" clip-rule="evenodd" d="M168.532 2.79682V25.2393H173.602V7.29864L192.965 7.36523V2.79682C192.965 2.65031 192.912 2.61035 192.752 2.61035H168.731C168.572 2.61035 168.518 2.65031 168.518 2.79682H168.532Z" fill="#E6631F"/>
<path fill-rule="evenodd" clip-rule="evenodd" d="M289.833 25.2393H294.877V7.29864H308.956V25.2393H314V2.79682C314 2.65031 313.947 2.61035 313.787 2.61035H289.833V25.2393Z" fill="#E6631F"/>
<path d="M168.531 29.4885H173.881V36.3478H172.523V30.6473H169.902V36.3478H168.544V29.4885H168.531ZM175.278 36.3478V29.4885H177.461C178.286 29.4885 178.831 29.5152 179.071 29.5951C179.457 29.7016 179.776 29.9281 180.042 30.261C180.295 30.6073 180.428 31.0468 180.428 31.5929C180.428 32.0191 180.349 32.3654 180.202 32.6584C180.056 32.9515 179.856 33.1646 179.63 33.3377C179.404 33.4975 179.164 33.6041 178.925 33.6574C178.605 33.724 178.126 33.7506 177.514 33.7506H176.636V36.3345H175.278V36.3478ZM176.636 30.6473V32.6052H177.381C177.913 32.6052 178.273 32.5652 178.459 32.4986C178.645 32.432 178.778 32.3122 178.885 32.1656C178.991 32.0058 179.044 31.8327 179.044 31.6329C179.044 31.3798 178.978 31.18 178.831 31.0069C178.685 30.8471 178.512 30.7405 178.286 30.7006C178.126 30.6739 177.793 30.6606 177.314 30.6606H176.662L176.636 30.6473ZM181.147 32.9648C181.147 32.2589 181.253 31.6728 181.453 31.2067C181.599 30.8604 181.812 30.5407 182.079 30.261C182.345 29.9813 182.637 29.7815 182.944 29.635C183.369 29.4486 183.849 29.3687 184.394 29.3687C185.392 29.3687 186.177 29.6883 186.776 30.3143C187.375 30.9403 187.668 31.8193 187.668 32.9381C187.668 34.0436 187.375 34.9227 186.776 35.5487C186.191 36.1747 185.392 36.4943 184.407 36.4943C183.409 36.4943 182.611 36.188 182.012 35.562C181.426 34.936 181.12 34.0836 181.12 32.9781L181.147 32.9648ZM182.544 32.9248C182.544 33.6973 182.717 34.2967 183.077 34.6962C183.423 35.0958 183.875 35.2956 184.421 35.2956C184.966 35.2956 185.406 35.0958 185.765 34.6962C186.111 34.2967 186.284 33.6973 186.284 32.8982C186.284 32.1124 186.111 31.5263 185.778 31.1401C185.445 30.7538 184.993 30.554 184.421 30.554C183.862 30.554 183.409 30.7538 183.063 31.1401C182.717 31.5263 182.544 32.1257 182.544 32.9115V32.9248ZM188.759 29.5018H190.023V34.0703L192.751 29.5018H194.109V36.3611H192.845V31.8726L190.117 36.3611H188.759V29.5018ZM196.464 31.3665L195.134 31.0468C195.413 29.9281 196.225 29.3687 197.569 29.3687C198.354 29.3687 198.953 29.5418 199.366 29.9014C199.765 30.261 199.964 30.6739 199.964 31.1534C199.964 31.4864 199.871 31.7794 199.685 32.0458C199.499 32.3122 199.232 32.5386 198.86 32.7384C199.299 32.8982 199.645 33.1113 199.858 33.4043C200.084 33.6973 200.191 34.0436 200.191 34.4565C200.191 35.0559 199.978 35.5487 199.539 35.9216C199.099 36.2945 198.461 36.481 197.596 36.481C196.89 36.481 196.331 36.3611 195.932 36.1214C195.52 35.8816 195.213 35.4288 195.014 34.7762L196.251 34.3633C196.385 34.7762 196.558 35.0425 196.77 35.1624C196.983 35.2823 197.25 35.3489 197.556 35.3489C197.982 35.3489 198.301 35.2556 198.501 35.0692C198.7 34.8827 198.793 34.6563 198.793 34.4166C198.793 34.1369 198.687 33.9104 198.461 33.7373C198.234 33.5641 197.902 33.4842 197.463 33.4842H197.156V32.4453H197.316C197.729 32.4453 198.048 32.3521 198.274 32.1656C198.501 31.9792 198.607 31.7261 198.607 31.4065C198.607 31.1534 198.514 30.9403 198.341 30.7671C198.168 30.594 197.902 30.5141 197.569 30.5141C196.997 30.5141 196.637 30.8071 196.478 31.3798L196.464 31.3665ZM201.402 29.5018H204.09C204.622 29.5018 205.021 29.5285 205.288 29.5684C205.554 29.6084 205.78 29.7149 205.993 29.8481C206.206 29.9946 206.379 30.1811 206.512 30.4209C206.645 30.6606 206.725 30.927 206.725 31.22C206.725 31.5397 206.645 31.8327 206.472 32.099C206.299 32.3654 206.073 32.5652 205.78 32.6984C206.192 32.8183 206.499 33.0314 206.725 33.3244C206.951 33.6174 207.057 33.9637 207.057 34.3633C207.057 34.6829 206.991 34.9759 206.845 35.269C206.698 35.562 206.512 35.8017 206.259 35.9749C206.006 36.148 205.713 36.2546 205.341 36.2945C205.115 36.3212 204.569 36.3345 203.704 36.3345H201.415V29.4752L201.402 29.5018ZM202.759 30.6473V32.2322H203.651C204.183 32.2322 204.502 32.2189 204.635 32.2056C204.862 32.179 205.048 32.099 205.181 31.9659C205.314 31.8327 205.381 31.6462 205.381 31.4331C205.381 31.22 205.327 31.0468 205.208 30.9137C205.088 30.7805 204.928 30.7006 204.702 30.6739C204.569 30.6606 204.183 30.6473 203.544 30.6473H202.759ZM202.759 33.3644V35.2024H204.023C204.516 35.2024 204.822 35.1891 204.955 35.1624C205.154 35.1225 205.327 35.0292 205.447 34.8827C205.58 34.7362 205.634 34.5364 205.634 34.2967C205.634 34.0836 205.58 33.9104 205.487 33.7772C205.394 33.6307 205.248 33.5242 205.061 33.4576C204.875 33.391 204.476 33.3644 203.85 33.3644H202.746H202.759ZM207.67 32.9781C207.67 32.2722 207.776 31.6862 207.976 31.22C208.122 30.8737 208.335 30.554 208.601 30.2743C208.867 29.9946 209.16 29.7949 209.466 29.6484C209.892 29.4619 210.371 29.382 210.917 29.382C211.915 29.382 212.7 29.7016 213.299 30.3276C213.898 30.9536 214.191 31.8327 214.191 32.9515C214.191 34.0569 213.898 34.936 213.299 35.562C212.713 36.188 211.915 36.5076 210.93 36.5076C209.932 36.5076 209.134 36.2013 208.535 35.5753C207.949 34.9493 207.643 34.0969 207.643 32.9914L207.67 32.9781ZM209.067 32.9381C209.067 33.7106 209.24 34.31 209.599 34.7096C209.945 35.1091 210.398 35.3089 210.943 35.3089C211.489 35.3089 211.928 35.1091 212.288 34.7096C212.634 34.31 212.807 33.7106 212.807 32.9115C212.807 32.1257 212.634 31.5396 212.301 31.1534C211.968 30.7671 211.516 30.5674 210.943 30.5674C210.384 30.5674 209.932 30.7671 209.586 31.1534C209.24 31.5396 209.067 32.139 209.067 32.9248V32.9381ZM215.694 29.5152H220.339V35.2157H220.938V37.8662H219.793V36.3744H215.575V37.8662H214.43V35.2157H215.002C215.282 34.6297 215.468 33.9504 215.561 33.1779C215.654 32.4054 215.694 31.4198 215.694 30.2344V29.5152ZM216.998 30.6739C216.998 32.7517 216.812 34.27 216.44 35.2157H218.995V30.6739H217.012H216.998ZM226.168 33.8438L227.485 34.2567C227.286 35.0159 226.939 35.5753 226.474 35.9349C226.008 36.2945 225.409 36.481 224.69 36.481C223.799 36.481 223.054 36.1747 222.481 35.5487C221.909 34.9227 221.616 34.0703 221.616 32.9914C221.616 31.846 221.909 30.9669 222.481 30.3276C223.054 29.7016 223.825 29.382 224.77 29.382C225.595 29.382 226.261 29.635 226.78 30.1278C227.086 30.4209 227.312 30.8471 227.472 31.3931L226.128 31.7261C226.048 31.3665 225.888 31.0868 225.635 30.887C225.382 30.6872 225.076 30.5807 224.717 30.5807C224.211 30.5807 223.812 30.7671 223.506 31.1268C223.2 31.4864 223.04 32.0857 223.04 32.8982C223.04 33.7639 223.2 34.3766 223.506 34.7495C223.812 35.1225 224.211 35.2956 224.704 35.2956C225.063 35.2956 225.382 35.1757 225.635 34.9493C225.901 34.7096 226.088 34.35 226.194 33.8438H226.168ZM229.934 36.3744V30.6739H227.938V29.5152H233.287V30.6739H231.304V36.3744H229.947H229.934ZM234.166 29.5152H236.854C237.386 29.5152 237.785 29.5418 238.052 29.5818C238.318 29.6217 238.544 29.7283 238.757 29.8615C238.97 30.008 239.143 30.1944 239.276 30.4342C239.409 30.6739 239.489 30.9403 239.489 31.2333C239.489 31.553 239.409 31.846 239.236 32.1124C239.063 32.3787 238.837 32.5785 238.544 32.7117C238.957 32.8316 239.263 33.0447 239.489 33.3377C239.715 33.6307 239.822 33.977 239.822 34.3766C239.822 34.6963 239.755 34.9893 239.609 35.2823C239.462 35.5753 239.276 35.815 239.023 35.9882C238.77 36.1613 238.477 36.2679 238.105 36.3078C237.879 36.3345 237.333 36.3478 236.468 36.3478H234.179V29.4885L234.166 29.5152ZM235.523 30.6606V32.2456H236.415C236.947 32.2456 237.266 32.2322 237.4 32.2189C237.626 32.1923 237.812 32.1124 237.945 31.9792C238.078 31.846 238.145 31.6595 238.145 31.4464C238.145 31.2333 238.092 31.0602 237.972 30.927C237.852 30.7938 237.692 30.7139 237.466 30.6872C237.333 30.6739 236.947 30.6606 236.308 30.6606H235.523ZM235.523 33.3777V35.2157H236.787C237.28 35.2157 237.586 35.2024 237.719 35.1757C237.919 35.1358 238.092 35.0425 238.211 34.896C238.344 34.7495 238.398 34.5497 238.398 34.31C238.398 34.0969 238.344 33.9238 238.251 33.7906C238.158 33.6441 238.012 33.5375 237.825 33.4709C237.639 33.4043 237.24 33.3777 236.614 33.3777H235.51H235.523ZM240.953 36.3744V29.5152H245.943V30.6739H242.323V32.1923H245.69V33.351H242.323V35.2157H246.076V36.3744H240.953ZM247.234 36.3744V29.5152H248.591V32.2189H251.24V29.5152H252.61V36.3744H251.24V33.3777H248.591V36.3744H247.234ZM254.034 36.3744V29.5152H255.392V32.2189H258.04V29.5152H259.411V36.3744H258.04V33.3777H255.392V36.3744H254.034ZM266.903 36.3744H265.439L264.854 34.8161H262.152L261.593 36.3744H260.156L262.778 29.5152H264.215L266.916 36.3744H266.903ZM264.415 33.6574L263.483 31.1134L262.578 33.6574H264.428H264.415ZM271.667 36.3744V33.5109H271.388C270.962 33.5109 270.656 33.5775 270.483 33.7106C270.31 33.8438 270.004 34.2301 269.578 34.8827L268.607 36.3744H266.983L267.808 35.0425C268.127 34.5098 268.394 34.1369 268.58 33.9237C268.78 33.7106 269.019 33.5242 269.299 33.351C268.673 33.2445 268.221 33.0314 267.941 32.6851C267.662 32.3388 267.529 31.9259 267.529 31.4464C267.529 31.0335 267.635 30.6606 267.835 30.3409C268.048 30.0213 268.314 29.7949 268.646 29.6883C268.979 29.5818 269.498 29.5285 270.164 29.5285H273.025V36.3878H271.654L271.667 36.3744ZM271.667 30.6739H270.603C270.057 30.6739 269.711 30.6872 269.538 30.7139C269.365 30.7405 269.219 30.8204 269.099 30.9669C268.979 31.1134 268.913 31.2999 268.913 31.5263C268.913 31.7661 268.979 31.9659 269.086 32.099C269.205 32.2456 269.352 32.3255 269.538 32.3654C269.724 32.3921 270.097 32.4187 270.656 32.4187H271.667V30.6739ZM277.084 29.5152H281.648V30.6739H278.454V36.3744H277.084V29.5152ZM282.354 36.3744V29.5152H284.536C285.361 29.5152 285.907 29.5418 286.146 29.6217C286.532 29.7283 286.852 29.9547 287.118 30.2877C287.384 30.634 287.504 31.0735 287.504 31.6196C287.504 32.0458 287.424 32.3921 287.278 32.6851C287.131 32.9781 286.932 33.1912 286.705 33.3644C286.479 33.5242 286.24 33.6307 286 33.684C285.681 33.7506 285.202 33.7772 284.589 33.7772H283.711V36.3611H282.34L282.354 36.3744ZM283.724 30.6739V32.6318H284.47C285.002 32.6318 285.361 32.5919 285.534 32.5253C285.721 32.4587 285.854 32.3388 285.96 32.1923C286.067 32.0325 286.12 31.8593 286.12 31.6595C286.12 31.4065 286.053 31.2067 285.907 31.0335C285.76 30.8737 285.587 30.7671 285.361 30.7272C285.201 30.7006 284.869 30.6872 284.39 30.6872H283.738L283.724 30.6739ZM287.823 29.5152H289.354L290.924 33.0713L292.268 29.5152H293.692L291.416 34.7362C291.163 35.2956 290.911 35.7351 290.658 36.0281C290.405 36.3212 290.072 36.4677 289.66 36.4677C289.26 36.4677 288.941 36.441 288.715 36.3878V35.3622C288.914 35.3755 289.087 35.3755 289.234 35.3755C289.553 35.3755 289.779 35.3222 289.913 35.2024C290.046 35.0825 290.179 34.8294 290.298 34.4432L287.823 29.5285V29.5152ZM294.384 29.5152H299.734V36.3744H298.376V30.6739H295.755V36.3744H294.397V29.5152H294.384ZM301.144 29.5152H306.494V36.3744H305.137V30.6739H302.515V36.3744H301.158V29.5152H301.144ZM313.96 36.3744H312.496L311.91 34.8161H309.209L308.65 36.3744H307.213L309.834 29.5152H311.272L313.973 36.3744H313.96ZM311.471 33.6574L310.54 31.1134L309.635 33.6574H311.485H311.471Z" fill="black"/>
</g>
<defs>
<clipPath id="clip0_408_4640">
<rect width="315" height="40" fill="white"/>
</clipPath>
</defs>
</svg>
