<svg width="35" height="35" viewBox="0 0 35 35" fill="none" xmlns="http://www.w3.org/2000/svg">
<g id="_1819229808">
<path id="Vector" fill-rule="evenodd" clip-rule="evenodd" d="M19.7797 18.4318H15.3042V10.4341H20.0975C21.0509 10.4341 22.0836 10.9902 22.6927 11.5993C24.7054 13.612 23.9904 17.0812 21.3951 18.1405C20.9449 18.3259 20.3888 18.4583 19.7532 18.4583L19.7797 18.4318ZM11.3848 10.4341H13.5563V18.4318H11.3848V20.1797H13.5563V22.5631H11.3848V24.3109H13.5563V27.3564H15.3042V24.3109H20.5212V22.5631H15.3042V20.1797H20.1505C20.9979 20.1797 21.7924 19.9148 22.375 19.6235C23.3283 19.1468 24.0434 18.5642 24.6525 17.6638C24.8379 17.3725 25.0233 17.0812 25.1557 16.7634C26.1355 14.38 25.6059 12.0231 23.911 10.3282C22.8517 9.26889 21.3421 8.65979 19.7002 8.65979H11.3848V10.4606V10.4341Z" fill="#EC691F"/>
<path id="Vector_2" d="M17.3725 0C22.1658 0 26.5089 1.9597 29.6603 5.08463C32.8117 8.23604 34.745 12.5792 34.745 17.3725C34.745 22.1658 32.7852 26.5089 29.6603 29.6603C26.5089 32.8118 22.1658 34.745 17.3725 34.745C12.5792 34.745 8.20951 32.7853 5.08458 29.6603C1.93317 26.5089 0 22.1658 0 17.3725C0 12.5792 1.95966 8.23604 5.08458 5.08463C8.236 1.93322 12.5792 0 17.3725 0ZM28.4951 6.24986C25.635 3.38975 21.7156 1.64191 17.3725 1.64191C13.0294 1.64191 9.08344 3.41624 6.24982 6.24986C3.38971 9.10996 1.6419 13.0294 1.6419 17.3725C1.6419 21.7156 3.4162 25.6615 6.24982 28.4951C9.10992 31.3552 13.0294 33.1031 17.3725 33.1031C21.7156 33.1031 25.6614 31.3287 28.4951 28.4951C31.3552 25.635 33.1031 21.7156 33.1031 17.3725C33.1031 13.0294 31.3287 9.08348 28.4951 6.24986Z" fill="#EC691F"/>
</g>
</svg>
