<svg width="42" height="27" viewBox="0 0 42 27" fill="none" xmlns="http://www.w3.org/2000/svg">
<g id="_1819229040">
<path id="Vector" fill-rule="evenodd" clip-rule="evenodd" d="M20.8947 21.2654C21.2389 21.3449 22.9868 22.3777 23.384 22.6425C24.4698 23.3046 23.6753 25.5556 21.901 24.4698L19.9413 23.384C19.9678 23.0662 20.2856 22.6425 20.4445 22.3512C20.6298 22.0069 20.8682 21.7421 20.8947 21.2919V21.2654ZM41.2332 13.3207V13.5325C41.1802 13.8768 40.9154 14.1151 40.2798 14.3535C39.8561 14.5124 39.4324 14.6713 38.9822 14.8302C38.5585 14.9891 36.6517 15.7571 36.3074 15.7835C36.3074 16.7369 36.0426 17.4255 35.5659 17.9286C34.3742 19.1998 33.4208 18.7761 32.5204 18.7496C32.5204 19.6235 32.0438 20.1796 31.5671 20.6298C31.0904 21.08 30.3489 21.3184 29.4485 21.3184C29.422 22.7484 28.2038 24.0461 26.8002 24.0461C25.635 24.0461 26.0322 23.9401 25.5026 23.8872C25.4761 24.2314 25.3172 24.6816 25.1848 24.92C25.0259 25.2113 24.8405 25.3967 24.6022 25.635C23.0132 27.1975 21.133 25.9528 19.7559 25.1318L18.9085 24.6022C16.631 26.1382 14.7772 24.6552 14.5653 23.7283C14.2211 23.7548 14.2211 23.8607 13.8768 23.9401C12.3673 24.3109 10.8578 23.3575 10.6194 22.2717C10.1163 22.5366 9.82496 22.5101 9.24235 22.5101C7.89175 22.5101 6.67355 21.3184 6.67355 19.8618C5.66722 19.8618 5.11109 19.5705 4.52848 19.0938C3.70752 18.4318 3.33677 16.9753 3.86642 15.916C3.15139 15.5452 2.46288 15.148 1.74785 14.7242C1.08579 14.327 0 13.9298 0 13.2677C0 12.7381 3.6281 3.36327 3.97237 2.51583C4.15774 2.01267 4.26368 1.37709 4.92574 1.37709C5.50835 1.37709 8.47436 2.33046 8.95104 2.33046C9.05697 2.33046 10.8313 1.77432 11.0432 1.69488C12.1025 1.35061 16.4721 0 17.3195 0C19.3057 0 20.2855 1.24468 20.6298 1.21819C21.4508 0.794474 22.4042 0 23.5959 0C25.1319 0 28.6275 1.29764 30.2959 1.74784C32.5469 2.38342 31.8054 2.46287 33.5268 2.1186C34.2418 1.98618 36.4663 1.43005 36.8636 1.61543C37.3667 1.85377 37.5786 2.78066 37.764 3.36327L40.5446 11.2815C40.8624 12.2084 41.1802 12.8175 41.2067 13.2677L41.2332 13.3207ZM17.1871 23.6753C16.578 23.6753 16.1808 23.4105 16.0219 22.9073C15.81 22.2717 16.0484 21.9539 16.3397 21.5037C16.8958 20.5769 17.293 19.3852 18.167 19.3852C18.829 19.3852 19.3851 19.8618 19.3851 20.5239C19.3851 21.08 18.7761 21.901 18.5377 22.3247C18.2729 22.7749 17.9286 23.6488 17.2136 23.6488L17.1871 23.6753ZM13.3207 22.3777C12.2084 22.3777 12.1025 21.6891 12.1025 21.0006C12.1025 20.6563 13.6914 18.0875 13.9827 17.5579C14.7772 16.0484 16.2867 16.8428 16.2867 17.6903C16.2867 18.3788 16.2072 18.3788 15.7041 19.1998C15.4657 19.597 15.2804 19.9678 15.042 20.365C14.5388 21.186 14.1151 22.3512 13.3207 22.3512V22.3777ZM9.53366 20.9211C8.89808 20.9211 8.31549 20.418 8.31549 19.7824C8.31549 19.0674 10.3811 15.916 10.8048 15.1215C10.9637 14.8037 11.1226 14.5124 11.4669 14.327C12.1025 14.0092 13.1353 14.1946 13.1353 15.5187C13.1353 15.81 10.4076 20.4445 10.3017 20.5504C10.1693 20.6563 9.71904 20.8947 9.53366 20.8947V20.9211ZM6.56764 18.1934C6.19688 18.1934 5.95856 18.1405 5.72022 17.9286C4.81982 17.1341 5.82612 15.9424 6.22335 15.2009C6.51466 14.6713 6.85893 13.9298 7.62692 13.9298C8.28898 13.9298 8.76569 14.4329 8.76569 15.2274C8.76569 15.3069 7.62692 18.1934 6.5941 18.1934H6.56764ZM14.7772 6.11745C14.7772 7.78584 15.9689 9.00403 17.346 9.00403C18.829 9.00403 18.5907 8.81866 19.7294 8.34197C22.0864 7.33564 21.1859 7.28267 23.2251 8.50087C23.6753 8.76569 24.5757 9.40127 25.0524 9.40127C25.6085 9.40127 25.9793 8.73921 25.7409 8.23604C25.5556 7.89177 24.8935 7.5475 24.5492 7.33564C24.0725 7.04433 23.7018 6.83247 23.2516 6.54117C21.848 5.61428 21.901 5.50835 19.703 6.51468C19.2527 6.72654 18.0081 7.36212 17.5843 7.36212C16.6575 7.36212 16.4456 6.67358 16.4456 5.98503C16.4456 5.34946 17.4519 4.89925 17.9286 4.63443C18.5642 4.29016 19.0939 3.97237 19.703 3.60161C20.0207 3.41624 20.259 3.28382 20.5768 3.09845C23.9136 1.24468 22.8014 1.11226 27.8066 2.67473C28.5216 2.88659 29.2631 3.09845 29.9781 3.31031L32.2291 3.97237C32.6529 3.97237 35.7778 3.36327 36.0161 3.25734L38.9557 11.6523C39.1146 12.129 39.2735 12.4468 39.3794 12.897C39.0351 12.9234 37.8964 13.4001 37.5256 13.5325C35.2481 14.4329 35.8043 14.2476 35.1952 13.7709C35.0098 13.6385 34.8509 13.559 34.6655 13.4266C34.2418 13.1883 33.8975 12.9764 33.5003 12.7381C33.1295 12.5262 32.7852 12.3143 32.4145 12.076C31.6465 11.5728 31.1698 11.2286 30.6402 11.7317C30.4813 11.8641 30.3754 12.076 30.3754 12.3673C30.3754 13.0029 31.7525 13.612 32.5204 14.0887C32.9442 14.3535 33.2884 14.5653 33.7386 14.8037C34.4536 15.2274 34.6391 15.4128 34.6391 16.1543C34.6391 16.5515 34.3212 16.9488 33.9505 17.0812C33.0766 17.399 32.388 16.6839 31.1963 16.0484C30.4283 15.6246 29.7133 15.2009 28.9453 14.7507C28.4421 14.4594 24.6552 12.2084 24.4168 12.2084C23.7283 12.2084 22.9073 13.2412 24.2314 13.9298C24.6022 14.1151 24.8935 14.327 25.2642 14.5124L30.3224 17.4254C31.4082 18.061 31.0639 19.597 29.6603 19.597C29.0512 19.597 22.616 15.4128 22.0334 15.4393C21.4508 15.4657 20.6298 16.3926 21.795 17.0812L26.3236 19.7029C27.224 20.2591 27.8066 20.3385 27.8066 21.3713C27.8066 21.901 27.3299 22.2717 26.8797 22.3777C26.2971 22.5101 24.867 21.5567 24.2844 21.186L21.7686 19.7559C20.1796 18.829 21.0006 19.3322 20.1266 18.4848C19.597 17.9551 18.8025 17.6638 17.9816 17.6638C17.9551 16.2602 16.8164 15.1215 15.148 15.0155C14.5654 14.9891 14.8302 14.7507 14.5918 14.1946C13.9033 12.6321 12.0495 12.076 10.7254 12.8175C10.3282 13.0294 10.1693 13.2677 9.85148 13.4796C9.69258 12.9234 8.63325 12.2614 7.91823 12.2614C7.04431 12.2614 6.43522 12.2614 5.69371 13.0029C5.24351 13.4531 5.00518 13.8503 4.71387 14.4329L1.90674 12.8175C1.98619 12.4468 2.19802 11.9965 2.33043 11.6258C2.91304 10.1693 5.1111 4.02533 5.53482 3.15141C6.06447 3.15141 8.34196 3.94588 8.92457 3.94588C9.34829 3.94588 9.85147 3.73403 10.2222 3.6281C11.7317 3.20438 16.8164 1.48302 17.7168 1.58895C18.5112 1.6684 18.5112 1.90674 18.9085 2.01267C18.829 2.30397 18.167 2.59528 17.7168 2.83362C17.2666 3.09845 16.8958 3.28382 16.4456 3.57513C15.5452 4.10478 14.8037 4.84629 14.8037 6.038L14.7772 6.11745Z" fill="#EC691F"/>
<path id="Vector_2" fill-rule="evenodd" clip-rule="evenodd" d="M27.3301 10.4076C27.3301 11.0432 27.6479 11.3874 28.1775 11.3345C29.3428 11.2021 28.9985 9.69257 28.204 9.69257C27.7008 9.69257 27.3301 9.93091 27.3301 10.4076Z" fill="#EC691F"/>
</g>
</svg>
