<svg width="34" height="39" viewBox="0 0 34 39" fill="none" xmlns="http://www.w3.org/2000/svg">
<g id="Group 97">
<path id="Vector" fill-rule="evenodd" clip-rule="evenodd" d="M22.4042 35.2746C23.4634 35.2481 23.384 35.1952 23.384 36.228L22.4042 35.2746ZM13.1618 0.0794473H13.9298C15.148 0.132412 16.3926 0.529649 17.5579 1.21819C19.0144 2.09211 20.1002 3.60161 20.6563 5.21704C21.1595 6.67358 20.8947 8.71272 21.0271 9.53368C21.0535 9.7985 21.2919 10.0368 21.4243 10.3282C22.1658 12.076 20.7093 13.7709 19.2263 13.7709C18.9349 15.0155 18.6172 15.9689 17.7432 16.8428C17.5843 17.0017 17.0547 17.4255 17.0547 17.6373C17.0547 19.0938 16.9488 18.882 17.4784 19.0938C18.1405 19.3587 20.8417 20.5504 21.08 20.5504C21.2124 20.5504 21.3449 20.4445 21.5302 20.3915C22.0334 20.2591 24.9994 20.312 25.7145 20.312C25.9793 20.312 26.3236 20.5239 26.3236 20.7622C26.3236 21.7686 25.2643 21.5037 24.099 21.5037C23.6223 21.5037 23.1457 21.5037 22.669 21.5037C22.2717 21.5037 21.6362 21.3713 21.6362 21.7951V34.0829H23.1986C24.867 34.0829 24.6022 36.0691 24.6022 37.0754H32.0438C32.388 37.0754 32.5734 36.89 32.5734 36.5458V21.9275C32.5734 21.3184 32.1232 21.4773 31.5406 21.4773H28.707C27.4358 21.4508 27.6742 20.2856 28.4157 20.2856H32.2821C33.0501 20.2856 33.6857 20.9476 33.6857 21.6891V36.7576C33.6857 37.1549 33.5003 37.4991 33.2884 37.711C33.1295 37.8964 32.7323 38.1612 32.4145 38.1612H23.9931C23.5429 38.1612 22.4306 36.8636 22.0864 36.4928C20.5769 34.9833 21.0535 35.1687 19.8354 35.1687H2.09211C1.32412 35.1687 1.0593 35.2217 0.582614 34.8774C0.291307 34.6655 0 34.2418 0 33.7386V26.5089C0 25.1054 0.529649 24.1785 1.27116 23.2251C1.48302 22.9338 2.19804 22.3777 2.51583 22.1658C3.04548 21.8215 7.81232 19.8618 8.81866 19.4646C9.10996 19.3587 9.32182 19.2527 9.61313 19.1203C9.98388 18.9614 10.2752 18.9349 10.2752 18.6701C10.2752 17.5049 10.4076 17.5579 9.90444 17.1871C9.00403 16.4986 8.05066 14.8037 8.05066 13.6914C7.33564 13.6914 6.80599 13.3736 6.43524 13.0029C5.72021 12.2879 5.66724 11.8112 5.66724 10.9373C5.66724 10.54 5.82614 10.2752 5.95855 10.0368C6.19689 9.66609 6.27634 9.77202 6.27634 9.16293C6.27634 8.42142 6.22338 7.57398 6.27634 6.85895C6.35579 5.11111 7.30916 3.20438 8.50087 2.06563C9.85147 0.794473 11.4934 0.0794473 13.2147 0L13.1618 0.0794473ZM2.06563 24.2314C3.38975 24.5492 4.66091 25.8733 4.66091 27.5153V34.1624H1.61543C0.873921 34.1624 1.08578 33.0766 1.08578 31.8584C1.08578 30.852 1.16523 30.1105 1.16523 29.1042C1.16523 28.2303 1.11226 27.118 1.16523 26.2706C1.21819 25.6085 1.64191 24.5492 2.06563 24.2579V24.2314ZM15.5452 24.9729C16.3926 24.9729 16.525 24.7081 16.8164 24.152L17.5579 22.7484C17.8757 22.7749 18.6966 23.2251 18.9879 23.331C19.3852 23.4899 20.0472 23.8607 20.3915 23.9401V34.1624H15.9954C15.9954 33.6592 15.863 32.9971 15.8365 32.441C15.7835 30.4548 14.6448 31.2493 14.6448 31.6995C14.6448 32.6264 14.8037 33.262 14.8037 34.1624H12.4997L13.1618 25.9528H14.1416C14.1416 26.6413 14.3535 27.6742 14.3535 28.5481C14.38 30.0576 15.2009 29.7398 15.4128 29.5279C15.7306 29.2101 15.4393 27.7536 15.4128 26.9856C15.3333 25.3967 15.1215 25.8204 15.5717 24.9729H15.5452ZM4.95222 24.7611L8.52735 23.1721C8.84514 23.0397 9.37479 22.7484 9.71906 22.669C9.9574 23.1457 10.1957 23.5959 10.4341 24.099C10.8048 24.8405 10.9902 24.9729 11.7317 24.9729C11.9171 25.2907 12.076 25.3702 11.9965 25.8998L11.4139 32.9177C11.361 33.209 11.308 33.8975 11.308 34.1359H5.8791C5.8791 32.494 6.038 27.4623 5.64076 26.1647C5.5878 26.0058 5.4289 25.6085 5.32297 25.4231C5.16408 25.1318 5.03166 25.0789 4.9787 24.7346L4.95222 24.7611ZM12.791 24.2314C13.0294 24.1785 12.9764 24.1255 13.1883 23.9666C13.3472 23.8342 13.4531 23.7283 13.612 23.6223C13.8768 23.7018 14.5124 24.205 14.5124 24.2844C14.5124 25.0259 13.4266 24.8405 12.9499 24.7346C12.8705 24.5492 12.844 24.4698 12.791 24.205V24.2314ZM18.4583 20.8682C18.8025 20.8682 20.0737 21.4508 20.3915 21.6097V22.6425L18.167 21.6626C18.1934 21.2654 18.3788 21.2124 18.4583 20.8417V20.8682ZM3.019 23.2516C3.23086 23.1986 3.15141 23.1986 3.33679 23.1192L4.42257 22.6425C4.92574 22.4306 8.4479 20.8946 8.84514 20.8682C8.92459 21.186 9.08348 21.3449 9.21589 21.6097L4.47553 23.7283C4.05182 23.9401 4.10478 23.9401 3.76051 23.7283C3.52217 23.5694 3.20438 23.4899 3.019 23.2516ZM9.87795 20.3385C10.6989 20.1531 10.2222 19.6235 11.6523 21.3978C11.8112 21.6097 12.023 21.848 12.2084 22.0334L12.791 22.7219C12.6586 22.9338 11.8377 23.6223 11.5199 23.7018C11.3875 23.0927 10.3282 21.4243 9.98388 20.6298C9.93092 20.5239 9.90444 20.418 9.87795 20.365V20.3385ZM15.7571 23.7018C15.5187 23.6488 14.6183 22.9073 14.4859 22.7219L16.7104 20.1002C16.9223 20.1002 17.1871 20.2591 17.4519 20.312C16.8693 21.4243 16.3132 22.563 15.7306 23.6753L15.7571 23.7018ZM11.361 18.1934C12.4468 18.7761 14.1681 18.7496 15.4128 18.3788C15.6511 18.2994 15.6776 18.2464 15.916 18.1934C15.916 18.7761 16.0219 19.1733 15.7306 19.5176C15.5982 19.6765 15.4922 19.7559 15.3598 19.9148C14.9891 20.365 13.9298 21.6891 13.5855 21.9275L11.5199 19.5176C11.255 19.1733 11.3345 18.7761 11.3345 18.1934H11.361ZM9.13645 13.4266V9.18941C10.8843 9.18941 12.023 9.08348 13.5855 8.55383C14.8037 8.15659 15.5717 7.70639 16.6045 7.17674L17.7432 8.42142C17.8757 8.55383 18.0875 8.68624 18.0875 8.8981V12.9234C18.0875 14.8037 17.0547 16.3662 15.6511 17.0547C12.4468 18.6172 9.13645 16.0484 9.13645 13.4531V13.4266ZM19.1998 12.6056V9.98388C20.7887 9.98388 20.8152 12.5527 19.1998 12.6056ZM6.75302 11.4139C6.75302 10.593 7.25619 10.1693 7.94473 10.0104V12.6321C7.17674 12.6056 6.75302 11.7847 6.75302 11.4404V11.4139ZM8.02418 8.81865C7.65343 8.81865 7.67991 8.8981 7.36212 8.8981C7.36212 6.75302 7.52102 4.76684 9.08348 3.17789C9.66609 2.59528 10.2487 2.17156 11.0432 1.80081C12.6321 1.03282 14.9891 1.08578 16.4986 1.98618C17.2136 2.4099 17.8492 2.88659 18.3788 3.54865C19.7824 5.29649 19.7824 6.72654 19.7824 8.92458L19.1733 8.84514C19.1733 8.15659 19.0144 8.18308 18.4053 7.44157C18.2994 7.30915 18.1934 7.22971 18.061 7.0973L17.3725 6.38227L17.346 6.35579L17.3195 6.3293C17.3195 6.3293 17.1341 6.17041 17.1077 6.17041C16.3397 5.69373 15.6246 6.51468 14.6183 6.99137C13.2942 7.60046 11.5993 8.07715 10.0104 8.05066C9.03051 8.05066 8.07715 7.97122 7.9977 8.87162L8.02418 8.81865Z" fill="#EB691F"/>
<path id="Vector_2" d="M26.6468 30.8536C26.8421 31.0488 27.1586 31.0488 27.3538 30.8535L29.3533 28.8536C29.3534 28.8535 29.3534 28.8535 29.3534 28.8535C29.6016 28.6053 30.0402 28.606 30.4205 28.9388C30.5977 29.0938 30.719 29.2945 30.7582 29.5055C30.7948 29.7022 30.7665 29.9384 30.5973 30.202L28.1317 33.1606C27.9569 33.3282 27.6636 33.4854 27.3393 33.5192C27.026 33.5518 26.678 33.4714 26.353 33.1464C26.1151 32.9085 25.8341 32.7298 25.57 32.5829C25.4369 32.5089 25.3016 32.4394 25.174 32.3743C25.1637 32.369 25.1535 32.3638 25.1433 32.3586C25.0247 32.2981 24.9134 32.2413 24.8056 32.1827C24.3204 31.919 24.0648 31.6974 23.9851 31.3787C23.8828 30.9694 23.9258 30.6776 24.0181 30.4723C24.1117 30.2641 24.2759 30.1008 24.4884 29.9849C24.7036 29.8675 24.9568 29.806 25.1954 29.8016C25.413 29.7976 25.5835 29.8412 25.6903 29.8975L26.6468 30.8536Z" stroke="#EB691F" stroke-linejoin="round"/>
<path id="Vector 10" d="M24 26H31.5M24 23.5H31.5" stroke="#EB691F" stroke-linecap="round" stroke-linejoin="round"/>
</g>
</svg>
