<svg width="44" height="44" viewBox="0 0 44 44" fill="none" xmlns="http://www.w3.org/2000/svg">
<path fill-rule="evenodd" clip-rule="evenodd" d="M2.39943 31.3027V41.9557H12.1203V37.295H16.781V32.7675H21.3085V27.9736L23.3059 28.7726C23.5723 28.9058 23.7054 28.9058 23.9718 29.0389C26.7682 29.9711 29.4314 29.8379 32.2278 29.0389C32.6273 28.9058 33.0268 28.7726 33.4263 28.5063C33.5595 28.3731 33.8258 28.3731 33.9589 28.2399C35.2906 27.5741 36.3559 26.7752 37.288 25.7099C38.2201 24.7777 38.7528 23.9787 39.4186 22.9134C40.0844 21.715 40.4839 20.6497 40.8834 19.3181C41.5492 16.9211 41.2829 14.391 40.4839 12.1273C40.3507 11.7278 40.2176 11.3283 39.9513 10.9288C39.8181 10.5293 39.5518 10.263 39.4186 9.86352C39.2854 9.73035 39.2854 9.46403 39.1523 9.33087C39.0191 9.1977 38.886 8.93138 38.7528 8.79822C38.4865 8.39873 38.2201 7.99924 37.8207 7.59975C37.8207 7.46659 37.6875 7.46659 37.6875 7.33343L36.0895 5.86864C35.9564 5.86864 35.9564 5.73548 35.8232 5.73548C35.4237 5.33599 34.8911 5.06967 34.3584 4.80334C31.562 3.20539 27.9666 2.53958 24.7707 3.33855C24.5044 3.33855 24.3712 3.47172 24.1049 3.47172C23.5723 3.60488 22.7733 3.8712 22.3738 4.13753L21.1753 4.67018C20.3764 5.06967 19.8437 5.46915 19.1779 6.0018C18.3789 6.66762 17.3136 7.73292 16.781 8.53189C16.5147 8.93138 16.3815 9.1977 16.1152 9.59719C15.0499 11.4615 14.3841 13.9916 14.3841 16.1222C14.3841 16.6548 14.5172 17.1875 14.5172 17.7201C14.6504 18.7854 14.5172 18.6522 13.7182 19.4512L5.86165 27.3078C5.72849 27.441 5.59533 27.5741 5.46216 27.7073L5.06268 27.9736L2.26626 30.77C2.26626 30.9032 2.1331 30.9032 1.99994 31.0364L2.39943 31.3027ZM17.1805 19.4512C17.1805 18.6522 16.781 17.5869 16.781 16.5216C16.781 13.9916 17.3136 12.3936 18.5121 10.263C19.1779 9.06454 20.3764 7.99924 21.4417 7.0671C23.0396 5.86864 25.5697 5.06967 27.7003 5.06967C29.4314 5.06967 31.1625 5.33599 32.7605 6.13497C34.6248 7.0671 36.3559 8.39873 37.5543 10.263C37.6875 10.3962 37.6875 10.5293 37.8207 10.6625C38.886 12.7931 39.2854 14.2579 39.2854 16.5216C39.2854 18.6522 38.6196 20.5165 37.5543 22.2476C36.7554 23.5793 35.0242 25.1772 33.6926 25.9762C31.562 27.0415 30.0972 27.441 27.8335 27.441C26.5018 27.441 24.6376 27.0415 23.4391 26.3757C23.1728 26.2425 22.6401 25.9762 22.3738 25.843H19.3111V30.3705H14.6504V35.0312H10.1229V39.5588H4.53003V32.1017C4.53003 31.7022 5.86165 30.5037 6.26114 30.1042L7.72593 28.6394C8.79123 27.441 9.85653 26.3757 11.055 25.3104C12.1203 24.2451 13.1856 23.1798 14.2509 22.1145C14.9167 21.4487 16.3815 19.7175 17.3136 19.0517L17.1805 19.4512Z" fill="white"/>
<path fill-rule="evenodd" clip-rule="evenodd" d="M28.1005 13.1927C28.1005 14.258 28.3669 14.9238 29.0327 15.5896C30.2311 16.7881 32.2286 16.7881 33.427 15.5896C34.6255 14.3911 34.6255 12.3937 33.427 11.1952C32.2286 9.99677 30.2311 9.99677 29.0327 11.1952C28.6332 11.5947 28.1005 12.3937 28.1005 13.1927Z" stroke="white" stroke-width="2.1306" stroke-miterlimit="22.9256"/>
</svg>
