<svg width="44" height="44" viewBox="0 0 44 44" fill="none" xmlns="http://www.w3.org/2000/svg">
<path fill-rule="evenodd" clip-rule="evenodd" d="M8.44782 23.0777C8.58082 22.8117 13.1027 18.2898 13.2357 18.2898C13.3687 18.1568 19.2206 12.1719 19.4866 12.0389C19.6196 11.9059 21.4816 10.0439 21.4816 10.0439C21.6146 10.1769 22.0136 10.5759 22.1466 10.7089C22.2796 10.8419 23.2106 11.7729 23.4766 12.0389L34.3824 22.9447C34.5154 23.0777 34.6484 23.0777 34.6484 23.3437C34.6484 23.7427 34.6484 24.2747 34.6484 24.6737V37.9734C34.6484 38.7714 34.6484 39.8354 34.6484 40.6334H26.4025V40.2344V39.5694V38.9044V38.2394V37.5745V36.9095V36.2445V35.5795V34.9145V34.2495V33.5845V32.9195V32.2545V31.5896V30.9246V30.2596V29.4616H16.5607V40.8994H8.31483V23.6097C8.31483 23.4767 8.31483 23.4767 8.44782 23.4767V23.0777ZM6.71885 42.2294H18.1567V30.7916H24.6735V31.3236V32.1215V32.7865V33.4515V34.1165V34.7815V35.4465V36.1115V36.7765V37.4415V38.1064V38.7714V39.4364V40.1014V40.7664V41.4314V42.0964H36.1114C36.1114 41.5644 36.1114 34.2495 36.1114 33.5845V22.9447C36.1114 22.4127 36.2443 22.4127 35.8454 22.1467L29.0625 15.2308C28.7965 15.0978 23.7426 9.91093 23.2106 9.37894C22.9446 9.11294 22.5456 8.71395 22.2796 8.44795C22.0136 8.18196 21.6146 7.78296 21.3486 7.51697C21.2156 7.78296 20.8166 8.04896 20.5506 8.31495L13.9007 14.8318C13.7677 14.9648 13.6347 15.0978 13.5017 15.2308L10.8418 17.8908C10.7088 18.0238 10.5758 18.1568 10.4428 18.2898L9.24581 19.4868C9.11281 19.6198 8.97982 19.6198 8.84682 19.8858C8.71382 20.0188 8.58082 20.1518 8.44782 20.2848C8.31483 20.4177 8.18183 20.5507 8.04883 20.6837C7.91583 20.8167 7.78284 20.9497 7.64984 21.0827C7.51684 21.2157 7.38384 21.3487 7.25084 21.4817C6.05387 22.6787 6.31986 22.0137 6.31986 23.6097C6.31986 27.7326 6.31986 31.8556 6.31986 35.9785C6.31986 36.6435 6.31986 41.8304 6.31986 42.0964L6.71885 42.2294Z" fill="#333333"/>
<path fill-rule="evenodd" clip-rule="evenodd" d="M8.31463 14.2998C8.31463 12.4378 8.31463 9.64485 8.31463 7.78288H11.6396V10.7088C11.6396 11.3738 11.7726 11.1078 10.9746 11.7728L8.44763 14.2998C8.31463 14.2998 8.44763 14.2998 8.31463 14.2998ZM42.0961 21.7476C41.8301 21.8806 41.0321 22.8116 40.8991 22.9446C40.3671 22.4126 36.9091 18.9547 36.1112 18.1567C35.3132 17.3587 34.5152 16.5607 33.7172 15.7627C33.3182 15.3638 32.9192 14.9648 32.5202 14.5658C31.4562 13.3688 30.1263 12.1718 28.9293 10.9748L22.4124 4.45794C22.2794 4.32494 22.0134 3.92595 21.7474 3.92595C21.6144 3.79295 21.6144 3.65995 21.3484 3.52696C21.0824 3.79295 18.0235 6.8519 17.7575 7.11789L14.1665 10.7088C13.3685 11.5068 12.5706 12.3048 11.7726 13.1028C10.1766 14.6988 8.58063 16.2947 6.98465 17.8907C5.52168 19.3537 3.65971 21.2157 2.19674 22.6786C1.93074 22.5456 1.26575 21.7476 0.999756 21.4816C1.26575 21.3486 2.06374 20.4177 2.32973 20.1517L6.31966 16.1617C6.71866 15.7627 6.71866 16.0287 6.71866 15.2308V8.58087C6.71866 7.78288 6.71866 6.7189 6.71866 5.92092H13.3685V9.24586C13.5015 9.11286 13.5015 9.11286 13.6345 8.97986L21.6144 1L22.2794 1.66499C22.4124 1.93098 23.7424 3.12796 24.1414 3.52696L27.2003 6.5859C28.7963 8.18188 30.6582 9.91085 32.1212 11.6398C33.7172 13.2358 35.5792 14.9648 37.0421 16.6937C37.4411 17.0927 41.8301 21.6146 42.0961 21.7476Z" fill="#333333"/>
</svg>
