<svg width="44" height="44" viewBox="0 0 44 44" fill="none" xmlns="http://www.w3.org/2000/svg">
<path fill-rule="evenodd" clip-rule="evenodd" d="M24.9028 23.2286H19.5412V13.5107H25.3496C26.4666 13.5107 27.6953 14.1809 28.4773 14.9628C30.9347 17.4202 30.0411 21.5531 26.9134 22.8935C26.3549 23.1169 25.6847 23.2286 24.9028 23.2286ZM14.7381 13.5107H17.4189V23.2286H14.7381V25.351H17.4189V28.2552H14.7381V30.3775H17.4189V34.0636H19.5412V30.3775H25.9081V28.2552H19.5412V25.351H25.3496C26.3549 25.351 27.3602 25.0158 28.0305 24.6807C29.1475 24.1222 30.0411 23.452 30.823 22.335C31.0464 21.9999 31.2698 21.6648 31.3815 21.218C32.6102 18.3138 31.94 15.5213 29.9294 13.399C28.589 12.0586 26.8017 11.3884 24.9028 11.3884H14.8498V13.5107H14.7381Z" fill="#333333"/>
<path d="M21.9995 1C27.8079 1 33.0578 3.3457 36.8556 7.14351C40.6534 10.9413 42.9991 16.1912 42.9991 21.9996C42.9991 27.808 40.6534 33.058 36.8556 36.8558C33.0578 40.6536 27.8079 42.9993 21.9995 42.9993C16.1911 42.9993 10.9412 40.6536 7.14339 36.8558C3.34558 33.058 0.999878 27.808 0.999878 21.9996C0.999878 16.1912 3.34558 10.9413 7.14339 7.14351C10.9412 3.3457 16.1911 1 21.9995 1ZM35.4035 8.59561C31.9408 5.13291 27.2494 3.0106 21.9995 3.0106C16.7496 3.0106 11.9465 5.13291 8.59549 8.59561C5.13278 12.0583 3.01048 16.7497 3.01048 21.9996C3.01048 27.2495 5.13278 32.0527 8.59549 35.4037C12.0582 38.8664 16.7496 40.9887 21.9995 40.9887C27.2494 40.9887 32.0525 38.8664 35.4035 35.4037C38.8662 31.941 40.9885 27.2495 40.9885 21.9996C40.9885 16.7497 38.8662 11.9466 35.4035 8.59561Z" fill="#333333"/>
</svg>
